<svg id="Layer_1" data-name="Layer 1" xmlns="http://www.w3.org/2000/svg" width="123.65" height="158.98" viewBox="0 0 123.65 158.98">
  <defs>
    <style>
      .cls-1 {
        fill: #fff;
      }

      .cls-2 {
        fill: #4b705e;
      }
    </style>
  </defs>
  <title>coffeecup</title>
  <g>
    <path class="cls-1" d="M79.47,147.87H44.4A14.47,14.47,0,0,1,30,135L17.8,27.2A14.47,14.47,0,0,1,32.18,11.1H91.69a14.47,14.47,0,0,1,14.38,16.1L93.84,135A14.45,14.45,0,0,1,79.47,147.87Z"/>
    <rect class="cls-2" x="8.12" y="19.62" width="107.42" height="18.27" rx="9.14"/>
    <polygon class="cls-2" points="21.69 61.83 101.97 61.83 97.34 102.6 26.31 102.6 21.69 61.83"/>
    <g>
      <path class="cls-1" d="M48.33,86.17a1.87,1.87,0,0,1-1.09-.33,2.18,2.18,0,0,1-.74-.92,3.14,3.14,0,0,1-.27-1.34V75.94a.68.68,0,0,1,.7-.7.71.71,0,0,1,.51.2.68.68,0,0,1,.19.5v7.64a1.71,1.71,0,0,0,.2.86.58.58,0,0,0,.5.33h.35a.6.6,0,0,1,.46.2.76.76,0,0,1,.17.5.62.62,0,0,1-.26.51,1.15,1.15,0,0,1-.69.19Z"/>
      <path class="cls-1" d="M53.48,86.23a3.36,3.36,0,0,1-1.83-.51,3.58,3.58,0,0,1-1.28-1.39,4.14,4.14,0,0,1-.47-2,3.9,3.9,0,0,1,.51-2A3.94,3.94,0,0,1,55.72,79a3.83,3.83,0,0,1,1.38,1.39,3.9,3.9,0,0,1,.51,2h-.54a4.14,4.14,0,0,1-.47,2,3.58,3.58,0,0,1-1.28,1.39A3.4,3.4,0,0,1,53.48,86.23ZM53.76,85A2.4,2.4,0,0,0,55,84.63a2.49,2.49,0,0,0,.88-.94,2.82,2.82,0,0,0,.32-1.34A2.86,2.86,0,0,0,55.92,81a2.57,2.57,0,0,0-.88-.94,2.4,2.4,0,0,0-1.28-.34,2.36,2.36,0,0,0-1.26.34,2.54,2.54,0,0,0-.9.94,2.75,2.75,0,0,0-.33,1.35,2.72,2.72,0,0,0,.33,1.34,2.47,2.47,0,0,0,.9.94A2.36,2.36,0,0,0,53.76,85Zm3.14,1.22a.69.69,0,0,1-.71-.72V83.33l.26-1.48,1.16.5v3.12a.69.69,0,0,1-.2.52A.71.71,0,0,1,56.9,86.19Z"/>
      <path class="cls-1" d="M59.42,80a.69.69,0,0,1-.48-.17.54.54,0,0,1-.18-.42.61.61,0,0,1,.18-.45.68.68,0,0,1,.48-.16h3.23a.68.68,0,0,1,.48.16.61.61,0,0,1,.18.45.54.54,0,0,1-.18.42.69.69,0,0,1-.48.17Zm3.11,6.17a2.26,2.26,0,0,1-1.26-.35,2.48,2.48,0,0,1-.89-1,3,3,0,0,1-.32-1.38V76.78a.67.67,0,0,1,.2-.5.69.69,0,0,1,.5-.2.69.69,0,0,1,.51.2.66.66,0,0,1,.19.5v6.68a1.5,1.5,0,0,0,.31.94,1,1,0,0,0,.76.37H63a.57.57,0,0,1,.43.2.71.71,0,0,1,.18.5.63.63,0,0,1-.24.51.87.87,0,0,1-.59.19Z"/>
      <path class="cls-1" d="M65,80a.68.68,0,0,1-.47-.17.55.55,0,0,1-.19-.42.62.62,0,0,1,.19-.45A.67.67,0,0,1,65,78.8h3.24a.67.67,0,0,1,.47.16.61.61,0,0,1,.18.45.54.54,0,0,1-.18.42.68.68,0,0,1-.47.17Zm3.11,6.17a2.26,2.26,0,0,1-1.26-.35,2.46,2.46,0,0,1-.88-1,2.87,2.87,0,0,1-.32-1.38V76.78a.66.66,0,0,1,.19-.5.69.69,0,0,1,.51-.2.69.69,0,0,1,.5.2.67.67,0,0,1,.2.5v6.68a1.49,1.49,0,0,0,.3.94,1,1,0,0,0,.76.37h.48A.55.55,0,0,1,69,85a.71.71,0,0,1,.18.5A.65.65,0,0,1,69,86a.9.9,0,0,1-.6.19Z"/>
      <path class="cls-1" d="M74.57,86.23a4.12,4.12,0,0,1-2.07-.5,3.64,3.64,0,0,1-1.41-1.37,3.9,3.9,0,0,1-.51-2,4.13,4.13,0,0,1,.48-2A3.53,3.53,0,0,1,72.4,79a3.83,3.83,0,0,1,2-.5,3.49,3.49,0,0,1,1.87.48,3.21,3.21,0,0,1,1.2,1.33,4.38,4.38,0,0,1,.41,2,.6.6,0,0,1-.18.44.65.65,0,0,1-.46.17H71.56V81.72h5.6l-.58.39a3,3,0,0,0-.28-1.25,2.06,2.06,0,0,0-.75-.87,2.1,2.1,0,0,0-1.19-.33A2.61,2.61,0,0,0,73,80a2.34,2.34,0,0,0-.86,1,3.25,3.25,0,0,0-.29,1.38,2.59,2.59,0,0,0,.35,1.37,2.53,2.53,0,0,0,1,1,2.85,2.85,0,0,0,2.31.19,2.91,2.91,0,0,0,.73-.38.85.85,0,0,1,.46-.16.64.64,0,0,1,.42.15.66.66,0,0,1,.26.46.53.53,0,0,1-.23.44,4,4,0,0,1-1.18.61A4.19,4.19,0,0,1,74.57,86.23Z"/>
    </g>
  </g>
</svg>
