<svg id="Layer_1" data-name="Layer 1" xmlns="http://www.w3.org/2000/svg" width="92.08" height="196.24" viewBox="0 0 92.08 196.24">
  <defs>
    <style>
      .cls-1 {
        fill: #fff;
      }

      .cls-2 {
        fill: #e6e6e6;
      }
    </style>
  </defs>
  <title>fishbone</title>
  <g>
    <path class="cls-1" d="M80.79,60.25C86,51,76.07,36.94,70.85,29.54,66.69,23.65,53.78,5.35,39,7.57c-8.5,1.27-13.66,8.69-18.48,15.62C17,28.17,6,44.06,11.24,55.71,20.09,75.25,71.9,76.17,80.79,60.25Z"/>
    <rect class="cls-1" x="42.04" y="60.05" width="8" height="99.22" rx="3.85"/>
    <path class="cls-1" d="M70,187.72c6-6.61-3-20.29-6.8-26.62-3-5-12.14-19-18.85-16.39-5.95,2.34-11.87,9.74-15.51,15.56-2.62,4.19-12.75,18.28-7.14,27.47,3.14,5.15,14.21-9.24,24.32-9.52C56.78,177.93,66.58,191.49,70,187.72Z"/>
    <rect class="cls-1" x="10.45" y="103.3" width="71.18" height="8" rx="4"/>
    <rect class="cls-1" x="6.57" y="83.33" width="78.95" height="8" rx="4"/>
    <rect class="cls-1" x="18.64" y="124.02" width="54.8" height="7.64" rx="3.82"/>
    <rect class="cls-2" x="40.7" y="36.9" width="10.68" height="10.68" rx="5.34"/>
  </g>
</svg>
