<svg id="Layer_1" data-name="Layer 1" xmlns="http://www.w3.org/2000/svg" width="1920" height="1080" viewBox="0 0 1920 1080">
  <defs>
    <style>
      .cls-1 {
        fill: #bab9b9;
      }

      .cls-2, .cls-4 {
        fill: #fff;
      }

      .cls-2, .cls-7 {
        opacity: 0.5;
      }

      .cls-3, .cls-7 {
        fill: #616e7d;
      }

      .cls-5 {
        fill: #9e9e9e;
      }

      .cls-6 {
        fill: #aad4c7;
      }

      .cls-8 {
        fill: #7acbea;
      }

      .cls-9 {
        fill: #efa5a5;
      }

      .cls-10 {
        fill: #737373;
      }
    </style>
  </defs>
  <title>gameover</title>
  <rect class="cls-1" width="1920" height="1080"/>
  <path class="cls-2" d="M1496.42,674.83h-8.05C1474.55,582,1348,509.25,1194,509.25c-51.27,0-99.49,8.06-141.53,22.23C1011,442,891.84,377.33,751.3,377.33c-149.24,0-274.36,72.9-308,171-3.45-.12-6.92-.19-10.41-.19-103.63,0-189,55.39-200.32,126.66H209.34c-83.34,0-150.9,67.26-150.9,150.22h0c0,83,67.56,150.22,150.9,150.22H1496.42c83.33,0,150.89-67.25,150.89-150.22h0C1647.31,742.09,1579.75,674.83,1496.42,674.83Z"/>
  <path class="cls-2" d="M1655.7,453.7h-8.91c-15.29-122-155.27-217.55-325.72-217.55-56.74,0-110.1,10.59-156.61,29.21C1118.56,147.77,986.72,62.83,831.2,62.83c-165.14,0-303.58,95.77-340.78,224.71-3.81-.17-7.66-.25-11.52-.25-114.67,0-209.09,72.78-221.66,166.41H231.5c-92.22,0-167,88.37-167,197.37h0c0,109,74.75,197.37,167,197.37H1655.7c92.22,0,167-88.37,167-197.37h0C1822.68,542.07,1747.92,453.7,1655.7,453.7Z"/>
  <g>
    <path class="cls-3" d="M446.35,251.79h21.22q6.51.26,7.95,3.52a16,16,0,0,1,1.21,7v27.59a11.15,11.15,0,0,1-3.38,7.65q-10.12,10.9-30.37,10.91-18,0-31.23-14.11T398.5,260.32q0-19.94,13.5-33.3t31.82-13.35q14.22,0,26.88,9.78Q474,226,474,229t-2.78,7.09q-4.69,6.65-8.56,6.64c-1.52,0-4-1.14-7.35-3.44a20.86,20.86,0,0,0-12-3.45,23,23,0,0,0-16.28,6.71q-7.11,6.71-7.11,17.55a25.74,25.74,0,0,0,7.23,18.44q7.24,7.59,16.4,7.59a30.1,30.1,0,0,0,11.93-2.26V270.23h-9.52q-3.74,0-5.31-1a4.69,4.69,0,0,1-2-3A22.29,22.29,0,0,1,438,261a20.73,20.73,0,0,1,.55-5.33,4.12,4.12,0,0,1,2-2.76A12.66,12.66,0,0,1,446.35,251.79Z"/>
    <path class="cls-3" d="M537.36,221.82l32.55,70c1.36,2.85,2.05,5,2.05,6.4q0,4.51-7,8.15-4.1,2.13-6.44,2.13a6.21,6.21,0,0,1-3.86-1.13,7.23,7.23,0,0,1-2.17-2.38c-.44-.83-1.07-2.09-1.87-3.76l-6.27-13.55H511l-6.27,13.55q-1.2,2.51-1.86,3.63a9,9,0,0,1-2.17,2.33,6.09,6.09,0,0,1-3.86,1.19q-2.35,0-6.45-2.14-7-3.51-7-8,0-2.13,2.05-6.4L518,221.69a10.92,10.92,0,0,1,4-4.64,10.38,10.38,0,0,1,5.73-1.75Q534.23,215.3,537.36,221.82Zm-9.76,30.1-8,17.18h16Z"/>
    <path class="cls-3" d="M672.49,218.81a10.53,10.53,0,0,1,1.15,3.39,39.74,39.74,0,0,1,.18,4.39v69.6q0,8.65-4.58,10.16a18.93,18.93,0,0,1-5.79.75,20,20,0,0,1-5.55-.62,9.31,9.31,0,0,1-3.13-1.51,5.63,5.63,0,0,1-1.69-2.51,26,26,0,0,1-.6-6.52v-42q-3,3.88-8.8,12.35t-7.35,10.6l-2.17,2.94a11.63,11.63,0,0,1-3,2.26,9.78,9.78,0,0,1-10,.13,11.44,11.44,0,0,1-3.2-2.57l-1-1.38q-2.41-3.13-9.52-13.36t-7.72-11v42.26a38,38,0,0,1-.18,4.33,9.19,9.19,0,0,1-1.14,3.2q-1.82,3.38-9.41,3.38-7.35,0-9.16-3.38a9.18,9.18,0,0,1-1.14-3.26,41.58,41.58,0,0,1-.18-4.52V226.33a38,38,0,0,1,.18-4.32,10.44,10.44,0,0,1,1.14-3.33q1.82-3.26,9.4-3.26a17.29,17.29,0,0,1,5.61.82,7.12,7.12,0,0,1,3.07,1.69l.73.75,27.36,37.38q20.49-28.22,27.36-37.25,2.05-3.39,9.71-3.39T672.49,218.81Z"/>
    <path class="cls-3" d="M704.8,285h37.12a32.66,32.66,0,0,1,4.16.19,9.36,9.36,0,0,1,3.2,1.19q3.26,1.75,3.25,9.78,0,8.78-4.46,10.29a19.48,19.48,0,0,1-6.27.75H694.07q-8.45,0-9.89-4.77a20.51,20.51,0,0,1-.72-6.39V226.33q0-6.39,2.29-8.71t8.68-2.32h47.49a32.66,32.66,0,0,1,4.16.19,9.36,9.36,0,0,1,3.2,1.19q3.26,1.75,3.25,9.78,0,8.78-4.46,10.28a19.14,19.14,0,0,1-6.27.76h-37v12.66h23.86a34.66,34.66,0,0,1,4.16.19,9.72,9.72,0,0,1,3.2,1.19q3.26,1.76,3.25,9.79,0,8.78-4.58,10.28a19.52,19.52,0,0,1-6.27.75H704.8Z"/>
    <path class="cls-3" d="M832.33,214.17q17.83,0,31,13.42t13.14,33.3q0,19.88-12.54,33.86t-30.86,14q-18.33,0-31.16-13.79a46.58,46.58,0,0,1-12.84-32.86,52.28,52.28,0,0,1,3.62-19.5,44.16,44.16,0,0,1,23.5-24.9A39.15,39.15,0,0,1,832.33,214.17Zm-21.94,47.28q0,11.16,6.93,18.12t15.49,7q8.57,0,15.43-6.77t6.87-18.18q0-11.41-6.93-18.31t-15.49-6.9q-8.57,0-15.43,7T810.39,261.45Z"/>
    <path class="cls-3" d="M960.11,216.68q7.11,3.63,7.11,8a16.5,16.5,0,0,1-1.81,6L932.14,301a10.61,10.61,0,0,1-4,4.45,10.44,10.44,0,0,1-5.6,1.69h-1.21a11.06,11.06,0,0,1-9.76-6.14l-33.27-70.24a16.5,16.5,0,0,1-1.81-6q0-4.38,7.11-8,4-2.13,6.09-2.13a7.8,7.8,0,0,1,3.19.5,5.57,5.57,0,0,1,2,1.75,24.43,24.43,0,0,1,2,3.33q.9,1.81,4.64,10.41t8,18.24L917.61,267q3.81,8.6,4.28,9.6L946,221.69c.64-1.58,1.21-2.84,1.69-3.76,1.45-2.26,3.21-3.38,5.3-3.38A15.47,15.47,0,0,1,960.11,216.68Z"/>
    <path class="cls-3" d="M995.18,285h37.13a32.76,32.76,0,0,1,4.16.19,9.24,9.24,0,0,1,3.19,1.19q3.25,1.75,3.26,9.78,0,8.78-4.46,10.29a19.52,19.52,0,0,1-6.27.75H984.45q-8.43,0-9.88-4.77a20.51,20.51,0,0,1-.72-6.39V226.33q0-6.39,2.29-8.71c1.52-1.55,4.42-2.32,8.68-2.32h47.49a32.76,32.76,0,0,1,4.16.19,9.24,9.24,0,0,1,3.19,1.19q3.25,1.75,3.26,9.78,0,8.78-4.46,10.28a19.18,19.18,0,0,1-6.27.76h-37v12.66h23.87a34.78,34.78,0,0,1,4.16.19,9.67,9.67,0,0,1,3.19,1.19q3.25,1.76,3.26,9.79,0,8.78-4.58,10.28a19.52,19.52,0,0,1-6.27.75H995.18Z"/>
    <path class="cls-3" d="M1118.38,291.68a20.58,20.58,0,0,1,1.8,6.52q0,4.77-7.47,8a16.09,16.09,0,0,1-6.21,1.76,6,6,0,0,1-3.85-1.19,8.63,8.63,0,0,1-2.23-2.45q-1.22-2.37-9.41-22.7l-3.73.25h-15.19v14.18a38,38,0,0,1-.18,4.32,10.49,10.49,0,0,1-1.15,3.33q-1.68,3.38-9.4,3.38-8.44,0-9.89-4.64a21.83,21.83,0,0,1-.72-6.52V226.33a38,38,0,0,1,.18-4.32,10.24,10.24,0,0,1,1.15-3.33q1.68-3.37,9.4-3.38h26q10.61,0,20.61,8a29.44,29.44,0,0,1,8,10.54,34.39,34.39,0,0,1,3.13,14.8q0,14.18-9,23.33Q1112.84,278.64,1118.38,291.68Zm-46.29-32h15.43a11.27,11.27,0,0,0,7-2.76q3.49-2.76,3.49-8.28t-3.49-8.34a11.41,11.41,0,0,0-7.23-2.82h-15.19Z"/>
  </g>
  <g>
    <path class="cls-1" d="M585.83,449.29,435.73,736.92c-14.79,28.34,5.77,62.27,37.75,62.27H773.67c32,0,52.54-33.93,37.74-62.27L661.32,449.29C645.4,418.78,601.75,418.78,585.83,449.29Z"/>
    <path class="cls-4" d="M583.75,444.35c7.36-12,44.35-52.89,78.47-1.71s-6.82,47.77-16.2,35c0,0-24.74,60.56-38.39.86C607.63,478.47,540.25,515.14,583.75,444.35Z"/>
  </g>
  <g>
    <path class="cls-5" d="M427.83,589.76,303.22,800.15C290,822.48,306.09,850.73,332,850.73H581.26c26,0,42.06-28.25,28.83-50.58L485.48,589.76A33.51,33.51,0,0,0,427.83,589.76Z"/>
    <path class="cls-4" d="M420.61,593.12c7.23-10.54,33.91-47.58,67.42-2.55s-7.39,37.69-16.61,26.44c3.26-1.89-13.67,48.68-32.24-.85C439.18,616.16,377.88,655.41,420.61,593.12Z"/>
  </g>
  <path class="cls-4" d="M1203.52,862.73h-4.16c-7.14-50.35-72.5-89.79-152.1-89.79A220.18,220.18,0,0,0,974.14,785c-21.43-48.53-83-83.59-155.62-83.59-77.11,0-141.75,39.52-159.12,92.74-1.78-.07-3.58-.1-5.38-.1-53.55,0-97.63,30-103.5,68.68h-12c-43.06,0-78,36.47-78,81.46h0c0,45,34.91,81.46,78,81.46h665c43.06,0,78-36.47,78-81.46h0C1281.49,899.2,1246.58,862.73,1203.52,862.73Z"/>
  <g>
    <path class="cls-6" d="M941.17,958.5H787.32a33.86,33.86,0,0,1-33.36-28L690.47,568.82a33.86,33.86,0,0,1,33.36-39.71h280.79A33.86,33.86,0,0,1,1038,568.82L974.53,930.49A33.86,33.86,0,0,1,941.17,958.5Z"/>
    <rect class="cls-3" x="683.5" y="497.23" width="355" height="31.87" rx="15.94"/>
    <rect class="cls-6" x="717.34" y="479.36" width="293.77" height="17.87" rx="8.94"/>
    <path class="cls-6" d="M895.78,459.5H837.52a7.14,7.14,0,0,0-7.12,7.12v10.85a7.12,7.12,0,0,0,14.24,0v-3.73h44v3.73a7.12,7.12,0,1,0,14.24,0V466.62A7.14,7.14,0,0,0,895.78,459.5Z"/>
    <rect class="cls-7" x="692.18" y="741.17" width="351.5" height="24.42" rx="11.96" transform="translate(114.54 1621.31) rotate(-90)"/>
    <rect class="cls-7" x="607.83" y="741.93" width="355.97" height="24.42" rx="12.04" transform="translate(179.81 1659.12) rotate(-100.01)"/>
    <rect class="cls-7" x="770.83" y="741.69" width="355.97" height="24.42" rx="12.04" transform="translate(47.46 1563.93) rotate(-80.42)"/>
    <path class="cls-3" d="M840.51,750.22c2.23-9.89,5.59-24.74-6.86-34.83C817.42,702.24,781.52,703,768.92,717c-9.45,10.49-2.61,24.87,1.67,33.85,5.15,10.82,20.52,34.68,39,35C831.92,786.18,840.08,752.09,840.51,750.22Z"/>
    <path class="cls-3" d="M807.65,671.86c.22-.53,2-5.12-1.39-6.29-10.27-3.5-59.06,27-56.31,30.91C752.47,700.09,801.88,685.83,807.65,671.86Z"/>
    <path class="cls-3" d="M794.83,729c-.87,1.93-15.3,1.16-27.37-6.79-11.26-7.42-18.16-19.57-17-21,.65-.81,3.91,2.08,11.42,7.31C783.22,723.45,795.68,727.12,794.83,729Z"/>
    <path class="cls-3" d="M786.82,737.66c-.87,1.93-15.3,1.16-27.37-6.79-11.26-7.42-18.16-19.57-17-21,.65-.81,3.91,2.08,11.42,7.31C775.21,732.1,787.67,735.77,786.82,737.66Z"/>
    <circle class="cls-4" cx="810.36" cy="748.55" r="7.84"/>
    <circle class="cls-4" cx="823.58" cy="752.36" r="13.75"/>
    <path class="cls-3" d="M891.22,748.81c-2.15-9.89-5.37-24.74,6.57-34.83,15.58-13.15,50-12.38,62.11,1.61,9.07,10.48,2.5,24.87-1.6,33.85-4.94,10.82-19.69,34.68-37.46,35C899.46,784.77,891.62,750.68,891.22,748.81Z"/>
    <path class="cls-3" d="M922.74,670.44c-.21-.52-2-5.11,1.33-6.28,9.86-3.51,56.66,27,54,30.91C975.68,698.68,928.27,684.41,922.74,670.44Z"/>
    <path class="cls-3" d="M935,727.59c.84,1.93,14.67,1.17,26.25-6.78,10.81-7.42,17.43-19.58,16.35-21-.63-.82-3.75,2.08-11,7.31C946.18,722,934.22,725.7,935,727.59Z"/>
    <path class="cls-3" d="M942.72,736.24c.84,1.94,14.68,1.17,26.26-6.78,10.81-7.42,17.43-19.58,16.34-21-.62-.82-3.75,2.08-11,7.31C953.87,730.68,941.91,734.35,942.72,736.24Z"/>
    <ellipse class="cls-4" cx="918.05" cy="753.38" rx="7.53" ry="7.84"/>
    <ellipse class="cls-4" cx="904.85" cy="752.36" rx="13.19" ry="13.75"/>
    <path class="cls-8" d="M767.2,644.94a.07.07,0,0,0-.1-.05c-1.28.43-16.93,5.59-17.26,14.18a8.76,8.76,0,0,0,4,7.61c3.61,2.1,8.63.84,10.62-1.43C768.87,660.26,767.51,646.14,767.2,644.94Z"/>
    <path class="cls-8" d="M949.28,633.28a.08.08,0,0,1,.12,0c1.39.66,18.36,8.66,18,18.6-.12,2.95-1.89,6.71-5.2,8.24-4.21,1.95-9.69-.17-11.7-3C946,650.7,948.83,634.62,949.28,633.28Z"/>
    <path class="cls-8" d="M985.64,647.1a.07.07,0,0,1,.09-.06c1.25.36,16.49,4.71,17.38,13.25a8.74,8.74,0,0,1-3.34,7.8,8.54,8.54,0,0,1-10.2-.89C985.07,662.45,985.43,648.31,985.64,647.1Z"/>
    <ellipse class="cls-9" cx="802.51" cy="823.71" rx="28.91" ry="28.9"/>
    <ellipse class="cls-9" cx="867.93" cy="836.11" rx="8.98" ry="26.1" transform="translate(-327.68 684.77) rotate(-36.72)"/>
    <ellipse class="cls-9" cx="867.93" cy="836.11" rx="26.44" ry="9.07" transform="translate(-312.28 1080) rotate(-55.61)"/>
    <ellipse class="cls-9" cx="867.93" cy="836.11" rx="26.44" ry="9.07" transform="translate(-8.93 9.37) rotate(-0.62)"/>
    <ellipse class="cls-9" cx="936.58" cy="822.43" rx="28.91" ry="28.9"/>
    <ellipse class="cls-9" cx="867.93" cy="882.26" rx="13.7" ry="6.53"/>
  </g>
  <path class="cls-10" d="M1500.68,695.59c-42-103.5-14-227.24-6.94-256.87,16.17-68.09,29.74-100,48.61-99.89,22.56.06,39.61,56.57,52.77,119.65,14.24,68.25,13.19,104.54,11.11,127.34-1.13,12.44-5.46,52.66-30.55,98.8-9.85,18.1-26.2,48.16-44.45,47.2C1517,731.07,1507.19,711.64,1500.68,695.59Z"/>
  <g>
    <rect class="cls-1" x="1530.14" y="502.49" width="8.28" height="313.96" rx="3.87"/>
    <path class="cls-1" d="M1536.83,594.78h0a9.28,9.28,0,0,0,0-8.66L1512.1,545c-1.43-2.39-3.77-2.39-5.2,0h0a9.28,9.28,0,0,0,0,8.66l24.72,41.15C1533.05,597.16,1535.4,597.16,1536.83,594.78Z"/>
    <path class="cls-1" d="M1536.35,674.49l.45-.75a8.47,8.47,0,0,0,0-7.92l-34.84-58c-1.31-2.17-3.44-2.17-4.75,0l-.45.76a8.45,8.45,0,0,0,0,7.91l34.83,58C1532.9,676.66,1535,676.66,1536.35,674.49Z"/>
    <path class="cls-1" d="M1532.42,565.76h0c1.28,2.62,3.61,3,5.18.9l15.72-21.19a9.19,9.19,0,0,0,.55-8.61h0c-1.28-2.62-3.61-3-5.18-.91L1533,557.14C1531.39,559.26,1531.15,563.14,1532.42,565.76Z"/>
    <path class="cls-1" d="M1533.42,639.43h0c1.27,2.62,3.6,3,5.18.9l27.17-36.62a9.18,9.18,0,0,0,.54-8.62h0c-1.27-2.61-3.6-3-5.17-.9L1534,630.81A9.18,9.18,0,0,0,1533.42,639.43Z"/>
  </g>
  <path class="cls-10" d="M1178.42,605.26c-34-80.17-11.3-176-5.61-198.95,13.08-52.74,24-77.42,39.3-77.37,18.24.05,32,43.82,42.67,92.67,11.52,52.87,10.66,81,9,98.63-.92,9.64-4.42,40.79-24.71,76.52-8,14-21.18,37.3-35.93,36.56C1191.59,632.74,1183.69,617.69,1178.42,605.26Z"/>
  <g>
    <rect class="cls-1" x="1202.25" y="455.7" width="6.7" height="243.17" rx="3.06"/>
    <path class="cls-1" d="M1207.65,527.18h0a6.9,6.9,0,0,0,0-6.71l-20-31.87c-1.16-1.85-3.05-1.85-4.21,0h0a6.9,6.9,0,0,0,0,6.71l20,31.87C1204.6,529,1206.49,529,1207.65,527.18Z"/>
    <path class="cls-1" d="M1207.26,588.91l.37-.58a6.36,6.36,0,0,0,0-6.13l-28.17-44.9c-1.06-1.69-2.79-1.69-3.84,0l-.37.58a6.36,6.36,0,0,0,0,6.13l28.17,44.9C1204.48,590.6,1206.2,590.6,1207.26,588.91Z"/>
    <path class="cls-1" d="M1204.09,504.7h0c1,2,2.91,2.34,4.18.7L1221,489a6.85,6.85,0,0,0,.44-6.67h0c-1-2-2.92-2.35-4.19-.7L1204.53,498A6.85,6.85,0,0,0,1204.09,504.7Z"/>
    <path class="cls-1" d="M1204.89,561.76h0c1,2,2.92,2.34,4.19.7l22-28.36a6.87,6.87,0,0,0,.44-6.68h0c-1-2-2.91-2.34-4.18-.7l-22,28.37A6.85,6.85,0,0,0,1204.89,561.76Z"/>
  </g>
  <path class="cls-10" d="M1332.42,479.07c7.57-3.71,17.71-1.42,24.88.08,38.48,8.05,38.15,126,38,165.72-.14,49.94-6.4,62.29-15.68,69.44-20.35,15.68-57.1,7.84-78-10.56-33.07-29.06-24.21-82.25-17.61-121.89C1288.1,557.38,1292.78,498.46,1332.42,479.07Z"/>
  <g>
    <rect class="cls-1" x="1219.33" y="679.86" width="241.09" height="7.72" rx="3.86" transform="matrix(0, -1, 1, 0, 651.63, 2021.27)"/>
    <path class="cls-1" d="M1337.67,634h0a6,6,0,0,1,0-6.66l23.16-31.52a2.84,2.84,0,0,1,4.86,0h0a6,6,0,0,1,0,6.65l-23.16,31.52A2.84,2.84,0,0,1,1337.67,634Z"/>
    <path class="cls-1" d="M1337.91,695.25l-.42-.58a5.51,5.51,0,0,1,0-6.08l32.63-44.41a2.58,2.58,0,0,1,4.43,0l.42.58a5.53,5.53,0,0,1,0,6.08l-32.63,44.41A2.59,2.59,0,0,1,1337.91,695.25Z"/>
    <path class="cls-1" d="M1341.86,611.77h0c-1.2,2-3.37,2.31-4.83.67l-14.61-16.32a6,6,0,0,1-.48-6.61h0c1.19-2,3.37-2.32,4.83-.68l14.6,16.32A6,6,0,0,1,1341.86,611.77Z"/>
    <path class="cls-1" d="M1340.74,668.33h0c-1.2,2-3.37,2.32-4.83.68l-25.25-28.21a6,6,0,0,1-.48-6.62h0c1.19-2,3.37-2.31,4.83-.67l25.24,28.21A6,6,0,0,1,1340.74,668.33Z"/>
  </g>
</svg>
