<svg id="Layer_1" data-name="Layer 1" xmlns="http://www.w3.org/2000/svg" width="1920" height="1080" viewBox="0 0 1920 1080">
  <defs>
    <style>
      .cls-1, .cls-3 {
        fill: #fff;
      }

      .cls-2 {
        fill: #ede4d9;
      }

      .cls-3, .cls-7 {
        opacity: 0.5;
      }

      .cls-4 {
        fill: #edb291;
      }

      .cls-5 {
        fill: #aad4c7;
      }

      .cls-6, .cls-7 {
        fill: #616e7d;
      }

      .cls-8, .cls-9 {
        fill: #efa5a5;
      }

      .cls-8 {
        opacity: 0.9;
      }

      .cls-9 {
        opacity: 0.8;
      }

      .cls-10 {
        fill: #cfb38f;
      }

      .cls-11 {
        fill: #fcfcfc;
      }
    </style>
  </defs>
  <title>levelcomplete</title>
  <rect class="cls-1" width="1920" height="1080"/>
  <rect class="cls-2" y="-2.18" width="1920" height="1080"/>
  <path class="cls-3" d="M1496.42,669.65h-8.05C1474.55,576.8,1348,504.07,1194,504.07c-51.27,0-99.49,8.06-141.53,22.24C1011,436.81,891.84,372.16,751.3,372.16c-149.24,0-274.36,72.89-308,171q-5.18-.2-10.41-.19c-103.63,0-189,55.39-200.32,126.65H209.34c-83.34,0-150.9,67.26-150.9,150.23h0c0,83,67.56,150.22,150.9,150.22H1496.42c83.33,0,150.89-67.26,150.89-150.22h0C1647.31,736.91,1579.75,669.65,1496.42,669.65Z"/>
  <path class="cls-1" d="M1203.52,857.56h-4.16c-7.14-50.36-72.5-89.8-152.1-89.8a220.18,220.18,0,0,0-73.12,12.06c-21.43-48.53-83-83.59-155.62-83.59-77.11,0-141.75,39.53-159.12,92.74-1.78-.06-3.58-.1-5.38-.1-53.55,0-97.63,30-103.5,68.69h-12c-43.06,0-78,36.47-78,81.46h0c0,45,34.91,81.46,78,81.46h665c43.06,0,78-36.47,78-81.46h0C1281.49,894,1246.58,857.56,1203.52,857.56Z"/>
  <g>
    <path class="cls-4" d="M246.13,297.35h32.79a13.16,13.16,0,0,1,5.78.94,4.68,4.68,0,0,1,2.41,2.94,24,24,0,0,1,0,10.66,4.27,4.27,0,0,1-2.05,2.76,13,13,0,0,1-6.27,1.26H235.4q-8.44,0-9.89-4.77a20.58,20.58,0,0,1-.72-6.4V235a38,38,0,0,1,.18-4.32,10.24,10.24,0,0,1,1.15-3.33q1.68-3.37,9.4-3.38,8.43,0,10,4.64a25.88,25.88,0,0,1,.61,6.52Z"/>
    <path class="cls-4" d="M316.88,293.71H354a32.66,32.66,0,0,1,4.16.19,9.36,9.36,0,0,1,3.2,1.19q3.25,1.76,3.25,9.78,0,8.78-4.46,10.28a19.18,19.18,0,0,1-6.27.76H306.16q-8.45,0-9.89-4.77a20.58,20.58,0,0,1-.72-6.4V235q0-6.39,2.29-8.71c1.52-1.55,4.42-2.32,8.68-2.32H354a32.66,32.66,0,0,1,4.16.19,9.36,9.36,0,0,1,3.2,1.19q3.25,1.75,3.25,9.78,0,8.78-4.46,10.28a19.18,19.18,0,0,1-6.27.76h-37v12.66h23.87a34.66,34.66,0,0,1,4.16.19,9.57,9.57,0,0,1,3.2,1.19q3.25,1.75,3.25,9.78,0,8.79-4.58,10.29a19.52,19.52,0,0,1-6.27.75H316.88Z"/>
    <path class="cls-4" d="M453.1,225.36q7.11,3.63,7.11,8a16.5,16.5,0,0,1-1.81,6l-33.27,70.24a10.55,10.55,0,0,1-4,4.45,10.39,10.39,0,0,1-5.6,1.69h-1.21a11.1,11.1,0,0,1-9.76-6.14L371.25,239.4a16.5,16.5,0,0,1-1.81-6q0-4.38,7.11-8,4-2.13,6.09-2.13a7.8,7.8,0,0,1,3.19.5,5.57,5.57,0,0,1,2.05,1.75,22.9,22.9,0,0,1,2,3.33q.9,1.81,4.64,10.41t8,18.24q4.28,9.66,8.08,18.25t4.27,9.6L439,230.37c.65-1.58,1.21-2.84,1.69-3.76,1.45-2.26,3.21-3.38,5.31-3.38A15.43,15.43,0,0,1,453.1,225.36Z"/>
    <path class="cls-4" d="M488.17,293.71H525.3a32.66,32.66,0,0,1,4.16.19,9.36,9.36,0,0,1,3.2,1.19q3.26,1.76,3.25,9.78,0,8.78-4.46,10.28a19.18,19.18,0,0,1-6.27.76H477.45q-8.44,0-9.89-4.77a20.58,20.58,0,0,1-.72-6.4V235q0-6.39,2.29-8.71c1.52-1.55,4.42-2.32,8.68-2.32H525.3a32.66,32.66,0,0,1,4.16.19,9.36,9.36,0,0,1,3.2,1.19q3.26,1.75,3.25,9.78,0,8.78-4.46,10.28a19.18,19.18,0,0,1-6.27.76h-37v12.66H512a34.66,34.66,0,0,1,4.16.19,9.57,9.57,0,0,1,3.2,1.19q3.26,1.75,3.25,9.78,0,8.79-4.58,10.29a19.52,19.52,0,0,1-6.27.75H488.17Z"/>
    <path class="cls-4" d="M565.08,297.35h32.79a13.16,13.16,0,0,1,5.78.94,4.68,4.68,0,0,1,2.41,2.94,23.59,23.59,0,0,1,0,10.66,4.29,4.29,0,0,1-2,2.76,13.1,13.1,0,0,1-6.27,1.26h-43.4q-8.43,0-9.88-4.77a20.22,20.22,0,0,1-.73-6.4V235a38,38,0,0,1,.18-4.32,10.49,10.49,0,0,1,1.15-3.33q1.68-3.37,9.4-3.38,8.44,0,10,4.64a26,26,0,0,1,.6,6.52Z"/>
    <path class="cls-4" d="M700.21,291.83l2.17-1.63c2.73-1.68,4.66-2.51,5.78-2.51q3.74,0,8.08,7,2.65,4.4,2.65,7a6.18,6.18,0,0,1-1.63,4.39,18.86,18.86,0,0,1-3.79,3.14l-4.16,2.63a42.22,42.22,0,0,1-8.14,3.26,38.16,38.16,0,0,1-11.87,2,44.26,44.26,0,0,1-11.57-1.57,48,48,0,0,1-12.06-5.26,50.42,50.42,0,0,1-11.15-9,42,42,0,0,1-8.14-13.67,50.29,50.29,0,0,1-3.19-18.13,48.05,48.05,0,0,1,3.13-17.74,41,41,0,0,1,8-13.17,46.12,46.12,0,0,1,11.15-8.72q11.82-6.76,23.75-6.77a44.62,44.62,0,0,1,20.37,5.52l2.89,1.75c1.45.92,2.57,1.68,3.38,2.26a7.68,7.68,0,0,1,3.13,6,12.29,12.29,0,0,1-2.53,7q-4.69,6.76-8.44,6.77-2.16,0-6.14-2.76-5.07-4.26-13.51-4.26-7.83,0-15.43,5.64a20.85,20.85,0,0,0-6,7.78,27.93,27.93,0,0,0,0,22.7,21.46,21.46,0,0,0,6.14,7.9q7.36,5.52,15.31,5.52a24.24,24.24,0,0,0,7.06-1A17.75,17.75,0,0,0,700.21,291.83Z"/>
    <path class="cls-4" d="M768.31,222.85q17.85,0,31,13.42t13.14,33.3q0,19.88-12.53,33.86t-30.86,14q-18.33,0-31.16-13.79A46.58,46.58,0,0,1,725,270.76a52.28,52.28,0,0,1,3.61-19.5,44.22,44.22,0,0,1,23.51-24.9A39.11,39.11,0,0,1,768.31,222.85Zm-21.94,47.28q0,11.16,6.94,18.12t15.49,7q8.55,0,15.43-6.77t6.87-18.18q0-11.42-6.93-18.32t-15.5-6.89q-8.55,0-15.42,7T746.37,270.13Z"/>
    <path class="cls-4" d="M914.17,227.49a10.29,10.29,0,0,1,1.15,3.39,39.66,39.66,0,0,1,.18,4.38v69.61q0,8.65-4.58,10.16a18.93,18.93,0,0,1-5.79.75,19.59,19.59,0,0,1-5.55-.63,9.13,9.13,0,0,1-3.13-1.5,5.63,5.63,0,0,1-1.69-2.51,26,26,0,0,1-.6-6.52v-42q-3,3.88-8.8,12.35T878,285.56l-2.17,2.94a11.63,11.63,0,0,1-3,2.26,9.49,9.49,0,0,1-5.06,1.44,9.6,9.6,0,0,1-4.94-1.31,11.44,11.44,0,0,1-3.2-2.57l-1-1.38q-2.41-3.13-9.52-13.36t-7.72-11v42.26a38.15,38.15,0,0,1-.18,4.33,9.19,9.19,0,0,1-1.14,3.2q-1.81,3.38-9.41,3.38-7.35,0-9.16-3.38a9.16,9.16,0,0,1-1.14-3.27,41.25,41.25,0,0,1-.18-4.51V235a38,38,0,0,1,.18-4.32,10.44,10.44,0,0,1,1.14-3.33q1.81-3.26,9.41-3.26a17.22,17.22,0,0,1,5.6.82,7.12,7.12,0,0,1,3.07,1.69l.73.75,27.36,37.38q20.49-28.22,27.36-37.25,2.05-3.39,9.71-3.39T914.17,227.49Z"/>
    <path class="cls-4" d="M990.35,242.54a34.25,34.25,0,0,1,3.14,14.8,33.84,33.84,0,0,1-3.14,14.73,28.8,28.8,0,0,1-8.07,10.48q-10,8-20.74,8H946.48v14.17a38,38,0,0,1-.18,4.33,10.74,10.74,0,0,1-1.15,3.33q-1.7,3.38-9.4,3.38-8.44,0-9.89-4.64a21.83,21.83,0,0,1-.72-6.52V235a38,38,0,0,1,.18-4.32,10.24,10.24,0,0,1,1.15-3.33q1.68-3.37,9.4-3.38h25.8q10.61,0,20.61,8A28.78,28.78,0,0,1,990.35,242.54Zm-21.57,23.08q3.5-2.76,3.49-8.28T968.78,249a11.43,11.43,0,0,0-7.24-2.82H946.48v22.19h15.19A11.39,11.39,0,0,0,968.78,265.62Z"/>
    <path class="cls-4" d="M1022.66,297.35h32.79a13.16,13.16,0,0,1,5.78.94,4.68,4.68,0,0,1,2.41,2.94,23.59,23.59,0,0,1,0,10.66,4.27,4.27,0,0,1-2.05,2.76,13,13,0,0,1-6.26,1.26h-43.4q-8.45,0-9.88-4.77a20.22,20.22,0,0,1-.73-6.4V235a38,38,0,0,1,.18-4.32,10.24,10.24,0,0,1,1.15-3.33q1.68-3.37,9.4-3.38,8.44,0,10,4.64a26,26,0,0,1,.6,6.52Z"/>
    <path class="cls-4" d="M1093.42,293.71h37.12a32.66,32.66,0,0,1,4.16.19,9.28,9.28,0,0,1,3.2,1.19q3.25,1.76,3.25,9.78,0,8.78-4.46,10.28a19.1,19.1,0,0,1-6.27.76h-47.73q-8.45,0-9.89-4.77a20.58,20.58,0,0,1-.72-6.4V235q0-6.39,2.29-8.71t8.68-2.32h47.49a32.66,32.66,0,0,1,4.16.19,9.28,9.28,0,0,1,3.2,1.19q3.25,1.75,3.25,9.78,0,8.78-4.46,10.28a19.1,19.1,0,0,1-6.27.76h-37v12.66h23.86a34.66,34.66,0,0,1,4.16.19,9.5,9.5,0,0,1,3.2,1.19q3.25,1.75,3.25,9.78,0,8.79-4.58,10.29a19.48,19.48,0,0,1-6.27.75h-23.62Z"/>
    <path class="cls-4" d="M1154.77,223.85h67a13,13,0,0,1,5.67.94,4.69,4.69,0,0,1,2.41,3,18.9,18.9,0,0,1,.6,5.27,18.17,18.17,0,0,1-.6,5.2,4.25,4.25,0,0,1-2,2.7,13.57,13.57,0,0,1-6.15,1.13h-23v63.08a36.35,36.35,0,0,1-.18,4.27,10.22,10.22,0,0,1-1.09,3.19,5.09,5.09,0,0,1-3.19,2.57,19.55,19.55,0,0,1-6,.76,18.85,18.85,0,0,1-6-.76,5.1,5.1,0,0,1-3.14-2.57,10.42,10.42,0,0,1-1.08-3.26,38,38,0,0,1-.18-4.32V242h-23.15a12.94,12.94,0,0,1-5.66-.94,4.69,4.69,0,0,1-2.41-2.95,18.49,18.49,0,0,1-.61-5.27,17.77,17.77,0,0,1,.61-5.2,4.27,4.27,0,0,1,2-2.7A13.62,13.62,0,0,1,1154.77,223.85Z"/>
    <path class="cls-4" d="M1258.44,293.71h37.13a32.58,32.58,0,0,1,4.15.19,9.28,9.28,0,0,1,3.2,1.19q3.25,1.76,3.25,9.78,0,8.78-4.46,10.28a19.07,19.07,0,0,1-6.26.76h-47.74q-8.45,0-9.88-4.77a20.22,20.22,0,0,1-.73-6.4V235c0-4.26.77-7.16,2.29-8.71s4.42-2.32,8.68-2.32h47.5a32.58,32.58,0,0,1,4.15.19,9.28,9.28,0,0,1,3.2,1.19q3.25,1.75,3.25,9.78,0,8.78-4.46,10.28a19.07,19.07,0,0,1-6.26.76h-37v12.66h23.87a34.59,34.59,0,0,1,4.15.19,9.5,9.5,0,0,1,3.2,1.19q3.25,1.75,3.25,9.78,0,8.79-4.58,10.29a19.41,19.41,0,0,1-6.26.75h-23.63Z"/>
  </g>
  <g>
    <g>
      <path class="cls-5" d="M941.17,958.5H787.32a33.86,33.86,0,0,1-33.36-28L690.47,568.82a33.86,33.86,0,0,1,33.36-39.71h280.79A33.86,33.86,0,0,1,1038,568.82L974.53,930.49A33.86,33.86,0,0,1,941.17,958.5Z"/>
      <rect class="cls-6" x="683.5" y="497.23" width="355" height="31.87" rx="15.85"/>
      <rect class="cls-5" x="717.34" y="479.36" width="293.77" height="17.87" rx="8.89"/>
      <path class="cls-5" d="M895.78,459.5H837.52a7.14,7.14,0,0,0-7.12,7.12v10.85a7.12,7.12,0,0,0,14.24,0v-3.73h44v3.73a7.12,7.12,0,1,0,14.24,0V466.62A7.14,7.14,0,0,0,895.78,459.5Z"/>
      <rect class="cls-7" x="692.18" y="741.17" width="351.5" height="24.42" rx="11.96" transform="translate(114.54 1621.31) rotate(-90)"/>
      <rect class="cls-7" x="773.6" y="576.16" width="24.42" height="355.97" rx="12.04" transform="translate(-119.17 148.14) rotate(-10.01)"/>
      <rect class="cls-7" x="770.83" y="741.69" width="355.97" height="24.42" rx="12.04" transform="translate(47.46 1563.93) rotate(-80.42)"/>
    </g>
    <g>
      <path class="cls-6" d="M840.51,750.22c2.23-9.89,5.59-24.74-6.86-34.83C817.42,702.24,781.52,703,768.92,717c-9.45,10.49-2.61,24.87,1.67,33.85,5.15,10.82,20.52,34.68,39,35C831.92,786.18,840.08,752.09,840.51,750.22Z"/>
      <path class="cls-6" d="M807.65,671.86c.22-.53,2-5.12-1.39-6.29-10.27-3.5-59.06,27-56.31,30.91C752.47,700.09,801.88,685.83,807.65,671.86Z"/>
      <path class="cls-6" d="M794.83,729c-.87,1.93-15.3,1.16-27.37-6.79-11.26-7.42-18.16-19.57-17-21,.65-.81,3.91,2.08,11.42,7.31C783.22,723.45,795.68,727.12,794.83,729Z"/>
      <path class="cls-6" d="M786.82,737.66c-.87,1.93-15.3,1.16-27.37-6.79-11.26-7.42-18.16-19.57-17-21,.65-.81,3.91,2.08,11.42,7.31C775.21,732.1,787.67,735.77,786.82,737.66Z"/>
      <circle class="cls-1" cx="790.94" cy="736.19" r="7.84"/>
      <circle class="cls-1" cx="807.45" cy="735.13" r="13.75"/>
    </g>
    <path class="cls-8" d="M821.29,816.15c2.85,5.74,13.37,25.3,33.48,31.94,23.37,7.73,43.58-5.14,59.79-32.69Z"/>
    <g>
      <path class="cls-6" d="M892.37,748.81C890.23,738.92,887,724.07,899,714c15.57-13.15,50-12.38,62.11,1.61,9.06,10.48,2.5,24.87-1.6,33.85-4.94,10.82-19.7,34.68-37.46,35C900.62,784.77,892.78,750.68,892.37,748.81Z"/>
      <path class="cls-6" d="M923.9,670.44c-.21-.52-1.95-5.11,1.33-6.28,9.85-3.51,56.66,27,54,30.91C976.84,698.68,929.43,684.41,923.9,670.44Z"/>
      <path class="cls-6" d="M936.2,727.59c.83,1.93,14.67,1.17,26.25-6.78,10.81-7.42,17.43-19.58,16.35-21-.63-.82-3.76,2.08-11,7.31C947.34,722,935.38,725.7,936.2,727.59Z"/>
      <path class="cls-6" d="M943.88,736.24c.84,1.94,14.68,1.17,26.26-6.78,10.81-7.42,17.42-19.58,16.34-21-.62-.82-3.75,2.08-11,7.31C955,730.68,943.06,734.35,943.88,736.24Z"/>
      <ellipse class="cls-1" cx="939.93" cy="734.77" rx="7.53" ry="7.84"/>
      <ellipse class="cls-1" cx="924.09" cy="733.72" rx="13.19" ry="13.75"/>
    </g>
    <ellipse class="cls-9" cx="777.1" cy="799.5" rx="27.27" ry="8.98"/>
    <ellipse class="cls-9" cx="957.54" cy="799.5" rx="27.27" ry="8.98"/>
  </g>
  <g>
    <path class="cls-4" d="M580.87,680.57c-30.65-75.48-10.2-165.72-5.07-187.33,11.8-49.66,21.69-72.89,35.45-72.85,16.45.05,28.89,41.26,38.49,87.26,10.38,49.78,9.61,76.24,8.1,92.87-.82,9.07-4,38.4-22.28,72-7.18,13.2-19.1,35.13-32.41,34.43C592.74,706.44,585.62,692.27,580.87,680.57Z"/>
    <g>
      <rect class="cls-10" x="602.35" y="539.74" width="6.04" height="228.96" rx="2.82"/>
      <path class="cls-10" d="M607.23,607.05h0a6.79,6.79,0,0,0,0-6.32l-18-30c-1.05-1.74-2.76-1.74-3.8,0h0a6.79,6.79,0,0,0,0,6.32l18,30C604.47,608.79,606.18,608.79,607.23,607.05Z"/>
      <path class="cls-10" d="M606.88,665.18l.33-.55a6.2,6.2,0,0,0,0-5.77L581.8,616.58c-.95-1.59-2.51-1.59-3.47,0l-.33.54a6.2,6.2,0,0,0,0,5.77l25.41,42.29C604.36,666.76,605.92,666.76,606.88,665.18Z"/>
      <path class="cls-10" d="M604,585.89h0c.93,1.91,2.63,2.2,3.78.66l11.46-15.46a6.68,6.68,0,0,0,.4-6.28h0c-.93-1.91-2.63-2.21-3.77-.66L604.41,579.6A6.7,6.7,0,0,0,604,585.89Z"/>
      <path class="cls-10" d="M604.74,639.61h0c.93,1.91,2.63,2.21,3.78.66l19.81-26.71a6.68,6.68,0,0,0,.4-6.28h0c-.93-1.91-2.63-2.21-3.78-.66l-19.81,26.71A6.68,6.68,0,0,0,604.74,639.61Z"/>
    </g>
  </g>
  <g>
    <path class="cls-4" d="M410.82,741.51c-24.78-58.46-8.24-128.35-4.1-145.09C416.26,558,424.26,540,435.39,540c13.3,0,23.36,32,31.12,67.58,8.39,38.56,7.77,59,6.55,71.93-.67,7-3.22,29.74-18,55.8-5.8,10.23-15.45,27.2-26.2,26.66C420.42,761.55,414.66,750.57,410.82,741.51Z"/>
    <g>
      <rect class="cls-10" x="428.19" y="632.44" width="4.88" height="177.33" rx="2.23"/>
      <path class="cls-10" d="M432.13,684.57h0a5,5,0,0,0,0-4.89l-14.58-23.25a1.67,1.67,0,0,0-3.06,0h0a5,5,0,0,0,0,4.9l14.57,23.24A1.67,1.67,0,0,0,432.13,684.57Z"/>
      <path class="cls-10" d="M431.85,729.59l.27-.42a4.61,4.61,0,0,0,0-4.47L411.58,692a1.53,1.53,0,0,0-2.81,0l-.26.42a4.61,4.61,0,0,0,0,4.47l20.54,32.75A1.52,1.52,0,0,0,431.85,729.59Z"/>
      <path class="cls-10" d="M429.54,668.18h0c.75,1.48,2.12,1.71,3,.51l9.27-12a5,5,0,0,0,.32-4.87h0c-.75-1.48-2.13-1.71-3.05-.51l-9.27,12A5,5,0,0,0,429.54,668.18Z"/>
      <path class="cls-10" d="M430.12,709.79h0c.75,1.48,2.13,1.71,3.06.51l16-20.69a5,5,0,0,0,.32-4.86h0c-.75-1.48-2.13-1.71-3-.51l-16,20.68A5,5,0,0,0,430.12,709.79Z"/>
    </g>
  </g>
  <g>
    <path class="cls-4" d="M523.12,649.48c5.52-2.7,12.92-1,18.14.06,28.07,5.87,27.83,91.91,27.75,120.85-.1,36.43-4.66,45.43-11.43,50.65-14.84,11.43-41.64,5.72-56.91-7.7-24.12-21.19-17.66-60-12.84-88.89C490.8,706.6,494.22,663.63,523.12,649.48Z"/>
    <g>
      <rect class="cls-10" x="440.65" y="795.91" width="175.81" height="5.63" rx="2.82" transform="matrix(0, -1, 1, 0, -271.95, 1324.58)"/>
      <path class="cls-10" d="M527,762.5h0a4.39,4.39,0,0,1,0-4.85l16.89-23a2.07,2.07,0,0,1,3.54,0h0a4.39,4.39,0,0,1,0,4.85l-16.89,23A2.07,2.07,0,0,1,527,762.5Z"/>
      <path class="cls-10" d="M527.13,807.13l-.31-.42a4,4,0,0,1,0-4.43l23.8-32.39a1.89,1.89,0,0,1,3.23,0l.3.43a4,4,0,0,1,0,4.43l-23.8,32.38A1.88,1.88,0,0,1,527.13,807.13Z"/>
      <path class="cls-10" d="M530,746.25h0a2.08,2.08,0,0,1-3.52.5l-10.65-11.9a4.38,4.38,0,0,1-.35-4.83h0a2.08,2.08,0,0,1,3.52-.49l10.65,11.9A4.35,4.35,0,0,1,530,746.25Z"/>
      <path class="cls-10" d="M529.19,787.51h0a2.09,2.09,0,0,1-3.53.49l-18.4-20.57a4.36,4.36,0,0,1-.36-4.83h0a2.09,2.09,0,0,1,3.53-.49l18.4,20.57A4.36,4.36,0,0,1,529.19,787.51Z"/>
    </g>
  </g>
  <path class="cls-11" d="M1238.19,826.6c-2.26,0-4.1-4.2-4.1-9.34V555.81c0-5.13,1.84-9.34,4.1-9.34s4.09,4.21,4.09,9.34V817.26C1242.28,822.4,1240.44,826.6,1238.19,826.6Z"/>
  <path class="cls-11" d="M1395.69,801.18c-1.56,0-2.85-2.71-2.85-6V626.76c0-3.3,1.29-6,2.85-6s2.85,2.71,2.85,6v168.4C1398.54,798.47,1397.26,801.18,1395.69,801.18Z"/>
  <path class="cls-11" d="M1517.17,837c-2.22,0-4-4-4-8.85V580.26c0-4.87,1.81-8.85,4-8.85s4,4,4,8.85V828.18C1521.19,833.05,1519.38,837,1517.17,837Z"/>
  <path class="cls-11" d="M1120.68,798.64c-1.06,0-1.93-2-1.93-4.5V668c0-2.48.87-4.51,1.93-4.51s1.93,2,1.93,4.51V794.14C1122.61,796.61,1121.74,798.64,1120.68,798.64Z"/>
</svg>
