<svg id="Layer_1" data-name="Layer 1" xmlns="http://www.w3.org/2000/svg" width="79.66" height="45.41" viewBox="0 0 79.66 45.41">
  <defs>
    <style>
      .cls-1 {
        fill: #fff;
      }
    </style>
  </defs>
  <title>score</title>
  <g>
    <path class="cls-1" d="M11.13,34.29a7.36,7.36,0,0,1-5-1.79A11.25,11.25,0,0,1,3,27.34a26.77,26.77,0,0,1-1.08-8.11A26.66,26.66,0,0,1,3,11.13,11.15,11.15,0,0,1,6.14,6a7.31,7.31,0,0,1,5-1.79,7.23,7.23,0,0,1,5,1.83,11.38,11.38,0,0,1,3.14,5.19,26.49,26.49,0,0,1,1.08,8,26.45,26.45,0,0,1-1.08,8,11.37,11.37,0,0,1-3.14,5.2A7.23,7.23,0,0,1,11.13,34.29Zm0-4a3.58,3.58,0,0,0,2.92-1.44,9.84,9.84,0,0,0,1.74-3.95,25.56,25.56,0,0,0,.57-5.66,25.62,25.62,0,0,0-.57-5.66,10,10,0,0,0-1.74-4,3.66,3.66,0,0,0-5.85,0,9.72,9.72,0,0,0-1.73,3.94,25.19,25.19,0,0,0-.58,5.7,25.19,25.19,0,0,0,.58,5.7,9.43,9.43,0,0,0,1.75,3.93A3.62,3.62,0,0,0,11.13,30.28Z"/>
    <path class="cls-1" d="M25.64,37.14A1.81,1.81,0,0,1,24,36.27a2,2,0,0,1-.14-1.91l11.59-29a1.83,1.83,0,0,1,.73-.85,2,2,0,0,1,1.08-.3,1.87,1.87,0,0,1,1.6.82A2,2,0,0,1,39,7L27.45,36a1.55,1.55,0,0,1-.75.89A2.42,2.42,0,0,1,25.64,37.14Z"/>
    <path class="cls-1" d="M49.59,34.29a1.89,1.89,0,0,1-1.35-.58,1.93,1.93,0,0,1-.58-1.39V8.84L44.85,10a3.19,3.19,0,0,1-1.23.27,1.93,1.93,0,0,1-1.4-.54,1.82,1.82,0,0,1-.56-1.39A2,2,0,0,1,42,7.26a1.69,1.69,0,0,1,1-.73l6-2.16a2.91,2.91,0,0,1,.39-.12l.35,0a1.81,1.81,0,0,1,1.4.55,2,2,0,0,1,.52,1.45v26.1A1.89,1.89,0,0,1,51,33.71,2,2,0,0,1,49.59,34.29Z"/>
    <path class="cls-1" d="M67.72,34.29a9.7,9.7,0,0,1-5-1.29,9.51,9.51,0,0,1-3.51-3.53,9.8,9.8,0,0,1-1.29-5,2,2,0,0,1,.54-1.41,1.85,1.85,0,0,1,1.39-.56,2,2,0,0,1,1.42.56,1.87,1.87,0,0,1,.58,1.41,6,6,0,0,0,.77,3,5.55,5.55,0,0,0,2.1,2.12,5.85,5.85,0,0,0,3,.77,6,6,0,0,0,3-.77,5.6,5.6,0,0,0,2.09-2.12,6.27,6.27,0,0,0,0-6,5.62,5.62,0,0,0-2.09-2.1,5.89,5.89,0,0,0-3-.77H61.29A1.85,1.85,0,0,1,59.91,18a1.94,1.94,0,0,1-.54-1.41V6.22a2,2,0,0,1,.54-1.43,1.82,1.82,0,0,1,1.38-.57H74.15a1.9,1.9,0,0,1,1.39.59,2,2,0,0,1,.58,1.41,1.91,1.91,0,0,1-.56,1.35,1.88,1.88,0,0,1-1.41.57H63.26v6.51h4.46a9.81,9.81,0,0,1,5,1.29,9.63,9.63,0,0,1,3.5,3.5,9.81,9.81,0,0,1,1.29,5,9.8,9.8,0,0,1-1.29,5A9.56,9.56,0,0,1,72.75,33,9.81,9.81,0,0,1,67.72,34.29Z"/>
  </g>
</svg>
