<svg id="Layer_1" data-name="Layer 1" xmlns="http://www.w3.org/2000/svg" width="1920" height="1080" viewBox="0 0 1920 1080">
  <defs>
    <style>
      .cls-1 {
        fill: #e4dfea;
      }

      .cls-2, .cls-5 {
        fill: #fff;
      }

      .cls-2, .cls-8 {
        opacity: 0.5;
      }

      .cls-3 {
        fill: #8dbc91;
      }

      .cls-4 {
        fill: #264933;
      }

      .cls-6 {
        fill: #aad4c7;
      }

      .cls-7, .cls-8 {
        fill: #616e7d;
      }

      .cls-10, .cls-9 {
        fill: #efa5a5;
      }

      .cls-9 {
        opacity: 0.9;
      }

      .cls-10 {
        opacity: 0.8;
      }

      .cls-11 {
        fill: #c8c1d1;
      }

      .cls-12 {
        fill: #c1bcce;
      }
    </style>
  </defs>
  <title>startscreen</title>
  <rect class="cls-1" y="-1.81" width="1920" height="1080"/>
  <path class="cls-2" d="M1521.14,613.4h-8.05c-13.82-92.85-140.32-165.58-294.36-165.58-51.27,0-99.49,8.06-141.53,22.24C1035.72,380.56,916.57,315.91,776,315.91c-149.24,0-274.36,72.89-308,171q-5.18-.18-10.41-.18c-103.63,0-189,55.39-200.32,126.65H234.07c-83.34,0-150.9,67.26-150.9,150.23h0c0,83,67.56,150.22,150.9,150.22H1521.14c83.34,0,150.9-67.26,150.9-150.22h0C1672,680.66,1604.48,613.4,1521.14,613.4Z"/>
  <path class="cls-2" d="M1719.31,455.44h-8.9c-15.3-122-155.28-217.55-325.73-217.55-56.74,0-110.09,10.59-156.6,29.21-45.9-117.58-177.75-202.53-333.27-202.53-165.13,0-303.58,95.78-340.77,224.71-3.82-.16-7.66-.25-11.53-.25-114.67,0-209.08,72.78-221.65,166.41H295.11c-92.21,0-167,88.37-167,197.37h0c0,109,74.76,197.37,167,197.37h1424.2c92.22,0,167-88.36,167-197.37h0C1886.29,543.81,1811.53,455.44,1719.31,455.44Z"/>
  <g>
    <g>
      <path class="cls-3" d="M1733,908.64c8.35-13.08-31.13-66.5-59.62-61.69-11.79,2-22.5,14.11-21.13,25.35C1655.36,898.09,1725.26,920.69,1733,908.64Z"/>
      <path class="cls-4" d="M1712.66,893.76c.65-1.36-22.56-19-43.79-30.34-12.74-6.84-32.88-13.77-33.06-13.32-.47,1.21,8.65,4.38,31.57,16.26C1687.16,876.61,1712,895.17,1712.66,893.76Z"/>
    </g>
    <g>
      <path class="cls-3" d="M1686.6,781c10.21,4.83,1.56,56.24-19.59,65.41-8.75,3.8-20.24.6-23.16-7.22C1637.14,821.26,1677.2,776.59,1686.6,781Z"/>
      <path class="cls-4" d="M1677.82,799.36c.91.59-8.91,21.92-19.53,38.4-6.37,9.89-17.76,23-18,22.82-.75-.58,4.4-6.55,16-24.07C1666.28,821.39,1676.88,798.75,1677.82,799.36Z"/>
    </g>
  </g>
  <path class="cls-5" d="M1570.74,804.19h-4.16c-7.14-50.36-72.5-89.79-152.09-89.79a220.46,220.46,0,0,0-73.13,12.05c-21.43-48.53-83-83.59-155.62-83.59-77.1,0-141.75,39.53-159.12,92.75-1.78-.07-3.58-.11-5.38-.11-53.54,0-97.63,30-103.5,68.69h-12c-43.06,0-78,36.47-78,81.46h0c0,45,34.91,81.46,78,81.46h665c43.06,0,78-36.47,78-81.46h0C1648.71,840.66,1613.8,804.19,1570.74,804.19Z"/>
  <g>
    <g>
      <path class="cls-6" d="M1301,914.67H1147.11a33.87,33.87,0,0,1-33.36-28L1050.26,525a33.86,33.86,0,0,1,33.36-39.71h280.79A33.86,33.86,0,0,1,1397.77,525l-63.45,361.67A33.87,33.87,0,0,1,1301,914.67Z"/>
      <rect class="cls-7" x="1043.29" y="453.4" width="355" height="31.87" rx="15.85"/>
      <rect class="cls-6" x="1077.13" y="435.53" width="293.77" height="17.87" rx="8.89"/>
      <path class="cls-6" d="M1255.57,415.67h-58.26a7.14,7.14,0,0,0-7.12,7.12v10.85a7.12,7.12,0,0,0,14.24,0v-3.73h44v3.73a7.13,7.13,0,0,0,14.25,0V422.79A7.14,7.14,0,0,0,1255.57,415.67Z"/>
      <rect class="cls-8" x="1051.97" y="697.34" width="351.5" height="24.42" rx="11.96" transform="translate(518.17 1937.27) rotate(-90)"/>
      <path class="cls-8" d="M1128.77,544.77l57.71,326.83a12.07,12.07,0,0,1-9.76,13.95l-.33.06a12.07,12.07,0,0,1-14-9.76L1104.72,549a12.09,12.09,0,0,1,9.77-14l.33,0A12.07,12.07,0,0,1,1128.77,544.77Z"/>
      <rect class="cls-8" x="1130.62" y="697.85" width="355.97" height="24.42" rx="12.04" transform="translate(390.56 1882.17) rotate(-80.42)"/>
    </g>
    <g>
      <path class="cls-7" d="M1200.3,706.39c2.24-9.89,5.6-24.74-6.85-34.83-16.24-13.15-52.14-12.37-64.74,1.61-9.45,10.48-2.61,24.87,1.67,33.85,5.15,10.82,20.52,34.68,39,35C1191.71,742.35,1199.88,708.26,1200.3,706.39Z"/>
      <path class="cls-7" d="M1167.44,628c.22-.52,2-5.11-1.38-6.28-10.28-3.5-59.07,27-56.32,30.91C1112.26,656.26,1161.67,642,1167.44,628Z"/>
      <path class="cls-7" d="M1154.62,685.17c-.87,1.94-15.29,1.17-27.36-6.78-11.27-7.42-18.17-19.57-17-21,.65-.82,3.91,2.08,11.42,7.31C1143,679.61,1155.47,683.28,1154.62,685.17Z"/>
      <path class="cls-7" d="M1146.61,693.82c-.87,1.94-15.29,1.17-27.36-6.78-11.27-7.42-18.17-19.57-17-21,.65-.82,3.91,2.08,11.42,7.31C1135,688.26,1147.46,691.93,1146.61,693.82Z"/>
      <circle class="cls-5" cx="1150.73" cy="692.35" r="7.84"/>
      <circle class="cls-5" cx="1167.24" cy="691.3" r="13.75"/>
    </g>
    <path class="cls-9" d="M1181.08,772.32c2.85,5.73,13.37,25.3,33.48,31.94,23.37,7.73,43.58-5.14,59.79-32.69Z"/>
    <g>
      <path class="cls-7" d="M1252.17,705c-2.15-9.89-5.37-24.74,6.57-34.83,15.58-13.16,50-12.38,62.11,1.6,9.07,10.49,2.5,24.87-1.6,33.86-4.94,10.81-19.69,34.68-37.46,35C1260.41,740.94,1252.57,706.85,1252.17,705Z"/>
      <path class="cls-7" d="M1283.69,626.61c-.21-.53-2-5.11,1.33-6.28,9.86-3.51,56.66,27,54,30.9C1336.63,654.85,1289.22,640.58,1283.69,626.61Z"/>
      <path class="cls-7" d="M1296,683.76c.84,1.93,14.67,1.17,26.25-6.78,10.81-7.42,17.43-19.58,16.35-21-.63-.82-3.75,2.07-11,7.31C1307.13,678.2,1295.17,681.87,1296,683.76Z"/>
      <path class="cls-7" d="M1303.67,692.41c.84,1.93,14.68,1.17,26.26-6.78,10.81-7.42,17.43-19.58,16.34-21-.62-.82-3.75,2.07-11,7.31C1314.82,686.85,1302.86,690.52,1303.67,692.41Z"/>
      <ellipse class="cls-5" cx="1299.72" cy="690.94" rx="7.53" ry="7.84"/>
      <ellipse class="cls-5" cx="1283.88" cy="689.89" rx="13.19" ry="13.75"/>
    </g>
    <ellipse class="cls-10" cx="1136.89" cy="755.67" rx="27.27" ry="8.98"/>
    <ellipse class="cls-10" cx="1317.33" cy="755.67" rx="27.27" ry="8.98"/>
  </g>
  <g>
    <path class="cls-3" d="M310.11,269.79l2.17-1.63c2.74-1.67,4.66-2.51,5.79-2.51q3.74,0,8.08,7c1.76,2.92,2.65,5.26,2.65,7a6.18,6.18,0,0,1-1.63,4.39,18.82,18.82,0,0,1-3.79,3.13l-4.16,2.64a43.61,43.61,0,0,1-8.14,3.26,38.16,38.16,0,0,1-11.87,2,44.82,44.82,0,0,1-11.58-1.57,48,48,0,0,1-12.05-5.27,50.19,50.19,0,0,1-11.15-9,41.76,41.76,0,0,1-8.14-13.67,50.23,50.23,0,0,1-3.19-18.12,48.11,48.11,0,0,1,3.13-17.75,40.79,40.79,0,0,1,8-13.17,45.88,45.88,0,0,1,11.15-8.71q11.81-6.78,23.75-6.78a38.73,38.73,0,0,1,11.51,1.82,40.26,40.26,0,0,1,8.86,3.7l2.89,1.76c1.45.92,2.57,1.67,3.38,2.26a7.69,7.69,0,0,1,3.13,6,12.24,12.24,0,0,1-2.53,7q-4.71,6.78-8.44,6.78-2.18,0-6.15-2.76-5.06-4.26-13.5-4.27-7.83,0-15.43,5.65a21,21,0,0,0-6,7.77,27.93,27.93,0,0,0,0,22.7,21.5,21.5,0,0,0,6.15,7.9,25.18,25.18,0,0,0,15.31,5.52,24.17,24.17,0,0,0,7.05-1A17.89,17.89,0,0,0,310.11,269.79Z"/>
    <path class="cls-3" d="M378.22,200.81q17.83,0,31,13.42t13.14,33.3q0,19.87-12.54,33.86t-30.86,14q-18.31,0-31.16-13.8A46.58,46.58,0,0,1,335,248.72a52.28,52.28,0,0,1,3.61-19.5,44.22,44.22,0,0,1,23.51-24.9A39.11,39.11,0,0,1,378.22,200.81Zm-21.94,47.28q0,11.17,6.93,18.13t15.49,7q8.57,0,15.43-6.77T401,248.22q0-11.41-6.93-18.31T378.58,223q-8.55,0-15.43,7T356.28,248.09Z"/>
    <path class="cls-3" d="M524.08,205.45a10.4,10.4,0,0,1,1.14,3.39,39.87,39.87,0,0,1,.18,4.39v69.6q0,8.66-4.58,10.16a18.78,18.78,0,0,1-5.78.76,19.59,19.59,0,0,1-5.55-.63,9.31,9.31,0,0,1-3.13-1.51,5.65,5.65,0,0,1-1.69-2.5,26.13,26.13,0,0,1-.6-6.53v-42q-3,3.88-8.8,12.35t-7.35,10.6l-2.17,3a11.87,11.87,0,0,1-3,2.26,9.75,9.75,0,0,1-10,.12,11.13,11.13,0,0,1-3.2-2.57l-1-1.38q-2.42-3.13-9.53-13.36t-7.71-11v42.26a38,38,0,0,1-.18,4.33,9,9,0,0,1-1.15,3.2q-1.8,3.39-9.4,3.39-7.35,0-9.16-3.39a9.18,9.18,0,0,1-1.14-3.26,38.53,38.53,0,0,1-.19-4.52V213a35.46,35.46,0,0,1,.19-4.33,10.31,10.31,0,0,1,1.14-3.32q1.81-3.27,9.4-3.26a17.3,17.3,0,0,1,5.61.81,7.11,7.11,0,0,1,3.07,1.7l.73.75,27.36,37.37q20.49-28.22,27.36-37.25,2.06-3.37,9.71-3.38T524.08,205.45Z"/>
    <path class="cls-3" d="M600.26,220.5a34.31,34.31,0,0,1,3.14,14.8A33.85,33.85,0,0,1,600.26,250a28.77,28.77,0,0,1-8.07,10.47q-10,8-20.74,8H556.38v14.17a38.15,38.15,0,0,1-.18,4.33,10.31,10.31,0,0,1-1.14,3.32q-1.69,3.39-9.41,3.39-8.43,0-9.88-4.64a22,22,0,0,1-.72-6.53V213a38.15,38.15,0,0,1,.18-4.33,10.31,10.31,0,0,1,1.14-3.32q1.7-3.39,9.4-3.39h25.8q10.6,0,20.62,8A28.66,28.66,0,0,1,600.26,220.5Zm-21.58,23.08q3.5-2.76,3.5-8.28t-3.5-8.34a11.41,11.41,0,0,0-7.23-2.82H556.38v22.2h15.19A11.41,11.41,0,0,0,578.68,243.58Z"/>
    <path class="cls-3" d="M652.7,200.81q17.84,0,31,13.42t13.14,33.3q0,19.87-12.54,33.86t-30.86,14q-18.33,0-31.16-13.8a46.58,46.58,0,0,1-12.84-32.86,52.28,52.28,0,0,1,3.62-19.5,44.16,44.16,0,0,1,23.5-24.9A39.15,39.15,0,0,1,652.7,200.81Zm-21.94,47.28q0,11.17,6.93,18.13t15.49,7q8.55,0,15.43-6.77t6.87-18.19q0-11.41-6.93-18.31T653.06,223q-8.56,0-15.43,7T630.76,248.09Z"/>
    <path class="cls-3" d="M706,281c-2.09-2.67-3.14-5.08-3.14-7.21s1.73-4.95,5.19-8.46a8.94,8.94,0,0,1,6.38-3q3.38,0,9.41,6.27a18.32,18.32,0,0,0,4.82,4.07,11.14,11.14,0,0,0,5.78,1.95q11.22,0,11.22-9.53,0-2.89-3.08-4.83a21.8,21.8,0,0,0-7.65-2.82,68.57,68.57,0,0,1-19.77-7.4,20.47,20.47,0,0,1-7.66-8.34,28.63,28.63,0,0,1-3.07-13.74,26.88,26.88,0,0,1,7.9-19.25q7.89-8.21,21.51-8.21a42.64,42.64,0,0,1,13.2,1.94q6,2,8.26,4l3,2.38q3.74,3.64,3.74,6.15c0,1.67-1,4-2.89,6.9Q755,228,750.7,228q-2.54,0-6.27-2.51a15.27,15.27,0,0,1-1.39-1.25,17.42,17.42,0,0,0-1.86-1.63,11.69,11.69,0,0,0-6.45-1.64,10.49,10.49,0,0,0-6.51,1.95,6.35,6.35,0,0,0-2.59,5.39,6.5,6.5,0,0,0,3.07,5.58,18.4,18.4,0,0,0,7.65,2.89,85.85,85.85,0,0,1,10,2.32,60.41,60.41,0,0,1,10,3.82,18,18,0,0,1,7.66,7.84,28.13,28.13,0,0,1,3.07,13.73A31.4,31.4,0,0,1,764,278.88a24.51,24.51,0,0,1-8.2,9.6,36.4,36.4,0,0,1-20.85,6.65,39,39,0,0,1-10.73-1.45,28.44,28.44,0,0,1-8.2-3.57q-6.39-4-8.92-7.78Z"/>
    <path class="cls-3" d="M774.69,201.82h67a12.87,12.87,0,0,1,5.67.94,4.74,4.74,0,0,1,2.41,2.94,19,19,0,0,1,.6,5.27,18.25,18.25,0,0,1-.6,5.21,4.32,4.32,0,0,1-2,2.69,13.49,13.49,0,0,1-6.15,1.13h-23v63.09a33.72,33.72,0,0,1-.19,4.26,10.48,10.48,0,0,1-1.08,3.2,5.14,5.14,0,0,1-3.2,2.57,19.78,19.78,0,0,1-6,.75,19.3,19.3,0,0,1-6-.75,5.11,5.11,0,0,1-3.13-2.57,10.22,10.22,0,0,1-1.09-3.26,38.15,38.15,0,0,1-.18-4.33V220H774.57a12.84,12.84,0,0,1-5.67-.94,4.73,4.73,0,0,1-2.41-2.95,18.82,18.82,0,0,1-.6-5.26,18.25,18.25,0,0,1,.6-5.21,4.28,4.28,0,0,1,2-2.69A13.49,13.49,0,0,1,774.69,201.82Z"/>
    <path class="cls-3" d="M878.35,271.67h37.13a34.66,34.66,0,0,1,4.16.19,9.45,9.45,0,0,1,3.19,1.19q3.25,1.76,3.26,9.78,0,8.79-4.46,10.29a19.52,19.52,0,0,1-6.27.75H867.63q-8.45,0-9.89-4.76a20.58,20.58,0,0,1-.72-6.4V213c0-4.27.76-7.17,2.29-8.72s4.42-2.32,8.68-2.32h47.49a32.66,32.66,0,0,1,4.16.19,9.45,9.45,0,0,1,3.19,1.19q3.25,1.76,3.26,9.78c0,5.86-1.49,9.28-4.46,10.29a19.52,19.52,0,0,1-6.27.75h-37v12.67h23.87a32.66,32.66,0,0,1,4.16.19,9.24,9.24,0,0,1,3.19,1.19q3.25,1.76,3.26,9.78,0,8.78-4.58,10.28A19.46,19.46,0,0,1,902,259H878.35Z"/>
    <path class="cls-3" d="M1001.55,278.32a20.67,20.67,0,0,1,1.81,6.52q0,4.77-7.48,8a16,16,0,0,1-6.21,1.75,6,6,0,0,1-3.85-1.19,8.74,8.74,0,0,1-2.23-2.44q-1.22-2.39-9.41-22.7l-3.73.25H955.26v14.17a38.15,38.15,0,0,1-.18,4.33,10.12,10.12,0,0,1-1.15,3.32q-1.68,3.39-9.4,3.39-8.44,0-9.88-4.64a21.56,21.56,0,0,1-.73-6.53V213a38.15,38.15,0,0,1,.18-4.33,10.12,10.12,0,0,1,1.15-3.32q1.68-3.39,9.4-3.39h26q10.6,0,20.61,8a29.2,29.2,0,0,1,8,10.53,34.31,34.31,0,0,1,3.13,14.8q0,14.17-9,23.33Q996,265.27,1001.55,278.32Zm-46.29-32h15.43a11.27,11.27,0,0,0,7-2.76q3.5-2.76,3.5-8.28t-3.5-8.34a11.41,11.41,0,0,0-7.23-2.82H955.26Z"/>
  </g>
  <g>
    <path class="cls-3" d="M605.91,343.48c-13.8,7.11-6.52,73.14,20.53,83.3,11.19,4.2,26.54-.9,31-11.3C667.69,391.6,618.61,336.93,605.91,343.48Z"/>
    <path class="cls-4" d="M616,366.55c-1.24.84,10,27.72,22.6,48.24,7.58,12.31,21.5,28.43,21.88,28.13,1-.81-5.27-8.14-19.11-29.93C629.4,394.19,617.27,365.67,616,366.55Z"/>
  </g>
  <g>
    <path class="cls-3" d="M581.84,477.1c-6.4-9.31,26.93-49.4,49.81-46.7,9.48,1.11,17.81,9.65,16.4,17.88C644.82,467.19,587.74,485.66,581.84,477.1Z"/>
    <path class="cls-4" d="M598.64,465.66c-.49-1,18.73-14.46,36.19-23.38,10.48-5.35,26.93-11,27.06-10.66.36.87-7.1,3.45-25.94,12.76C619.7,452.42,599.15,466.67,598.64,465.66Z"/>
  </g>
  <g>
    <path class="cls-11" d="M663.47,460.09q-10.71-6.66-10.71-20.41,0-7.26,2.55-11.09a8.4,8.4,0,0,1,7.5-3.83,9,9,0,0,1,5.89,1.85,5.86,5.86,0,0,1,2.27,4.75,23.48,23.48,0,0,1-.4,4.63,13.38,13.38,0,0,1-.2,1.85,18.9,18.9,0,0,0-.2,2.77q0,5.94,6.09,8.85t17.08,2.91q11.38,0,17.81-4a12.66,12.66,0,0,0,6.43-11.3,11.13,11.13,0,0,0-3-7.73,24.49,24.49,0,0,0-7.36-5.41q-4.42-2.19-12.46-5.35A140,140,0,0,1,678,411a34.78,34.78,0,0,1-11.11-9.71q-4.62-6.15-4.62-15.26a28.86,28.86,0,0,1,5.16-16.91q5.15-7.39,14.86-11.49t22.83-4.1a54.45,54.45,0,0,1,18,2.84,29.14,29.14,0,0,1,13,8.66A21.4,21.4,0,0,1,741,379.31q0,8.32-2.54,12.55a8.23,8.23,0,0,1-7.5,4.23,8.38,8.38,0,0,1-5.83-2.11,6.55,6.55,0,0,1-2.34-5,24.73,24.73,0,0,1,.4-4.63c.27-2.64.4-4.31.4-5q0-5.55-5.49-8.45T704.45,368q-11.52,0-17.61,4.16a13.38,13.38,0,0,0-6.09,11.7,12.52,12.52,0,0,0,3.15,8.58,25.84,25.84,0,0,0,7.83,5.95q4.69,2.37,13.12,5.68a170.48,170.48,0,0,1,16.34,7.39,32.6,32.6,0,0,1,10.52,9,22.35,22.35,0,0,1,4.35,14q0,15.59-12,24T692,466.77Q674.18,466.77,663.47,460.09Z"/>
    <path class="cls-11" d="M808.57,437.84a8.07,8.07,0,0,1,1,4.35q0,5.3-2.55,8.19a56.86,56.86,0,0,1-12.58,11.5,27.93,27.93,0,0,1-15.67,4.49q-27.33,0-27.32-37.91,0-5.82.4-11.76h-5.22q-4,0-5.43-1.45a6.51,6.51,0,0,1-1.4-4.63q0-7.39,6-7.4h7.64a126.55,126.55,0,0,1,7-26.55q4.68-12,11.32-19.15T786,350.38a10.06,10.06,0,0,1,8.84,4.89q3.21,4.89,3.21,12.29,0,20.47-17.41,35.66h15a4.27,4.27,0,0,1,3.08.93,4.84,4.84,0,0,1,.94,3.43q0,9.12-15.13,9.12H768.2c-.18,4.4-.27,7.84-.27,10.3q0,13.74,3.28,19.29t10.38,5.55a16.14,16.14,0,0,0,10.18-3.44,81.2,81.2,0,0,0,10.44-10.3,4.74,4.74,0,0,1,3.62-1.85A3.09,3.09,0,0,1,808.57,437.84ZM777.91,368a68.94,68.94,0,0,0-4.69,13.74,182.44,182.44,0,0,0-3.68,19.48,45.36,45.36,0,0,0,11.85-15.12q3.95-8.39,4-15.26c0-5.2-1-7.79-3-7.79Q780.38,363.07,777.91,368Z"/>
    <path class="cls-11" d="M861.2,437.84a8.07,8.07,0,0,1,1,4.35q0,5.3-2.55,8.19-4.95,6-14,11a39.22,39.22,0,0,1-19.35,5q-14.07,0-21.83-7.53t-7.77-20.61a37.75,37.75,0,0,1,3.88-17,31.63,31.63,0,0,1,10.78-12.49A27.41,27.41,0,0,1,827,404.15q7.75,0,12.45,4.56t4.69,12.35a21.22,21.22,0,0,1-6.63,15.65q-6.63,6.54-22.43,10.37,3.34,6.07,12.72,6.08,6,0,13.73-4.16a45.35,45.35,0,0,0,13.32-10.9,4.74,4.74,0,0,1,3.62-1.85A3.09,3.09,0,0,1,861.2,437.84Zm-44.86-15.07a26.18,26.18,0,0,0-3.42,13.74v.27q7.91-1.84,12.46-5.55t4.55-8.59a5.75,5.75,0,0,0-1.4-4,5,5,0,0,0-3.82-1.52Q819.76,417.09,816.34,422.77Z"/>
    <path class="cls-11" d="M904.86,437.84a8.07,8.07,0,0,1,1,4.35q0,5.3-2.54,8.19a57.73,57.73,0,0,1-12.52,11.5,27.15,27.15,0,0,1-15.34,4.49q-11.78,0-17.47-10.57t-5.7-27.34a185.58,185.58,0,0,1,4.22-36.73q4.23-20.61,12.46-35.4t19.62-14.8q6.42,0,10.11,5.88t3.68,16.84q0,15.74-8.84,36.46a200.94,200.94,0,0,1-24,41.09q.93,5.42,3.08,7.73a7.31,7.31,0,0,0,5.63,2.31,15.68,15.68,0,0,0,9.64-3.11A73,73,0,0,0,898.5,438.1a4.72,4.72,0,0,1,3.61-1.85A3.11,3.11,0,0,1,904.86,437.84Zm-26.18-72.26a177.63,177.63,0,0,0-6.83,27.21A193.86,193.86,0,0,0,868.63,424a169,169,0,0,0,15.14-31q5.63-15.53,5.62-28.34,0-10-3.75-10Q882.57,354.61,878.68,365.58Z"/>
    <path class="cls-11" d="M948.51,437.84a8.07,8.07,0,0,1,1,4.35q0,5.3-2.55,8.19a57.51,57.51,0,0,1-12.52,11.5,27.12,27.12,0,0,1-15.33,4.49q-11.79,0-17.48-10.57T896,428.46a185.58,185.58,0,0,1,4.22-36.73q4.22-20.61,12.45-35.4t19.62-14.8q6.43,0,10.11,5.88T946,364.25q0,15.74-8.84,36.46a201.86,201.86,0,0,1-24,41.09q.93,5.42,3.08,7.73a7.29,7.29,0,0,0,5.62,2.31,15.66,15.66,0,0,0,9.64-3.11q4.15-3.09,10.58-10.63a4.74,4.74,0,0,1,3.62-1.85A3.09,3.09,0,0,1,948.51,437.84Zm-26.18-72.26a177.63,177.63,0,0,0-6.83,27.21A195,195,0,0,0,912.29,424a168.93,168.93,0,0,0,15.13-31q5.63-15.53,5.63-28.34c0-6.69-1.26-10-3.75-10Q926.21,354.61,922.33,365.58Z"/>
    <path class="cls-11" d="M940.34,460.42q-4.76-5.94-4.75-15.58a42.53,42.53,0,0,1,4.95-20,42,42,0,0,1,13.19-15.19,30,30,0,0,1,17.48-5.75c2,0,3.28.38,3.95,1.13a9.34,9.34,0,0,1,1.67,4,27.91,27.91,0,0,1,5.63-.53,7.12,7.12,0,0,1,4.95,1.58,5.79,5.79,0,0,1,1.75,4.49,71.25,71.25,0,0,1-1.34,10.57c-1,5.38-1.74,10.51-2.28,15.39a151.09,151.09,0,0,0-.8,16.45c0,3.35-.7,5.75-2.08,7.2s-3.64,2.18-6.76,2.18-5.29-.73-6.77-2.18-2.21-3.81-2.21-7.07l.14-2.11q-4.15,11.36-14.33,11.36A15.11,15.11,0,0,1,940.34,460.42Zm24.44-12.55q3.08-5.14,5.49-18.36l2.55-13.34a16,16,0,0,0-10.18,4.16,28.4,28.4,0,0,0-7.5,10.64,35.44,35.44,0,0,0-2.81,14,9.89,9.89,0,0,0,1.54,6,4.84,4.84,0,0,0,4.08,2Q961.7,453,964.78,447.87Z"/>
  </g>
  <g>
    <g>
      <path class="cls-3" d="M829.83,1043.36c15.32,2.48,48.72-54.94,33-79.19-6.5-10-21.88-15.06-31.64-9.35C808.76,967.93,815.72,1041.07,829.83,1043.36Z"/>
      <path class="cls-4" d="M835.45,1018.82c1.5.06,8.46-28.22,10.5-52.23,1.22-14.41-.39-35.64-.88-35.62-1.3,0-.59,9.67-2.41,35.42C841.09,988.61,833.89,1018.76,835.45,1018.82Z"/>
    </g>
    <g>
      <path class="cls-3" d="M928.61,950.21c-.38,11.29-51,23.72-67.81,7.95-7-6.53-8.58-18.35-2.56-24.13C872.08,920.75,929,939.82,928.61,950.21Z"/>
      <path class="cls-4" d="M908.31,949.42c-.19,1.07-23.66.5-43-2.71-11.6-1.92-28.18-7.17-28.1-7.51.24-.91,7.76,1.45,28.45,5.15C883.51,947.55,908.5,948.31,908.31,949.42Z"/>
    </g>
  </g>
  <path class="cls-12" d="M293.22,813.8h3.22c5.55-42.14,56.26-75.15,118-75.15a159.82,159.82,0,0,1,56.74,10.09c16.62-40.62,64.39-70,120.73-70,59.83,0,110,33.08,123.46,77.62,1.38-.06,2.77-.08,4.17-.08,41.55,0,75.75,25.14,80.31,57.48h9.32c33.41,0,60.49,30.53,60.49,68.18h0c0,37.66-27.08,68.18-60.49,68.18h-516c-33.41,0-60.49-30.52-60.49-68.18h0C232.73,844.33,259.81,813.8,293.22,813.8Z"/>
  <g>
    <path class="cls-5" d="M399.14,819.62l.59-.43a4,4,0,0,1,1.59-.66c.68,0,1.42.62,2.21,1.85a3.87,3.87,0,0,1,.72,1.85,1.6,1.6,0,0,1-.44,1.15,5.34,5.34,0,0,1-1,.83l-1.14.69a11.84,11.84,0,0,1-2.23.86,10.87,10.87,0,0,1-3.25.53,13,13,0,0,1-3.17-.41,13.82,13.82,0,0,1-3.3-1.39,13.55,13.55,0,0,1-3.05-2.38,11,11,0,0,1-2.23-3.59,12.88,12.88,0,0,1-.87-4.77,12.25,12.25,0,0,1,.86-4.67,10.73,10.73,0,0,1,2.19-3.47,12.76,12.76,0,0,1,3.05-2.29,13.37,13.37,0,0,1,6.51-1.78,11,11,0,0,1,3.15.48,11.22,11.22,0,0,1,2.42,1l.79.46q.6.36.93.6a2,2,0,0,1,.86,1.56,3.12,3.12,0,0,1-.7,1.84c-.85,1.18-1.62,1.78-2.31,1.78a3.47,3.47,0,0,1-1.68-.73,5.69,5.69,0,0,0-3.7-1.12,7.2,7.2,0,0,0-4.22,1.48,5.62,5.62,0,0,0-1.65,2,7.08,7.08,0,0,0,0,6,5.67,5.67,0,0,0,1.68,2.08,7.07,7.07,0,0,0,4.19,1.45,6.67,6.67,0,0,0,1.93-.26A5.1,5.1,0,0,0,399.14,819.62Z"/>
    <path class="cls-5" d="M412.27,821.07h9a3.83,3.83,0,0,1,1.58.25,1.28,1.28,0,0,1,.66.78,5.85,5.85,0,0,1,0,2.8,1.13,1.13,0,0,1-.56.73,3.71,3.71,0,0,1-1.71.33H409.34c-1.55,0-2.45-.42-2.71-1.26a5.2,5.2,0,0,1-.2-1.68V804.67a10.12,10.12,0,0,1,.05-1.13,2.67,2.67,0,0,1,.31-.88c.31-.59,1.17-.89,2.58-.89s2.45.41,2.74,1.22a6.62,6.62,0,0,1,.16,1.72Z"/>
    <path class="cls-5" d="M425.8,804.67a10.12,10.12,0,0,1,.05-1.13,2.5,2.5,0,0,1,.32-.88c.3-.59,1.16-.89,2.57-.89s2.45.41,2.74,1.22a6.62,6.62,0,0,1,.16,1.72v18.34a8.28,8.28,0,0,1-.05,1.16,2.51,2.51,0,0,1-.31.86c-.31.59-1.17.89-2.57.89s-2.45-.42-2.71-1.26a5.2,5.2,0,0,1-.2-1.68Z"/>
    <path class="cls-5" d="M449.4,819.62l.59-.43a4,4,0,0,1,1.58-.66c.69,0,1.42.62,2.22,1.85a3.87,3.87,0,0,1,.72,1.85,1.6,1.6,0,0,1-.44,1.15,5.34,5.34,0,0,1-1,.83l-1.14.69a12.14,12.14,0,0,1-2.23.86,10.92,10.92,0,0,1-3.25.53,12.89,12.89,0,0,1-3.17-.41,14.15,14.15,0,0,1-6.35-3.77,10.87,10.87,0,0,1-2.23-3.59,12.88,12.88,0,0,1-.87-4.77,12.07,12.07,0,0,1,.86-4.67,10.73,10.73,0,0,1,2.19-3.47,12.76,12.76,0,0,1,3.05-2.29,13.36,13.36,0,0,1,6.5-1.78,10.86,10.86,0,0,1,3.15.48,11.12,11.12,0,0,1,2.43,1l.79.46q.6.36.93.6a2,2,0,0,1,.85,1.56,3.17,3.17,0,0,1-.69,1.84c-.86,1.18-1.63,1.78-2.31,1.78a3.44,3.44,0,0,1-1.68-.73,5.71,5.71,0,0,0-3.7-1.12,7.18,7.18,0,0,0-4.22,1.48,5.62,5.62,0,0,0-1.65,2,7.08,7.08,0,0,0,0,6A5.67,5.67,0,0,0,442,819a7,7,0,0,0,4.19,1.45,6.72,6.72,0,0,0,1.93-.26A5.1,5.1,0,0,0,449.4,819.62Z"/>
    <path class="cls-5" d="M467.05,813.81q5.06,4.86,7.16,7.3a3.42,3.42,0,0,1,1.09,2.06q0,.84-1.32,2a3.76,3.76,0,0,1-2.16,1.14c-.56,0-1.24-.46-2-1.39l-7.26-8.28v6.43a10.22,10.22,0,0,1,0,1.16,2.74,2.74,0,0,1-.31.86c-.31.59-1.17.89-2.58.89s-2.44-.42-2.7-1.26a5.2,5.2,0,0,1-.2-1.68V804.67a10.12,10.12,0,0,1,.05-1.13,2.67,2.67,0,0,1,.31-.88c.31-.59,1.17-.89,2.58-.89s2.45.41,2.74,1.22a6.62,6.62,0,0,1,.16,1.72V811q4.49-5.06,7.26-8.28c.77-.91,1.44-1.36,2-1.36a3.75,3.75,0,0,1,2.18,1.14q1.32,1.14,1.32,2a3.34,3.34,0,0,1-1,2q-1.9,2.21-5.94,6.07Z"/>
    <path class="cls-5" d="M500.08,803.49,509,821.9a4.22,4.22,0,0,1,.56,1.68c0,.79-.63,1.51-1.91,2.15a4.42,4.42,0,0,1-1.76.56,1.75,1.75,0,0,1-1.06-.3,1.92,1.92,0,0,1-.59-.63c-.13-.22-.3-.55-.52-1L502,820.81h-9.14l-1.72,3.56q-.33.66-.51,1a2.38,2.38,0,0,1-.59.61,1.71,1.71,0,0,1-1.06.31,4.25,4.25,0,0,1-1.77-.56c-1.27-.61-1.91-1.32-1.91-2.11a4.39,4.39,0,0,1,.56-1.68l8.91-18.45a3,3,0,0,1,2.67-1.68A2.78,2.78,0,0,1,500.08,803.49Zm-2.67,7.92-2.18,4.52h4.39Z"/>
    <path class="cls-5" d="M527,802.78a1.52,1.52,0,0,1,.94-.78,5.28,5.28,0,0,1,1.56-.2A5.64,5.64,0,0,1,531,802a2.48,2.48,0,0,1,.86.39,1.38,1.38,0,0,1,.41.7,5.2,5.2,0,0,1,.2,1.68v18.31a10.22,10.22,0,0,1,0,1.16,2.74,2.74,0,0,1-.31.86c-.31.59-1.17.89-2.58.89a5.46,5.46,0,0,1-1.78-.2,1.87,1.87,0,0,1-.82-.63q-7.43-9.9-9.77-12.93v10.85a10.22,10.22,0,0,1,0,1.16,2.56,2.56,0,0,1-.32.86c-.3.59-1.16.89-2.57.89s-2.2-.3-2.51-.89a2.71,2.71,0,0,1-.31-.89,10.89,10.89,0,0,1-.05-1.16V804.61a4,4,0,0,1,.31-1.83,1.58,1.58,0,0,1,.94-.78,5.58,5.58,0,0,1,1.62-.2,5.5,5.5,0,0,1,1.57.18,2,2,0,0,1,.81.42,9.45,9.45,0,0,1,.76.85q7,9.48,9.3,12.51V804.61A4,4,0,0,1,527,802.78Z"/>
    <path class="cls-5" d="M538.07,801.74l6.1,0a11.86,11.86,0,0,1,8.42,3.45,11.23,11.23,0,0,1,3.63,8.48,11.89,11.89,0,0,1-3.55,8.63,11.62,11.62,0,0,1-8.6,3.59h-6c-1.34,0-2.17-.27-2.5-.82a4.31,4.31,0,0,1-.4-2.11V804.64a10,10,0,0,1,0-1.15,2.66,2.66,0,0,1,.31-.86C535.8,802,536.66,801.74,538.07,801.74Zm10.39,16.58a5.78,5.78,0,0,0,1.92-4.44,6,6,0,0,0-1.87-4.47,6.09,6.09,0,0,0-4.37-1.8H541v12.47h3.2A6.13,6.13,0,0,0,548.46,818.32Z"/>
    <path class="cls-5" d="M581.82,819.62l.6-.43a3.92,3.92,0,0,1,1.58-.66c.68,0,1.42.62,2.21,1.85a3.8,3.8,0,0,1,.73,1.85,1.57,1.57,0,0,1-.45,1.15,4.81,4.81,0,0,1-1,.83l-1.13.69a12.14,12.14,0,0,1-2.23.86,10.92,10.92,0,0,1-3.25.53,12.89,12.89,0,0,1-3.17-.41,14.15,14.15,0,0,1-6.35-3.77,10.71,10.71,0,0,1-2.23-3.59,12.88,12.88,0,0,1-.87-4.77,12.25,12.25,0,0,1,.85-4.67,10.92,10.92,0,0,1,2.2-3.47,12.76,12.76,0,0,1,3.05-2.29,13.33,13.33,0,0,1,6.5-1.78A10.91,10.91,0,0,1,582,802a11.12,11.12,0,0,1,2.43,1l.79.46c.4.24.7.44.92.6a2,2,0,0,1,.86,1.56,3.17,3.17,0,0,1-.69,1.84c-.86,1.18-1.63,1.78-2.31,1.78a3.4,3.4,0,0,1-1.68-.73,5.71,5.71,0,0,0-3.7-1.12,7.18,7.18,0,0,0-4.22,1.48,5.62,5.62,0,0,0-1.65,2,7.08,7.08,0,0,0,0,6A5.67,5.67,0,0,0,574.4,819a7,7,0,0,0,4.19,1.45,6.72,6.72,0,0,0,1.93-.26A4.85,4.85,0,0,0,581.82,819.62Z"/>
    <path class="cls-5" d="M600.47,801.47a12.17,12.17,0,0,1,12.08,12.29,12.58,12.58,0,0,1-3.44,8.91,11.05,11.05,0,0,1-8.44,3.68,11.42,11.42,0,0,1-8.53-3.63,12,12,0,0,1-3.52-8.64,13.25,13.25,0,0,1,1-5.13,11.87,11.87,0,0,1,2.64-4,12.24,12.24,0,0,1,3.8-2.54A11,11,0,0,1,600.47,801.47Zm-6,12.44a6.35,6.35,0,0,0,1.9,4.77,5.86,5.86,0,0,0,8.46.05,6.26,6.26,0,0,0,1.89-4.78,6.37,6.37,0,0,0-1.9-4.82,6,6,0,0,0-4.24-1.82,5.94,5.94,0,0,0-4.23,1.83A6.4,6.4,0,0,0,594.46,813.91Z"/>
    <path class="cls-5" d="M620.53,821.07h9a3.83,3.83,0,0,1,1.58.25,1.28,1.28,0,0,1,.66.78,5.85,5.85,0,0,1,0,2.8,1.13,1.13,0,0,1-.56.73,3.71,3.71,0,0,1-1.71.33H617.6c-1.54,0-2.45-.42-2.71-1.26a5.2,5.2,0,0,1-.2-1.68V804.67a10.12,10.12,0,0,1,0-1.13,2.67,2.67,0,0,1,.31-.88c.31-.59,1.17-.89,2.58-.89s2.45.41,2.74,1.22a6.62,6.62,0,0,1,.16,1.72Z"/>
    <path class="cls-5" d="M639.9,821.07h9a3.83,3.83,0,0,1,1.58.25,1.28,1.28,0,0,1,.66.78,5.85,5.85,0,0,1,0,2.8,1.13,1.13,0,0,1-.56.73,3.71,3.71,0,0,1-1.71.33H637c-1.54,0-2.45-.42-2.71-1.26a5.2,5.2,0,0,1-.2-1.68V804.67a10.12,10.12,0,0,1,.05-1.13,2.5,2.5,0,0,1,.32-.88c.3-.59,1.16-.89,2.57-.89s2.45.41,2.74,1.22a6.62,6.62,0,0,1,.16,1.72Z"/>
    <path class="cls-5" d="M659.27,820.12h10.17a8.4,8.4,0,0,1,1.14,0,2.48,2.48,0,0,1,.87.31c.59.31.89,1.17.89,2.57s-.41,2.45-1.22,2.71a5.58,5.58,0,0,1-1.72.2H656.34c-1.54,0-2.44-.42-2.71-1.26a5.2,5.2,0,0,1-.2-1.68V804.67a3.18,3.18,0,0,1,.63-2.29,3.44,3.44,0,0,1,2.38-.61h13a10.46,10.46,0,0,1,1.14.05,2.7,2.7,0,0,1,.87.31c.59.31.89,1.17.89,2.58s-.41,2.44-1.22,2.7a5.58,5.58,0,0,1-1.72.2H659.27v3.33h6.54a10.46,10.46,0,0,1,1.14,0,2.75,2.75,0,0,1,.87.32c.59.3.89,1.16.89,2.57s-.42,2.44-1.25,2.71a5.68,5.68,0,0,1-1.72.19h-6.47Z"/>
    <path class="cls-5" d="M689.6,819.62l.59-.43a4,4,0,0,1,1.59-.66c.68,0,1.42.62,2.21,1.85a3.91,3.91,0,0,1,.73,1.85,1.57,1.57,0,0,1-.45,1.15,5.06,5.06,0,0,1-1,.83l-1.14.69a11.55,11.55,0,0,1-2.23.86,10.87,10.87,0,0,1-3.25.53,12.81,12.81,0,0,1-3.16-.41,14.25,14.25,0,0,1-6.36-3.77,10.86,10.86,0,0,1-2.22-3.59,12.69,12.69,0,0,1-.88-4.77,12.25,12.25,0,0,1,.86-4.67,10.73,10.73,0,0,1,2.19-3.47,12.82,12.82,0,0,1,3.06-2.29,13.3,13.3,0,0,1,6.5-1.78,12.62,12.62,0,0,1,5.57,1.45l.8.46c.39.24.7.44.92.6a2,2,0,0,1,.86,1.56,3.17,3.17,0,0,1-.69,1.84c-.86,1.18-1.63,1.78-2.31,1.78a3.46,3.46,0,0,1-1.69-.73,5.66,5.66,0,0,0-3.69-1.12,7.23,7.23,0,0,0-4.23,1.48,5.62,5.62,0,0,0-1.65,2,7.08,7.08,0,0,0,0,6,5.59,5.59,0,0,0,1.69,2.08,7,7,0,0,0,4.19,1.45,6.77,6.77,0,0,0,1.93-.26A5,5,0,0,0,689.6,819.62Z"/>
    <path class="cls-5" d="M698.48,801.74h18.35a3.76,3.76,0,0,1,1.55.24,1.28,1.28,0,0,1,.66.78,4.77,4.77,0,0,1,.16,1.39,4.55,4.55,0,0,1-.16,1.36,1.12,1.12,0,0,1-.56.71,3.84,3.84,0,0,1-1.69.3h-6.3v16.6a9.66,9.66,0,0,1,0,1.12,2.52,2.52,0,0,1-.3.84,1.37,1.37,0,0,1-.87.68,5.7,5.7,0,0,1-1.65.2,5.58,5.58,0,0,1-1.64-.2,1.38,1.38,0,0,1-.85-.68,2.49,2.49,0,0,1-.3-.85,10.46,10.46,0,0,1-.05-1.14V806.52h-6.34a3.57,3.57,0,0,1-1.55-.25,1.23,1.23,0,0,1-.66-.77,4.82,4.82,0,0,1-.16-1.39,4.63,4.63,0,0,1,.16-1.37,1.17,1.17,0,0,1,.56-.71A3.86,3.86,0,0,1,698.48,801.74Z"/>
    <path class="cls-5" d="M332,841.07a12.17,12.17,0,0,1,12.08,12.29,12.57,12.57,0,0,1-3.43,8.91,11.07,11.07,0,0,1-8.45,3.68,11.43,11.43,0,0,1-8.53-3.63,12,12,0,0,1-3.51-8.64,13.25,13.25,0,0,1,1-5.13,11.87,11.87,0,0,1,2.64-4,12.19,12.19,0,0,1,3.79-2.54A11,11,0,0,1,332,841.07Zm-6,12.44a6.34,6.34,0,0,0,1.89,4.77,5.87,5.87,0,0,0,8.47.05,7,7,0,0,0,0-9.6,6,6,0,0,0-4.24-1.82,5.9,5.9,0,0,0-4.22,1.83A6.33,6.33,0,0,0,326,853.51Z"/>
    <path class="cls-5" d="M364.77,861.47a5.17,5.17,0,0,1,.49,1.71c0,.84-.68,1.54-2,2.11a4.57,4.57,0,0,1-1.7.47,1.71,1.71,0,0,1-1.06-.32,2.41,2.41,0,0,1-.61-.64q-.33-.63-2.57-6l-1,.06H352.1v3.73a10.2,10.2,0,0,1-.05,1.14,2.75,2.75,0,0,1-.32.87c-.3.6-1.16.89-2.57.89s-2.44-.4-2.71-1.22a5.57,5.57,0,0,1-.19-1.71V844.27a8.4,8.4,0,0,1,.05-1.14,2.48,2.48,0,0,1,.31-.87c.31-.59,1.16-.89,2.57-.89h7.13a9.11,9.11,0,0,1,5.64,2.11,7.75,7.75,0,0,1,2.18,2.77,8.79,8.79,0,0,1,.86,3.9,8.18,8.18,0,0,1-2.48,6.13Q363.26,858,364.77,861.47Zm-12.67-8.42h4.22a3.1,3.1,0,0,0,1.91-.73,2.53,2.53,0,0,0,1-2.17,2.62,2.62,0,0,0-1-2.2,3.19,3.19,0,0,0-2-.74H352.1Z"/>
    <path class="cls-5" d="M379.35,851h5.81c1.19,0,1.92.35,2.18.93a4,4,0,0,1,.33,1.84V861a2.91,2.91,0,0,1-.92,2q-2.78,2.87-8.32,2.87a11.56,11.56,0,0,1-8.55-3.72,12.33,12.33,0,0,1-3.63-8.95,11.64,11.64,0,0,1,3.7-8.77,12.22,12.22,0,0,1,16.07-.94,1.83,1.83,0,0,1,.89,1.47,3.35,3.35,0,0,1-.76,1.87c-.85,1.16-1.64,1.75-2.34,1.75a4.57,4.57,0,0,1-2-.91,5.88,5.88,0,0,0-3.3-.91,6.45,6.45,0,0,0-4.46,1.77,5.91,5.91,0,0,0-1.94,4.62,6.63,6.63,0,0,0,2,4.85,6.15,6.15,0,0,0,4.48,2,8.51,8.51,0,0,0,3.27-.59v-3.6h-2.61a2.9,2.9,0,0,1-1.45-.26,1.25,1.25,0,0,1-.56-.78,5.65,5.65,0,0,1-.13-1.38,5.37,5.37,0,0,1,.15-1.41,1.08,1.08,0,0,1,.54-.72A3.56,3.56,0,0,1,379.35,851Z"/>
    <path class="cls-5" d="M404.27,843.08l8.91,18.42a4.39,4.39,0,0,1,.56,1.68c0,.79-.64,1.51-1.91,2.15a4.41,4.41,0,0,1-1.77.56,1.72,1.72,0,0,1-1.05-.3,2,2,0,0,1-.6-.63q-.18-.33-.51-1l-1.72-3.56H397L395.33,864q-.33.66-.51,1a2.44,2.44,0,0,1-.6.61,1.68,1.68,0,0,1-1.05.31,4.25,4.25,0,0,1-1.77-.56c-1.28-.61-1.91-1.32-1.91-2.11a4.22,4.22,0,0,1,.56-1.68L399,843.05a3,3,0,0,1,2.67-1.68A2.79,2.79,0,0,1,404.27,843.08ZM401.6,851l-2.18,4.53h4.39Z"/>
    <path class="cls-5" d="M431.18,842.38a1.55,1.55,0,0,1,.94-.78,5.35,5.35,0,0,1,1.57-.2,5.69,5.69,0,0,1,1.52.17,2.57,2.57,0,0,1,.86.39,1.45,1.45,0,0,1,.41.7,5.2,5.2,0,0,1,.2,1.68v18.31a10.22,10.22,0,0,1-.05,1.16,2.8,2.8,0,0,1-.32.86c-.31.59-1.16.89-2.57.89a5.46,5.46,0,0,1-1.78-.2,1.9,1.9,0,0,1-.83-.63q-7.42-9.9-9.77-12.93v10.85a8.28,8.28,0,0,1-.05,1.16,2.51,2.51,0,0,1-.31.86c-.31.59-1.17.89-2.57.89s-2.2-.3-2.51-.89a2.5,2.5,0,0,1-.31-.89,8.73,8.73,0,0,1-.05-1.16V844.21a4,4,0,0,1,.31-1.83,1.55,1.55,0,0,1,.94-.78,5.58,5.58,0,0,1,1.62-.2,5.38,5.38,0,0,1,1.56.18,1.88,1.88,0,0,1,.81.42,8,8,0,0,1,.76.85q7,9.48,9.31,12.51V844.21A4,4,0,0,1,431.18,842.38Z"/>
    <path class="cls-5" d="M439.32,844.27a8.4,8.4,0,0,1,.05-1.14,2.48,2.48,0,0,1,.31-.87c.31-.59,1.16-.89,2.57-.89s2.46.41,2.74,1.22a6.53,6.53,0,0,1,.17,1.72v18.34a10.22,10.22,0,0,1-.05,1.16,2.8,2.8,0,0,1-.32.86c-.3.59-1.16.89-2.57.89s-2.44-.42-2.71-1.26a5.27,5.27,0,0,1-.19-1.68Z"/>
    <path class="cls-5" d="M462.91,859.22l.59-.43a4,4,0,0,1,1.59-.66c.68,0,1.42.62,2.21,1.85a3.87,3.87,0,0,1,.72,1.85,1.56,1.56,0,0,1-.44,1.15,5.06,5.06,0,0,1-1,.83l-1.14.69a11.55,11.55,0,0,1-2.23.86,10.87,10.87,0,0,1-3.25.53,12.81,12.81,0,0,1-3.16-.41,14.25,14.25,0,0,1-6.36-3.77,10.86,10.86,0,0,1-2.22-3.59,12.69,12.69,0,0,1-.88-4.77,12.25,12.25,0,0,1,.86-4.67,10.73,10.73,0,0,1,2.19-3.47,12.62,12.62,0,0,1,3.06-2.29,13.3,13.3,0,0,1,6.5-1.78,12.62,12.62,0,0,1,5.57,1.45l.8.46c.39.24.7.44.92.6a2,2,0,0,1,.86,1.56,3.12,3.12,0,0,1-.69,1.83c-.86,1.19-1.63,1.79-2.31,1.79a3.56,3.56,0,0,1-1.69-.73,5.66,5.66,0,0,0-3.69-1.12,7.23,7.23,0,0,0-4.23,1.48,5.62,5.62,0,0,0-1.65,2,7.08,7.08,0,0,0,0,6,5.67,5.67,0,0,0,1.68,2.08,7.08,7.08,0,0,0,4.2,1.45,6.77,6.77,0,0,0,1.93-.26A5,5,0,0,0,462.91,859.22Z"/>
    <path class="cls-5" d="M507.49,841.5c1.48.53,2.21,1.23,2.21,2.11a6.43,6.43,0,0,1-.39,1.62L503,863.54a2.94,2.94,0,0,1-.23.57,3.13,3.13,0,0,1-.87.87,2.73,2.73,0,0,1-1.69.54,2.68,2.68,0,0,1-1.68-.54,2.9,2.9,0,0,1-.94-1.07l-3.86-11.39q-3.66,10.83-3.73,11a2.45,2.45,0,0,1-.3.57,3.74,3.74,0,0,1-.53.66,2.48,2.48,0,0,1-1.81.75,2.84,2.84,0,0,1-1.73-.49,2.74,2.74,0,0,1-.91-1l-.23-.5-6.37-18.31a5.86,5.86,0,0,1-.36-1.62c0-.88.73-1.57,2.21-2.08a5.35,5.35,0,0,1,1.73-.33,1.43,1.43,0,0,1,1.19.53,5.14,5.14,0,0,1,.74,1.62l3.63,11,3.6-10.86a3,3,0,0,1,1.68-1.91,3.52,3.52,0,0,1,1.37-.23,2.92,2.92,0,0,1,2.49,1.62l3.8,11.45,3.63-11.09a11.43,11.43,0,0,1,.43-1.12,1.87,1.87,0,0,1,.61-.71,1.72,1.72,0,0,1,1.1-.35A4.55,4.55,0,0,1,507.49,841.5Z"/>
    <path class="cls-5" d="M525.48,843.08l8.91,18.42a4.39,4.39,0,0,1,.56,1.68c0,.79-.64,1.51-1.92,2.15a4.33,4.33,0,0,1-1.76.56,1.77,1.77,0,0,1-1.06-.3,2,2,0,0,1-.59-.63q-.18-.33-.51-1l-1.72-3.56h-9.14L516.53,864q-.33.66-.51,1a2.38,2.38,0,0,1-.59.61,1.71,1.71,0,0,1-1.06.31,4.18,4.18,0,0,1-1.76-.56c-1.28-.61-1.92-1.32-1.92-2.11a4.39,4.39,0,0,1,.56-1.68l8.91-18.45a3,3,0,0,1,1.11-1.22,2.9,2.9,0,0,1,1.57-.46A2.8,2.8,0,0,1,525.48,843.08ZM522.8,851l-2.17,4.53H525Z"/>
    <path class="cls-5" d="M536.14,862.16a3.12,3.12,0,0,1-.86-1.9c0-.56.47-1.3,1.42-2.23a2.53,2.53,0,0,1,1.75-.79c.61,0,1.47.55,2.57,1.65a5,5,0,0,0,1.32,1.07,3.07,3.07,0,0,0,1.58.52c2.05,0,3.07-.84,3.07-2.51a1.48,1.48,0,0,0-.84-1.27,6.11,6.11,0,0,0-2.09-.74,19,19,0,0,1-2.71-.75,18.06,18.06,0,0,1-2.71-1.2,5.5,5.5,0,0,1-2.09-2.2,7.27,7.27,0,0,1-.84-3.61,7,7,0,0,1,2.16-5.07,8,8,0,0,1,5.89-2.16,12.07,12.07,0,0,1,3.61.51,7.17,7.17,0,0,1,2.26,1l.83.63a2.59,2.59,0,0,1,1,1.62,3.61,3.61,0,0,1-.79,1.81q-1.12,1.65-2.31,1.65a3.4,3.4,0,0,1-1.72-.66,3.8,3.8,0,0,1-.38-.33,4.49,4.49,0,0,0-.51-.43,3.35,3.35,0,0,0-1.76-.43,3,3,0,0,0-1.79.52,1.65,1.65,0,0,0-.7,1.42,1.69,1.69,0,0,0,.84,1.46,5.08,5.08,0,0,0,2.09.76,25.2,25.2,0,0,1,2.74.61,17.3,17.3,0,0,1,2.74,1,4.88,4.88,0,0,1,2.1,2.06,7.21,7.21,0,0,1,.84,3.62,8,8,0,0,1-.86,3.77,6.59,6.59,0,0,1-2.24,2.53,10.32,10.32,0,0,1-5.71,1.75,11.17,11.17,0,0,1-2.94-.38,8,8,0,0,1-2.24-.94,8.21,8.21,0,0,1-2.45-2.05Z"/>
    <path class="cls-5" d="M555,841.34h18.34a3.78,3.78,0,0,1,1.56.24,1.28,1.28,0,0,1,.66.78,4.75,4.75,0,0,1,.16,1.38,4.58,4.58,0,0,1-.16,1.37,1.1,1.1,0,0,1-.57.71,3.77,3.77,0,0,1-1.68.3H567v16.6a9.66,9.66,0,0,1-.05,1.12,2.52,2.52,0,0,1-.3.84,1.37,1.37,0,0,1-.87.68,5.7,5.7,0,0,1-1.65.2,5.58,5.58,0,0,1-1.64-.2,1.38,1.38,0,0,1-.85-.68,2.49,2.49,0,0,1-.3-.85,10.46,10.46,0,0,1,0-1.14V846.12h-6.34a3.57,3.57,0,0,1-1.55-.25,1.23,1.23,0,0,1-.66-.77,4.82,4.82,0,0,1-.16-1.39,4.63,4.63,0,0,1,.16-1.37,1.14,1.14,0,0,1,.56-.71A3.86,3.86,0,0,1,555,841.34Z"/>
    <path class="cls-5" d="M583.33,859.72h10.16a8.22,8.22,0,0,1,1.14,0,2.48,2.48,0,0,1,.87.31c.6.31.89,1.17.89,2.57s-.4,2.45-1.22,2.71a5.51,5.51,0,0,1-1.71.2H580.39c-1.54,0-2.44-.42-2.71-1.26a5.2,5.2,0,0,1-.2-1.68V844.27a3.18,3.18,0,0,1,.63-2.29,3.44,3.44,0,0,1,2.38-.61h13a8.22,8.22,0,0,1,1.14,0,2.7,2.7,0,0,1,.87.31c.6.31.89,1.17.89,2.58s-.4,2.44-1.22,2.7a5.51,5.51,0,0,1-1.71.2H583.33v3.33h6.53a10.2,10.2,0,0,1,1.14.05,2.53,2.53,0,0,1,.87.32c.6.3.89,1.16.89,2.57s-.41,2.44-1.25,2.71a5.64,5.64,0,0,1-1.72.19h-6.46Z"/>
    <path class="cls-5" d="M608.47,841.34h18.35a3.76,3.76,0,0,1,1.55.24,1.28,1.28,0,0,1,.66.78,4.7,4.7,0,0,1,.17,1.38,4.54,4.54,0,0,1-.17,1.37,1.12,1.12,0,0,1-.56.71,3.83,3.83,0,0,1-1.68.3h-6.31v16.6a7.81,7.81,0,0,1-.05,1.12,2.71,2.71,0,0,1-.29.84,1.41,1.41,0,0,1-.88.68,5.7,5.7,0,0,1-1.65.2,5.51,5.51,0,0,1-1.63-.2,1.4,1.4,0,0,1-.86-.68,3,3,0,0,1-.3-.85,10.46,10.46,0,0,1-.05-1.14V846.12h-6.33a3.54,3.54,0,0,1-1.55-.25,1.23,1.23,0,0,1-.66-.77,4.78,4.78,0,0,1-.17-1.39,4.58,4.58,0,0,1,.17-1.37,1.11,1.11,0,0,1,.56-.71A3.81,3.81,0,0,1,608.47,841.34Z"/>
    <path class="cls-5" d="M640.38,841.07a12.17,12.17,0,0,1,12.08,12.29,12.57,12.57,0,0,1-3.43,8.91,11.09,11.09,0,0,1-8.45,3.68,11.43,11.43,0,0,1-8.53-3.63,12,12,0,0,1-3.51-8.64,13.24,13.24,0,0,1,1-5.13,11.89,11.89,0,0,1,2.65-4A12.08,12.08,0,0,1,636,842,11,11,0,0,1,640.38,841.07Zm-6,12.44a6.34,6.34,0,0,0,1.89,4.77,5.87,5.87,0,0,0,8.47.05,7,7,0,0,0,0-9.6,6,6,0,0,0-4.24-1.82,5.9,5.9,0,0,0-4.22,1.83A6.33,6.33,0,0,0,634.38,853.51Z"/>
    <path class="cls-5" d="M679,841.37a8.4,8.4,0,0,1,1.14,0,2.46,2.46,0,0,1,.85.31,1.49,1.49,0,0,1,.68.89,7.2,7.2,0,0,1,0,3.37,1.35,1.35,0,0,1-.69.87,2.62,2.62,0,0,1-.88.3,10.56,10.56,0,0,1-1.17.05h-10.1v3.33h6.51a10.83,10.83,0,0,1,1.17.05,2.53,2.53,0,0,1,.87.32c.57.33.86,1.19.86,2.6s-.42,2.46-1.25,2.74a6.22,6.22,0,0,1-1.69.17h-6.47v6.23a8.28,8.28,0,0,1,0,1.16,2.51,2.51,0,0,1-.31.86c-.31.59-1.16.89-2.57.89s-2.44-.42-2.71-1.26a5.2,5.2,0,0,1-.2-1.68V844.27a3.18,3.18,0,0,1,.63-2.29,3.44,3.44,0,0,1,2.38-.61Z"/>
    <path class="cls-5" d="M684,844.27a10.46,10.46,0,0,1,0-1.14,2.75,2.75,0,0,1,.32-.87c.31-.59,1.16-.89,2.57-.89s2.45.41,2.74,1.22a6.53,6.53,0,0,1,.17,1.72v18.34a10.22,10.22,0,0,1-.05,1.16,2.8,2.8,0,0,1-.32.86c-.31.59-1.16.89-2.57.89s-2.44-.42-2.71-1.26a5.2,5.2,0,0,1-.2-1.68Z"/>
    <path class="cls-5" d="M698.3,860.67h9a3.85,3.85,0,0,1,1.59.25,1.25,1.25,0,0,1,.66.78,6.2,6.2,0,0,1,0,2.8,1.14,1.14,0,0,1-.57.73,3.69,3.69,0,0,1-1.71.33H695.36c-1.54,0-2.44-.42-2.71-1.26a5.2,5.2,0,0,1-.2-1.68V844.27a10.46,10.46,0,0,1,0-1.14,2.75,2.75,0,0,1,.32-.87c.31-.59,1.16-.89,2.57-.89s2.45.41,2.74,1.22a6.53,6.53,0,0,1,.17,1.72Z"/>
    <path class="cls-5" d="M717.67,860.67h9a3.85,3.85,0,0,1,1.59.25,1.25,1.25,0,0,1,.66.78,6.2,6.2,0,0,1,0,2.8,1.16,1.16,0,0,1-.56.73,3.73,3.73,0,0,1-1.72.33H714.73c-1.54,0-2.44-.42-2.71-1.26a5.27,5.27,0,0,1-.19-1.68V844.27a8.4,8.4,0,0,1,0-1.14,2.48,2.48,0,0,1,.31-.87c.31-.59,1.16-.89,2.57-.89s2.46.41,2.74,1.22a6.53,6.53,0,0,1,.17,1.72Z"/>
    <path class="cls-5" d="M755.35,842.26a1.74,1.74,0,0,1,1-.73,5.39,5.39,0,0,1,1.57-.19,5.58,5.58,0,0,1,1.5.16,2.56,2.56,0,0,1,.86.4,1.25,1.25,0,0,1,.42.69,5.28,5.28,0,0,1,.2,1.72v10a12.78,12.78,0,0,1-2.7,7.92,9.87,9.87,0,0,1-3.4,2.72,10.08,10.08,0,0,1-4.61,1,9.93,9.93,0,0,1-4.58-1.05,9.62,9.62,0,0,1-3.35-2.77,12.76,12.76,0,0,1-2.68-7.92v-9.94a10.56,10.56,0,0,1,.05-1.17,2.75,2.75,0,0,1,.32-.87,1.46,1.46,0,0,1,.89-.7,5.88,5.88,0,0,1,1.68-.19,5.79,5.79,0,0,1,1.68.19,1.34,1.34,0,0,1,.86.7,4.45,4.45,0,0,1,.4,2.08v9.9a7.86,7.86,0,0,0,1,3.82,3.72,3.72,0,0,0,1.48,1.49,4.72,4.72,0,0,0,2.35.56,4,4,0,0,0,3.59-1.78,7.21,7.21,0,0,0,1.19-4.13v-10.1A3.62,3.62,0,0,1,755.35,842.26Z"/>
    <path class="cls-5" d="M781.36,846.25a8.78,8.78,0,0,1,.85,3.9,8.59,8.59,0,0,1-.85,3.87,7.59,7.59,0,0,1-2.22,2.76,9.14,9.14,0,0,1-5.67,2.11h-4.13v3.73a8.22,8.22,0,0,1-.05,1.14,2.48,2.48,0,0,1-.31.87c-.31.6-1.17.89-2.57.89s-2.45-.4-2.71-1.22a5.51,5.51,0,0,1-.2-1.71V844.27a10.46,10.46,0,0,1,0-1.14,2.53,2.53,0,0,1,.32-.87c.3-.59,1.16-.89,2.57-.89h7.06a9.11,9.11,0,0,1,5.64,2.11A7.63,7.63,0,0,1,781.36,846.25Zm-5.91,6.07a2.53,2.53,0,0,0,1-2.17,2.62,2.62,0,0,0-1-2.2,3.23,3.23,0,0,0-2-.74h-4.13v5.84h4.16A3.18,3.18,0,0,0,775.45,852.32Z"/>
    <path class="cls-5" d="M412.45,880.94H430.8a3.76,3.76,0,0,1,1.55.24,1.28,1.28,0,0,1,.66.78,4.7,4.7,0,0,1,.17,1.38,4.54,4.54,0,0,1-.17,1.37,1.12,1.12,0,0,1-.56.71,3.83,3.83,0,0,1-1.68.3h-6.31v16.6a10.23,10.23,0,0,1,0,1.12,3.07,3.07,0,0,1-.3.84,1.41,1.41,0,0,1-.88.68,5.61,5.61,0,0,1-1.65.2A5.51,5.51,0,0,1,420,905a1.4,1.4,0,0,1-.86-.68,2.67,2.67,0,0,1-.29-.85,8.4,8.4,0,0,1-.05-1.14V885.72h-6.34a3.57,3.57,0,0,1-1.55-.25,1.23,1.23,0,0,1-.66-.77,4.78,4.78,0,0,1-.17-1.39,4.58,4.58,0,0,1,.17-1.37,1.17,1.17,0,0,1,.56-.71A4,4,0,0,1,412.45,880.94Z"/>
    <path class="cls-5" d="M449.94,881.86a1.44,1.44,0,0,1,.89-.69,5.45,5.45,0,0,1,1.59-.2,5.56,5.56,0,0,1,1.51.16,2.66,2.66,0,0,1,.86.4,1.43,1.43,0,0,1,.46.66,6.53,6.53,0,0,1,.17,1.72v18.31a10.2,10.2,0,0,1-.05,1.14,2.7,2.7,0,0,1-.31.87c-.31.6-1.17.89-2.58.89s-2.44-.4-2.7-1.22a5.22,5.22,0,0,1-.2-1.71v-6.7h-8.75v6.73a8.22,8.22,0,0,1-.05,1.14,2.48,2.48,0,0,1-.31.87c-.31.6-1.17.89-2.57.89s-2.45-.4-2.71-1.22a5.51,5.51,0,0,1-.2-1.71V883.87a10.46,10.46,0,0,1,.05-1.14,2.7,2.7,0,0,1,.31-.87c.31-.59,1.17-.89,2.58-.89s2.45.41,2.74,1.22a6.62,6.62,0,0,1,.16,1.72v6.73h8.75v-6.77a8.4,8.4,0,0,1,.05-1.14A2.48,2.48,0,0,1,449.94,881.86Z"/>
    <path class="cls-5" d="M463.9,899.32h10.16a8.22,8.22,0,0,1,1.14,0,2.52,2.52,0,0,1,.88.31c.59.31.89,1.17.89,2.57s-.41,2.45-1.22,2.71a5.62,5.62,0,0,1-1.72.2H461q-2.31,0-2.7-1.26a4.94,4.94,0,0,1-.2-1.68V883.87a3.18,3.18,0,0,1,.63-2.29,3.41,3.41,0,0,1,2.37-.61h13a10.2,10.2,0,0,1,1.14,0,2.74,2.74,0,0,1,.88.31c.59.31.89,1.17.89,2.58s-.41,2.44-1.22,2.7a5.62,5.62,0,0,1-1.72.2H463.9v3.33h6.53a10.2,10.2,0,0,1,1.14.05,2.8,2.8,0,0,1,.88.32c.59.3.89,1.16.89,2.57s-.42,2.44-1.26,2.71a5.57,5.57,0,0,1-1.71.19H463.9Z"/>
    <path class="cls-5" d="M502.57,898.82l.6-.43a3.92,3.92,0,0,1,1.58-.66c.68,0,1.42.62,2.21,1.85a3.8,3.8,0,0,1,.73,1.85,1.57,1.57,0,0,1-.45,1.15,4.81,4.81,0,0,1-1,.83l-1.13.69a12.14,12.14,0,0,1-2.23.86,10.92,10.92,0,0,1-3.25.53,12.89,12.89,0,0,1-3.17-.41,14.15,14.15,0,0,1-6.35-3.77,10.87,10.87,0,0,1-2.23-3.59A12.88,12.88,0,0,1,487,893a12.25,12.25,0,0,1,.85-4.67,10.92,10.92,0,0,1,2.2-3.47,12.76,12.76,0,0,1,3.05-2.29,13.33,13.33,0,0,1,6.5-1.78,10.86,10.86,0,0,1,3.15.48,11.12,11.12,0,0,1,2.43,1l.79.46c.4.24.7.44.92.6a2,2,0,0,1,.86,1.56,3.17,3.17,0,0,1-.69,1.84c-.86,1.18-1.63,1.78-2.31,1.78a3.4,3.4,0,0,1-1.68-.73,5.71,5.71,0,0,0-3.7-1.12,7.18,7.18,0,0,0-4.22,1.48,5.62,5.62,0,0,0-1.65,2.05,7.08,7.08,0,0,0,0,6,5.67,5.67,0,0,0,1.68,2.08,7,7,0,0,0,4.19,1.45,6.72,6.72,0,0,0,1.93-.26A4.85,4.85,0,0,0,502.57,898.82Z"/>
    <path class="cls-5" d="M521.22,880.67A12.17,12.17,0,0,1,533.3,893a12.66,12.66,0,0,1-3.43,8.92,11.11,11.11,0,0,1-8.45,3.67,11.42,11.42,0,0,1-8.53-3.63,12,12,0,0,1-3.52-8.64,13.25,13.25,0,0,1,1-5.13,11.87,11.87,0,0,1,2.64-4,12.24,12.24,0,0,1,3.8-2.54A11,11,0,0,1,521.22,880.67Zm-6,12.44a6.35,6.35,0,0,0,1.9,4.77,5.87,5.87,0,0,0,8.47,0,6.29,6.29,0,0,0,1.88-4.78,6.37,6.37,0,0,0-1.9-4.82,6,6,0,0,0-4.24-1.82,5.94,5.94,0,0,0-4.23,1.83A6.4,6.4,0,0,0,515.21,893.11Z"/>
    <path class="cls-5" d="M561.15,881.89a2.71,2.71,0,0,1,.31.89,8.73,8.73,0,0,1,0,1.16v18.31c0,1.52-.42,2.41-1.25,2.68a5.49,5.49,0,0,1-1.59.19,5.56,5.56,0,0,1-1.51-.16,2.47,2.47,0,0,1-.86-.4,1.43,1.43,0,0,1-.46-.66,6.45,6.45,0,0,1-.17-1.71V891.13c-.55.69-1.35,1.77-2.41,3.25s-1.73,2.42-2,2.79l-.59.78a3.4,3.4,0,0,1-.81.59,2.71,2.71,0,0,1-1.39.38,2.59,2.59,0,0,1-1.35-.35,3.08,3.08,0,0,1-.88-.67l-.26-.36c-.44-.55-1.31-1.73-2.61-3.52s-2-2.75-2.11-2.89v11.12a10.2,10.2,0,0,1,0,1.14,2.28,2.28,0,0,1-.31.84c-.33.6-1.19.89-2.58.89s-2.17-.29-2.5-.89a2.19,2.19,0,0,1-.32-.85,11.27,11.27,0,0,1,0-1.19V883.87a10.46,10.46,0,0,1,0-1.14,2.53,2.53,0,0,1,.32-.87c.33-.57,1.18-.86,2.57-.86a4.66,4.66,0,0,1,1.53.22,2,2,0,0,1,.84.44l.2.2,7.49,9.83q5.61-7.43,7.5-9.8c.37-.59,1.25-.89,2.65-.89S560.84,881.3,561.15,881.89Z"/>
    <path class="cls-5" d="M582,885.85a8.65,8.65,0,0,1,.86,3.9,8.47,8.47,0,0,1-.86,3.87,7.47,7.47,0,0,1-2.21,2.76,9.14,9.14,0,0,1-5.67,2.11H570v3.73a8.22,8.22,0,0,1,0,1.14,2.48,2.48,0,0,1-.31.87c-.31.6-1.17.89-2.57.89s-2.45-.4-2.71-1.22a5.51,5.51,0,0,1-.2-1.71V883.87a10.46,10.46,0,0,1,.05-1.14,2.53,2.53,0,0,1,.32-.87c.3-.59,1.16-.89,2.57-.89h7.06a9.11,9.11,0,0,1,5.64,2.11A7.5,7.5,0,0,1,582,885.85Zm-5.9,6.07a2.53,2.53,0,0,0,1-2.17,2.62,2.62,0,0,0-1-2.2,3.23,3.23,0,0,0-2-.74H570v5.84h4.16A3.18,3.18,0,0,0,576.1,891.92Z"/>
    <path class="cls-5" d="M596.36,880.67A12.17,12.17,0,0,1,608.44,893a12.66,12.66,0,0,1-3.43,8.92,11.11,11.11,0,0,1-8.45,3.67,11.42,11.42,0,0,1-8.53-3.63,12,12,0,0,1-3.52-8.64,13.25,13.25,0,0,1,1-5.13,11.87,11.87,0,0,1,2.64-4,12.24,12.24,0,0,1,3.8-2.54A11,11,0,0,1,596.36,880.67Zm-6,12.44a6.35,6.35,0,0,0,1.9,4.77,5.87,5.87,0,0,0,8.47,0,6.29,6.29,0,0,0,1.88-4.78,6.37,6.37,0,0,0-1.9-4.82,6,6,0,0,0-4.24-1.82,5.94,5.94,0,0,0-4.23,1.83A6.4,6.4,0,0,0,590.35,893.11Z"/>
    <path class="cls-5" d="M611,901.76a3.12,3.12,0,0,1-.86-1.9c0-.56.47-1.3,1.42-2.23a2.53,2.53,0,0,1,1.75-.79c.61,0,1.47.55,2.57,1.65a5,5,0,0,0,1.32,1.07,3.07,3.07,0,0,0,1.58.52c2,0,3.07-.84,3.07-2.51a1.48,1.48,0,0,0-.84-1.27,6.11,6.11,0,0,0-2.09-.74,19,19,0,0,1-2.71-.75,18.06,18.06,0,0,1-2.71-1.2,5.44,5.44,0,0,1-2.09-2.2,7.27,7.27,0,0,1-.84-3.61,7,7,0,0,1,2.16-5.07,8,8,0,0,1,5.89-2.16,12.07,12.07,0,0,1,3.61.51,7.17,7.17,0,0,1,2.26,1l.83.63a2.59,2.59,0,0,1,1,1.62,3.61,3.61,0,0,1-.79,1.81q-1.12,1.65-2.31,1.65a3.4,3.4,0,0,1-1.72-.66,3.8,3.8,0,0,1-.38-.33,5.57,5.57,0,0,0-.51-.43,3.35,3.35,0,0,0-1.76-.42,3,3,0,0,0-1.79.51,1.65,1.65,0,0,0-.71,1.42,1.68,1.68,0,0,0,.85,1.46,5,5,0,0,0,2.09.76,27.81,27.81,0,0,1,2.74.61,17.3,17.3,0,0,1,2.74,1,4.81,4.81,0,0,1,2.09,2.06,7.1,7.1,0,0,1,.85,3.62,8,8,0,0,1-.86,3.77,6.46,6.46,0,0,1-2.25,2.53,10.19,10.19,0,0,1-5.7,1.75,11.17,11.17,0,0,1-2.94-.38,8.06,8.06,0,0,1-2.25-.94,8.15,8.15,0,0,1-2.44-2Z"/>
    <path class="cls-5" d="M629.76,880.94H648.1a3.73,3.73,0,0,1,1.55.24,1.28,1.28,0,0,1,.66.78,4.7,4.7,0,0,1,.17,1.38,4.54,4.54,0,0,1-.17,1.37,1.09,1.09,0,0,1-.56.71,3.77,3.77,0,0,1-1.68.3h-6.3v16.6a9.66,9.66,0,0,1,0,1.12,2.52,2.52,0,0,1-.3.84,1.39,1.39,0,0,1-.87.68,5.7,5.7,0,0,1-1.65.2,5.54,5.54,0,0,1-1.64-.2,1.38,1.38,0,0,1-.85-.68,2.49,2.49,0,0,1-.3-.85,10.46,10.46,0,0,1-.05-1.14V885.72h-6.34a3.57,3.57,0,0,1-1.55-.25,1.23,1.23,0,0,1-.66-.77,4.82,4.82,0,0,1-.16-1.39,4.63,4.63,0,0,1,.16-1.37,1.17,1.17,0,0,1,.56-.71A4,4,0,0,1,629.76,880.94Z"/>
    <path class="cls-5" d="M658.14,899.32H668.3a8.31,8.31,0,0,1,1.14,0,2.48,2.48,0,0,1,.87.31c.6.31.89,1.17.89,2.57s-.4,2.45-1.22,2.71a5.51,5.51,0,0,1-1.71.2H655.2c-1.54,0-2.44-.42-2.71-1.26a5.2,5.2,0,0,1-.2-1.68V883.87a3.18,3.18,0,0,1,.63-2.29,3.44,3.44,0,0,1,2.38-.61h13a10.33,10.33,0,0,1,1.14,0,2.7,2.7,0,0,1,.87.31c.6.31.89,1.17.89,2.58s-.4,2.44-1.22,2.7a5.51,5.51,0,0,1-1.71.2H658.14v3.33h6.53a10.46,10.46,0,0,1,1.14.05,2.75,2.75,0,0,1,.87.32c.6.3.89,1.16.89,2.57s-.42,2.44-1.25,2.71a5.68,5.68,0,0,1-1.72.19h-6.46Z"/>
    <path class="cls-5" d="M691.86,901.07a5.26,5.26,0,0,1,.5,1.71c0,.84-.69,1.54-2.05,2.11a4.52,4.52,0,0,1-1.7.47,1.71,1.71,0,0,1-1.06-.32,2.59,2.59,0,0,1-.61-.64c-.22-.42-1.07-2.41-2.57-6l-1,.06h-4.16v3.73a10.2,10.2,0,0,1-.05,1.14,2.7,2.7,0,0,1-.31.87c-.31.6-1.17.89-2.58.89s-2.44-.4-2.7-1.22a5.22,5.22,0,0,1-.2-1.71V883.87a8.4,8.4,0,0,1,0-1.14,2.48,2.48,0,0,1,.31-.87c.31-.59,1.17-.89,2.57-.89h7.13a9.15,9.15,0,0,1,5.65,2.11,7.73,7.73,0,0,1,2.17,2.77,8.65,8.65,0,0,1,.86,3.9,8.18,8.18,0,0,1-2.47,6.13Q690.34,897.64,691.86,901.07Zm-12.67-8.42h4.22a3.14,3.14,0,0,0,1.92-.73,2.55,2.55,0,0,0,.95-2.17,2.64,2.64,0,0,0-.95-2.2,3.23,3.23,0,0,0-2-.74h-4.16Z"/>
  </g>
</svg>
