<svg id="Layer_1" data-name="Layer 1" xmlns="http://www.w3.org/2000/svg" width="60.7" height="34.06" viewBox="0 0 60.7 34.06">
  <defs>
    <style>
      .cls-1 {
        opacity: 0.8;
      }

      .cls-2 {
        fill: #fff;
      }
    </style>
  </defs>
  <title>time</title>
  <g class="cls-1">
    <g>
      <path class="cls-2" d="M7,25.71a1.37,1.37,0,0,1-1-.43,1.4,1.4,0,0,1-.43-1V6.63l-2.11.89a2.37,2.37,0,0,1-.93.2,1.45,1.45,0,0,1-1-.4,1.39,1.39,0,0,1-.42-1,1.6,1.6,0,0,1,.23-.84A1.4,1.4,0,0,1,2,4.89L6.47,3.28a1.4,1.4,0,0,1,.29-.09l.26,0a1.36,1.36,0,0,1,1.05.42,1.52,1.52,0,0,1,.39,1.08V24.24a1.4,1.4,0,0,1-.43,1A1.46,1.46,0,0,1,7,25.71Z"/>
      <path class="cls-2" d="M14.7,25.71a1.4,1.4,0,0,1-1.06-.43,1.47,1.47,0,0,1-.41-1,1.41,1.41,0,0,1,.4-1l8.2-9.58a10.35,10.35,0,0,0,1.34-1.91,3.64,3.64,0,0,0,.48-1.7,5.14,5.14,0,0,0-.43-2.2A3.4,3.4,0,0,0,22,6.38a3.89,3.89,0,0,0-3.92.06,3.91,3.91,0,0,0-1.38,1.5A4.26,4.26,0,0,0,16.17,10a1.42,1.42,0,0,1-.42,1,1.48,1.48,0,0,1-2.52-1,6.84,6.84,0,0,1,.89-3.51,6.57,6.57,0,0,1,2.44-2.44A6.79,6.79,0,0,1,20,3.16,6.66,6.66,0,0,1,23.45,4a5.76,5.76,0,0,1,2.24,2.37A7.91,7.91,0,0,1,26.48,10a4.9,4.9,0,0,1-.39,1.87,10,10,0,0,1-1,1.82,17.64,17.64,0,0,1-1.2,1.56L17.3,22.77h8.08a1.5,1.5,0,0,1,1.5,1.47,1.4,1.4,0,0,1-.43,1,1.44,1.44,0,0,1-1.07.43Z"/>
      <path class="cls-2" d="M36.67,25.71a5.49,5.49,0,0,1-3.74-1.34,8.31,8.31,0,0,1-2.35-3.87,20,20,0,0,1-.81-6.08,20,20,0,0,1,.81-6.07,8.31,8.31,0,0,1,2.35-3.87,5.82,5.82,0,0,1,7.48,0,8.64,8.64,0,0,1,2.36,3.9,20.18,20.18,0,0,1,.8,6,20.13,20.13,0,0,1-.8,6,8.53,8.53,0,0,1-2.36,3.9A5.42,5.42,0,0,1,36.67,25.71Zm0-3a2.7,2.7,0,0,0,2.2-1.08,7.45,7.45,0,0,0,1.3-3,18.91,18.91,0,0,0,.43-4.25,18.88,18.88,0,0,0-.43-4.24,7.69,7.69,0,0,0-1.3-3,2.76,2.76,0,0,0-4.39,0,7.32,7.32,0,0,0-1.3,3,19,19,0,0,0-.43,4.27,19.07,19.07,0,0,0,.43,4.28,7.16,7.16,0,0,0,1.31,2.94A2.74,2.74,0,0,0,36.67,22.71Z"/>
      <path class="cls-2" d="M53.36,25.83a11.07,11.07,0,0,1-3.74-.62A7.26,7.26,0,0,1,47,23.64a1.26,1.26,0,0,1-.36-1.06,1.43,1.43,0,0,1,.56-1,1.59,1.59,0,0,1,1.14-.39,1.57,1.57,0,0,1,1,.51,4.4,4.4,0,0,0,1.58,1,5.86,5.86,0,0,0,2.41.48,4.81,4.81,0,0,0,2.55-.55,1.69,1.69,0,0,0,.91-1.41,1.74,1.74,0,0,0-.82-1.5,7.77,7.77,0,0,0-3.1-1A9.21,9.21,0,0,1,48.55,17a3.64,3.64,0,0,1-1.31-2.83,3.52,3.52,0,0,1,.87-2.44,5.29,5.29,0,0,1,2.22-1.44,8.45,8.45,0,0,1,2.83-.48,8.9,8.9,0,0,1,3.38.61,5.77,5.77,0,0,1,2.34,1.67,1.34,1.34,0,0,1,.37,1,1.1,1.1,0,0,1-.49.85,1.39,1.39,0,0,1-1.09.21,2.07,2.07,0,0,1-1.07-.52,3.92,3.92,0,0,0-1.56-1,6.7,6.7,0,0,0-1.94-.26,4.85,4.85,0,0,0-2.15.44,1.36,1.36,0,0,0-.88,1.27,1.65,1.65,0,0,0,.28.94,2.33,2.33,0,0,0,1.08.75,14.92,14.92,0,0,0,2.37.65,13.11,13.11,0,0,1,3.42,1.09A4.53,4.53,0,0,1,59,19.06a3.72,3.72,0,0,1,.55,2,4.25,4.25,0,0,1-.71,2.4,4.84,4.84,0,0,1-2.07,1.7A8.08,8.08,0,0,1,53.36,25.83Z"/>
    </g>
  </g>
</svg>
