<svg id="Layer_1" data-name="Layer 1" xmlns="http://www.w3.org/2000/svg" width="1920" height="1080" viewBox="0 0 1920 1080">
  <defs>
    <style>
      .cls-1 {
        fill: #bab9b9;
      }

      .cls-2, .cls-3 {
        fill: #fff;
      }

      .cls-2, .cls-6 {
        opacity: 0.5;
      }

      .cls-4, .cls-6 {
        fill: #616e7d;
      }

      .cls-5 {
        fill: #aad4c7;
      }

      .cls-7 {
        fill: #efa5a5;
      }

      .cls-8 {
        fill: #7acbea;
      }

      .cls-9 {
        fill: #fcfcfc;
      }

      .cls-10 {
        fill: #737373;
      }
    </style>
  </defs>
  <title>timesup</title>
  <rect class="cls-1" x="-1.4" width="1920" height="1080"/>
  <path class="cls-2" d="M1495,674.83h-8C1473.15,582,1346.64,509.25,1192.6,509.25c-51.27,0-99.49,8.06-141.53,22.23C1009.59,442,890.44,377.33,749.9,377.33c-149.24,0-274.36,72.9-308,171-3.45-.12-6.92-.19-10.41-.19-103.63,0-189,55.39-200.32,126.66H207.94C124.6,674.83,57,742.09,57,825.05h0c0,83,67.56,150.22,150.9,150.22H1495c83.33,0,150.89-67.25,150.89-150.22h0C1645.91,742.09,1578.35,674.83,1495,674.83Z"/>
  <path class="cls-2" d="M1654.3,453.7h-8.91c-15.29-122-155.27-217.55-325.72-217.55-56.74,0-110.1,10.59-156.61,29.21C1117.16,147.77,985.32,62.83,829.8,62.83,664.66,62.83,526.22,158.6,489,287.54c-3.81-.17-7.66-.25-11.52-.25-114.67,0-209.09,72.78-221.66,166.41H230.1c-92.22,0-167,88.37-167,197.37h0c0,109,74.75,197.37,167,197.37H1654.3c92.22,0,167-88.37,167-197.37h0C1821.28,542.07,1746.52,453.7,1654.3,453.7Z"/>
  <path class="cls-3" d="M1202.12,862.73H1198c-7.14-50.35-72.5-89.79-152.1-89.79A220.18,220.18,0,0,0,972.74,785c-21.43-48.53-83-83.59-155.62-83.59-77.11,0-141.75,39.52-159.12,92.74-1.78-.07-3.58-.1-5.38-.1-53.55,0-97.63,30-103.5,68.68h-12c-43.07,0-78,36.47-78,81.46h0c0,45,34.9,81.46,78,81.46h665c43.06,0,78-36.47,78-81.46h0C1280.09,899.2,1245.18,862.73,1202.12,862.73Z"/>
  <g>
    <path class="cls-4" d="M461.72,244.07h67a12.94,12.94,0,0,1,5.66.94,4.69,4.69,0,0,1,2.41,3,19,19,0,0,1,.6,5.27,18.17,18.17,0,0,1-.6,5.2,4.25,4.25,0,0,1-2.05,2.7,13.57,13.57,0,0,1-6.15,1.13h-23v63.08a36.35,36.35,0,0,1-.18,4.27,10.22,10.22,0,0,1-1.09,3.19,5.14,5.14,0,0,1-3.19,2.58,19.9,19.9,0,0,1-6,.75,19.19,19.19,0,0,1-6-.75A5.17,5.17,0,0,1,486,332.8a10.34,10.34,0,0,1-1.08-3.26,38,38,0,0,1-.18-4.32v-63H461.6a12.94,12.94,0,0,1-5.66-.94,4.69,4.69,0,0,1-2.41-2.95,18.49,18.49,0,0,1-.61-5.27,17.82,17.82,0,0,1,.61-5.2,4.25,4.25,0,0,1,2.05-2.7A13.55,13.55,0,0,1,461.72,244.07Z"/>
    <path class="cls-4" d="M544.05,255.24a38,38,0,0,1,.18-4.33,10.36,10.36,0,0,1,1.15-3.32q1.68-3.39,9.4-3.39,8.44,0,10,4.64a26,26,0,0,1,.6,6.52v69.73a37.8,37.8,0,0,1-.18,4.39,10.17,10.17,0,0,1-1.15,3.26q-1.68,3.39-9.4,3.39-8.43,0-9.88-4.77a20.14,20.14,0,0,1-.73-6.39Z"/>
    <path class="cls-4" d="M668.94,247.71a10.25,10.25,0,0,1,1.14,3.39,39.74,39.74,0,0,1,.18,4.39v69.6q0,8.66-4.58,10.16a18.93,18.93,0,0,1-5.79.75,19.52,19.52,0,0,1-5.54-.62,9.21,9.21,0,0,1-3.13-1.51,5.55,5.55,0,0,1-1.69-2.51,25.42,25.42,0,0,1-.61-6.52v-42q-3,3.89-8.79,12.35t-7.36,10.6c-1,1.42-1.77,2.4-2.17,2.94a11.33,11.33,0,0,1-3,2.26,9.8,9.8,0,0,1-10,.13,11.38,11.38,0,0,1-3.19-2.57l-1-1.38Q611.08,304,604,293.8t-7.71-11v42.26a38,38,0,0,1-.18,4.33,9.23,9.23,0,0,1-1.15,3.2q-1.8,3.38-9.4,3.38-7.35,0-9.16-3.38a9,9,0,0,1-1.15-3.26,41.58,41.58,0,0,1-.18-4.52v-69.6a38,38,0,0,1,.18-4.33,10.12,10.12,0,0,1,1.15-3.32q1.8-3.27,9.4-3.27a17.29,17.29,0,0,1,5.61.82,7.19,7.19,0,0,1,3.07,1.69l.72.76L622.53,285q20.49-28.21,27.36-37.25,2-3.39,9.7-3.39T668.94,247.71Z"/>
    <path class="cls-4" d="M701.24,313.93h37.13a32.76,32.76,0,0,1,4.16.19,9.24,9.24,0,0,1,3.19,1.19q3.25,1.76,3.26,9.78,0,8.78-4.46,10.29a19.52,19.52,0,0,1-6.27.75H690.51q-8.43,0-9.88-4.77a20.44,20.44,0,0,1-.73-6.39V255.24c0-4.27.77-7.17,2.3-8.72s4.41-2.32,8.67-2.32h47.5a32.76,32.76,0,0,1,4.16.19,9.24,9.24,0,0,1,3.19,1.19q3.25,1.75,3.26,9.78,0,8.77-4.46,10.28a19.18,19.18,0,0,1-6.27.76h-37v12.66h23.87a34.78,34.78,0,0,1,4.16.19,9.67,9.67,0,0,1,3.19,1.19q3.25,1.77,3.26,9.79,0,8.77-4.58,10.28a19.52,19.52,0,0,1-6.27.75H701.24Z"/>
    <path class="cls-4" d="M775.49,246.83c1.37,1.43,2,3.85,2,7.28v2a32.33,32.33,0,0,1-.24,4.64A37.87,37.87,0,0,1,771,279.69q-5.41,7.9-13.74,7.9c-.56,0-1.06-.44-1.5-1.31a7.59,7.59,0,0,1-.67-3.45,8.11,8.11,0,0,1,.55-3.33q.54-1.19,1.2-1.38c.44-.12.78-.2,1-.25a5,5,0,0,0,1.33-.62,5.58,5.58,0,0,0,1.69-1.57c1.28-1.76,2-4.47,2.17-8.15a10.2,10.2,0,0,1-6.09-2.76c-1.32-1.42-2-4.43-2-9q0-5,1.21-7.47a6.14,6.14,0,0,1,3.67-3.26,26.55,26.55,0,0,1,7.66-.81Q772.72,244.2,775.49,246.83Z"/>
    <path class="cls-4" d="M786.7,323.21c-2.09-2.67-3.13-5.08-3.13-7.21s1.73-4.95,5.18-8.47a9,9,0,0,1,6.39-3q3.38,0,9.4,6.27a18.56,18.56,0,0,0,4.83,4.08,11.09,11.09,0,0,0,5.78,1.94q11.22,0,11.21-9.53,0-2.88-3.07-4.83a22.18,22.18,0,0,0-7.66-2.82,67.89,67.89,0,0,1-19.76-7.4,20.34,20.34,0,0,1-7.66-8.34,28.56,28.56,0,0,1-3.07-13.73A26.9,26.9,0,0,1,793,250.91q7.9-8.22,21.52-8.22a42.34,42.34,0,0,1,13.2,1.95q6,1.94,8.26,4l3,2.38c2.49,2.43,3.74,4.47,3.74,6.15s-1,4-2.9,6.89q-4.1,6.28-8.43,6.28-2.53,0-6.27-2.51a14.58,14.58,0,0,1-1.39-1.26,18.62,18.62,0,0,0-1.87-1.63,11.75,11.75,0,0,0-6.45-1.63,10.53,10.53,0,0,0-6.51,1.95,6.37,6.37,0,0,0-2.59,5.39,6.51,6.51,0,0,0,3.08,5.58,18.53,18.53,0,0,0,7.65,2.88,90.65,90.65,0,0,1,10,2.32,60.76,60.76,0,0,1,10,3.83,18,18,0,0,1,7.66,7.84,28.13,28.13,0,0,1,3.07,13.73,31.56,31.56,0,0,1-3.13,14.36,24.49,24.49,0,0,1-8.2,9.59,36.34,36.34,0,0,1-20.86,6.65,39,39,0,0,1-10.72-1.44,28.44,28.44,0,0,1-8.2-3.57q-6.39-4-8.92-7.78Z"/>
    <path class="cls-4" d="M943.89,247.59a6.2,6.2,0,0,1,3.5-2.76,18.25,18.25,0,0,1,5.72-.76,19.33,19.33,0,0,1,5.49.63,9.31,9.31,0,0,1,3.13,1.51,4.88,4.88,0,0,1,1.57,2.63,21.83,21.83,0,0,1,.72,6.52v37.88a49.88,49.88,0,0,1-9.88,30.1,36.18,36.18,0,0,1-12.42,10.34,35.8,35.8,0,0,1-16.81,3.95,35.39,35.39,0,0,1-29-14.54A49.6,49.6,0,0,1,886.15,293V255.24a39.83,39.83,0,0,1,.18-4.46,10.12,10.12,0,0,1,1.15-3.32,5.33,5.33,0,0,1,3.25-2.63,25.26,25.26,0,0,1,12.3,0,4.89,4.89,0,0,1,3.13,2.63,17.77,17.77,0,0,1,1.45,7.9V293a30.86,30.86,0,0,0,3.61,14.55,13.84,13.84,0,0,0,5.43,5.65,16.55,16.55,0,0,0,8.56,2.13q8.79,0,13.14-6.77a28.46,28.46,0,0,0,4.34-15.68V254.48Q942.69,249.59,943.89,247.59Z"/>
    <path class="cls-4" d="M1038.88,262.76a34.27,34.27,0,0,1,3.13,14.8,33.85,33.85,0,0,1-3.13,14.74,28.76,28.76,0,0,1-8.08,10.47q-10,8-20.73,8H995V325a38,38,0,0,1-.18,4.32,10.36,10.36,0,0,1-1.14,3.33Q992,336,984.27,336q-8.43,0-9.88-4.64a21.83,21.83,0,0,1-.72-6.52v-69.6a38,38,0,0,1,.18-4.33,10.31,10.31,0,0,1,1.14-3.32q1.69-3.39,9.4-3.39h25.8q10.6,0,20.61,8A28.7,28.7,0,0,1,1038.88,262.76Zm-21.58,23.08q3.5-2.76,3.5-8.28t-3.5-8.34a11.41,11.41,0,0,0-7.23-2.82H995v22.2h15.19A11.41,11.41,0,0,0,1017.3,285.84Z"/>
    <path class="cls-4" d="M1051.05,317a6.38,6.38,0,0,1,3.68-3.32,25,25,0,0,1,7.72-.88c3.49,0,6,.8,7.59,2.38s2.35,4.1,2.35,7.53v2a39.62,39.62,0,0,1-.18,4.45,11.46,11.46,0,0,1-1.15,3.45q-1.92,3.63-9.22,3.63t-9.64-2.44q-2.35-2.44-2.35-9.47A17.33,17.33,0,0,1,1051.05,317Zm16.16-14.61a30.33,30.33,0,0,1-12.3,0,4.88,4.88,0,0,1-3.19-2.26,8.67,8.67,0,0,1-1.09-2.88,30.2,30.2,0,0,1-.18-3.89V253.6a31.83,31.83,0,0,1,.18-3.95,8,8,0,0,1,1.15-2.94,5.33,5.33,0,0,1,3.25-2.32,27.75,27.75,0,0,1,12.3,0,5,5,0,0,1,3.19,2.38,9.32,9.32,0,0,1,1.09,3,31.72,31.72,0,0,1,.18,3.95v39.76a30,30,0,0,1-.18,3.88,7.73,7.73,0,0,1-1.15,2.83A5.25,5.25,0,0,1,1067.21,302.39Z"/>
  </g>
  <g>
    <g>
      <path class="cls-5" d="M941.17,958.5H787.32a33.86,33.86,0,0,1-33.36-28L690.47,568.82a33.86,33.86,0,0,1,33.36-39.71h280.79A33.86,33.86,0,0,1,1038,568.82L974.53,930.49A33.86,33.86,0,0,1,941.17,958.5Z"/>
      <rect class="cls-4" x="683.5" y="497.23" width="355" height="31.87" rx="15.94"/>
      <rect class="cls-5" x="717.34" y="479.36" width="293.77" height="17.87" rx="8.94"/>
      <path class="cls-5" d="M895.78,459.5H837.52a7.14,7.14,0,0,0-7.12,7.12v10.85a7.12,7.12,0,0,0,14.24,0v-3.73h44v3.73a7.12,7.12,0,1,0,14.24,0V466.62A7.14,7.14,0,0,0,895.78,459.5Z"/>
      <rect class="cls-6" x="692.18" y="741.17" width="351.5" height="24.42" rx="11.15" transform="translate(114.54 1621.31) rotate(-90)"/>
      <rect class="cls-6" x="773.6" y="576.16" width="24.42" height="355.97" rx="12.04" transform="translate(-119.17 148.14) rotate(-10.01)"/>
      <path class="cls-6" d="M988.48,592.3,933.22,919.55a12.08,12.08,0,0,1-13.88,9.87l-.33-.06a12.07,12.07,0,0,1-9.87-13.87l55.27-327.26a12.06,12.06,0,0,1,13.88-9.86l.32,0A12.08,12.08,0,0,1,988.48,592.3Z"/>
    </g>
    <path class="cls-4" d="M840.51,750.22c2.23-9.89,5.59-24.74-6.86-34.83C817.42,702.24,781.52,703,768.92,717c-9.45,10.49-2.61,24.87,1.67,33.85,5.15,10.82,20.52,34.68,39,35C831.92,786.18,840.08,752.09,840.51,750.22Z"/>
    <path class="cls-4" d="M807.65,671.86c.22-.53,2-5.12-1.39-6.29-10.27-3.5-59.06,27-56.31,30.91C752.47,700.09,801.88,685.83,807.65,671.86Z"/>
    <path class="cls-4" d="M794.83,729c-.87,1.93-15.3,1.16-27.37-6.79-11.26-7.42-18.16-19.57-17-21,.65-.81,3.91,2.08,11.42,7.31C783.22,723.45,795.68,727.12,794.83,729Z"/>
    <path class="cls-4" d="M786.82,737.66c-.87,1.93-15.3,1.16-27.37-6.79-11.26-7.42-18.16-19.57-17-21,.65-.81,3.91,2.08,11.42,7.31C775.21,732.1,787.67,735.77,786.82,737.66Z"/>
    <circle class="cls-3" cx="794.87" cy="760.21" r="7.84"/>
    <circle class="cls-3" cx="809.82" cy="767.88" r="13.75"/>
    <path class="cls-4" d="M891.22,748.81c-2.15-9.89-5.37-24.74,6.57-34.83,15.58-13.15,50-12.38,62.11,1.61,9.07,10.48,2.5,24.87-1.6,33.85-4.94,10.82-19.69,34.68-37.46,35C899.46,784.77,891.62,750.68,891.22,748.81Z"/>
    <path class="cls-4" d="M922.74,670.44c-.21-.52-2-5.11,1.33-6.28,9.86-3.51,56.66,27,54,30.91C975.68,698.68,928.27,684.41,922.74,670.44Z"/>
    <path class="cls-4" d="M935,727.59c.84,1.93,14.67,1.17,26.25-6.78,10.81-7.42,17.43-19.58,16.35-21-.63-.82-3.75,2.08-11,7.31C946.18,722,934.22,725.7,935,727.59Z"/>
    <path class="cls-4" d="M942.72,736.24c.84,1.94,14.68,1.17,26.26-6.78,10.81-7.42,17.43-19.58,16.34-21-.62-.82-3.75,2.08-11,7.31C953.87,730.68,941.91,734.35,942.72,736.24Z"/>
    <ellipse class="cls-3" cx="935" cy="760.21" rx="7.53" ry="7.84"/>
    <ellipse class="cls-3" cx="918.05" cy="766.11" rx="13.19" ry="13.75"/>
    <ellipse class="cls-7" cx="867.93" cy="856.14" rx="13.13" ry="6.98"/>
    <path class="cls-8" d="M780.9,776.6a.08.08,0,0,0-.13,0c-1.12,1.11-14.81,14.6-10.72,23.75a10.22,10.22,0,0,0,8.16,5.87c4.86.34,9.46-3.58,10.36-7C790.56,791.75,781.84,777.69,780.9,776.6Z"/>
    <path class="cls-8" d="M771.45,759.55a.08.08,0,0,0-.11,0c-1.21.6-16,7.84-15.18,16.39a8.79,8.79,0,0,0,5,7c3.85,1.59,8.66-.35,10.32-2.87C775.18,774.5,771.92,760.7,771.45,759.55Z"/>
    <path class="cls-8" d="M956.06,766.94a.07.07,0,0,1,.12,0c1.07,1.11,14.11,14.6,10.21,23.75-1.15,2.72-4.14,5.61-7.77,5.87-4.63.34-9-3.59-9.87-7C946.85,782.09,955.16,768,956.06,766.94Z"/>
    <path class="cls-8" d="M965.06,749.89a.07.07,0,0,1,.1,0c1.16.6,15.26,7.83,14.46,16.39a8.75,8.75,0,0,1-4.79,7,8.53,8.53,0,0,1-9.84-2.86C961.51,764.84,964.62,751,965.06,749.89Z"/>
    <ellipse class="cls-7" cx="867.93" cy="824.58" rx="36.88" ry="13.93"/>
  </g>
  <path class="cls-9" d="M1265.41,735.66c-2.25,0-4.1-4.2-4.1-9.34V464.87c0-5.14,1.85-9.34,4.1-9.34s4.09,4.2,4.09,9.34V726.32C1269.5,731.46,1267.66,735.66,1265.41,735.66Z"/>
  <path class="cls-9" d="M1422.91,710.24c-1.56,0-2.84-2.71-2.84-6V535.82c0-3.31,1.28-6,2.84-6s2.85,2.7,2.85,6v168.4C1425.76,707.53,1424.48,710.24,1422.91,710.24Z"/>
  <path class="cls-9" d="M1544.39,746.09c-2.21,0-4-4-4-8.85V489.32c0-4.87,1.81-8.85,4-8.85s4,4,4,8.85V737.24C1548.41,742.11,1546.6,746.09,1544.39,746.09Z"/>
  <path class="cls-9" d="M1147.9,707.7c-1.06,0-1.93-2-1.93-4.51V577.06c0-2.48.87-4.51,1.93-4.51s1.94,2,1.94,4.51V703.19C1149.84,705.67,1149,707.7,1147.9,707.7Z"/>
  <path class="cls-10" d="M483.61,690.94c-30.64-75.49-10.2-165.72-5.06-187.33C490.34,454,500.24,430.72,514,430.76c16.45.05,28.89,41.26,38.48,87.26,10.39,49.77,9.62,76.24,8.11,92.86-.83,9.08-4,38.41-22.29,72-7.18,13.2-19.1,35.13-32.41,34.43C495.48,716.81,488.36,702.64,483.61,690.94Z"/>
  <g>
    <rect class="cls-1" x="505.1" y="550.11" width="6.04" height="228.96" rx="2.82"/>
    <path class="cls-1" d="M510,617.42h0a6.73,6.73,0,0,0,0-6.32l-18-30c-1-1.74-2.75-1.74-3.8,0h0a6.79,6.79,0,0,0,0,6.32l18,30C507.22,619.16,508.93,619.16,510,617.42Z"/>
    <path class="cls-1" d="M509.62,675.55,510,675a6.2,6.2,0,0,0,0-5.77L484.55,627c-1-1.59-2.52-1.59-3.47,0l-.33.54a6.2,6.2,0,0,0,0,5.77l25.4,42.29C507.11,677.13,508.67,677.13,509.62,675.55Z"/>
    <path class="cls-1" d="M506.76,596.25h0c.93,1.91,2.63,2.21,3.77.66L522,581.46a6.68,6.68,0,0,0,.4-6.28h0c-.93-1.91-2.63-2.21-3.78-.66L507.16,590A6.68,6.68,0,0,0,506.76,596.25Z"/>
    <path class="cls-1" d="M507.49,650h0c.92,1.91,2.62,2.21,3.77.66l19.82-26.71a6.68,6.68,0,0,0,.39-6.28h0c-.92-1.91-2.62-2.21-3.77-.66L507.88,643.7A6.68,6.68,0,0,0,507.49,650Z"/>
  </g>
  <path class="cls-10" d="M313.56,751.88c-24.77-58.46-8.24-128.36-4.09-145.09,9.54-38.46,17.54-56.45,28.66-56.42,13.3,0,23.36,32,31.12,67.58,8.4,38.55,7.77,59,6.55,71.93-.67,7-3.22,29.74-18,55.8-5.81,10.22-15.45,27.2-26.21,26.66C323.16,771.92,317.4,760.94,313.56,751.88Z"/>
  <g>
    <rect class="cls-1" x="330.94" y="642.81" width="4.88" height="177.33" rx="2.23"/>
    <path class="cls-1" d="M334.88,694.94h0a5.06,5.06,0,0,0,0-4.89L320.3,666.8a1.67,1.67,0,0,0-3.07,0h0a5.08,5.08,0,0,0,0,4.9l14.58,23.24A1.67,1.67,0,0,0,334.88,694.94Z"/>
    <path class="cls-1" d="M334.59,740l.27-.43a4.59,4.59,0,0,0,0-4.46l-20.54-32.75a1.52,1.52,0,0,0-2.8,0l-.27.42a4.61,4.61,0,0,0,0,4.47L331.79,740A1.52,1.52,0,0,0,334.59,740Z"/>
    <path class="cls-1" d="M332.28,678.55h0c.75,1.48,2.13,1.71,3.05.51l9.27-12a5,5,0,0,0,.32-4.87h0c-.75-1.48-2.12-1.71-3.05-.51l-9.27,12A5,5,0,0,0,332.28,678.55Z"/>
    <path class="cls-1" d="M332.87,720.16h0c.75,1.48,2.12,1.71,3.05.51l16-20.69a5,5,0,0,0,.32-4.86h0c-.75-1.48-2.12-1.71-3.05-.52l-16,20.69A5,5,0,0,0,332.87,720.16Z"/>
  </g>
  <path class="cls-10" d="M425.87,659.85c5.52-2.7,12.91-1,18.14.06,28.06,5.87,27.83,91.91,27.75,120.85-.1,36.42-4.67,45.43-11.44,50.64-14.83,11.44-41.63,5.72-56.91-7.7-24.11-21.19-17.65-60-12.84-88.89C393.55,717,397,674,425.87,659.85Z"/>
  <g>
    <rect class="cls-1" x="343.4" y="806.28" width="175.81" height="5.63" rx="2.82" transform="translate(-379.25 1237.66) rotate(-89.81)"/>
    <path class="cls-1" d="M429.7,772.87h0a4.42,4.42,0,0,1,0-4.86l16.89-23a2.07,2.07,0,0,1,3.54,0h0a4.41,4.41,0,0,1,0,4.85l-16.89,23A2.07,2.07,0,0,1,429.7,772.87Z"/>
    <path class="cls-1" d="M429.87,817.5l-.3-.42a4,4,0,0,1,0-4.43l23.8-32.39a1.89,1.89,0,0,1,3.23,0l.31.42a4,4,0,0,1,0,4.43l-23.79,32.39A1.89,1.89,0,0,1,429.87,817.5Z"/>
    <path class="cls-1" d="M432.75,756.62h0a2.08,2.08,0,0,1-3.52.5l-10.65-11.9a4.37,4.37,0,0,1-.36-4.83h0a2.08,2.08,0,0,1,3.52-.49l10.65,11.9A4.35,4.35,0,0,1,432.75,756.62Z"/>
    <path class="cls-1" d="M431.93,797.88h0a2.08,2.08,0,0,1-3.52.49L410,777.8a4.38,4.38,0,0,1-.35-4.83h0a2.08,2.08,0,0,1,3.52-.49l18.41,20.57A4.38,4.38,0,0,1,431.93,797.88Z"/>
  </g>
</svg>
