<svg id="Layer_1" data-name="Layer 1" xmlns="http://www.w3.org/2000/svg" width="162.66" height="162.66" viewBox="0 0 162.66 162.66">
  <defs>
    <style>
      .cls-1 {
        fill: #aad4c7;
      }

      .cls-2 {
        fill: #fff;
      }
    </style>
  </defs>
  <title>tryagain</title>
  <circle class="cls-1" cx="81.33" cy="81.33" r="81.33"/>
  <g>
    <path class="cls-2" d="M50.24,43.55H68.91a3.86,3.86,0,0,1,1.58.25,1.28,1.28,0,0,1,.67.79A4.93,4.93,0,0,1,71.33,46a4.76,4.76,0,0,1-.17,1.4,1.17,1.17,0,0,1-.57.72,3.94,3.94,0,0,1-1.71.3H62.46V65.31a9.94,9.94,0,0,1-.05,1.14,2.53,2.53,0,0,1-.3.86,1.45,1.45,0,0,1-.89.69,5.93,5.93,0,0,1-1.68.2,5.68,5.68,0,0,1-1.66-.2,1.41,1.41,0,0,1-.87-.69,2.87,2.87,0,0,1-.31-.87,10.75,10.75,0,0,1-.05-1.16V48.42H50.21a3.67,3.67,0,0,1-1.58-.25,1.25,1.25,0,0,1-.67-.79A4.6,4.6,0,0,1,47.79,46,4.37,4.37,0,0,1,48,44.58a1.16,1.16,0,0,1,.57-.73A3.91,3.91,0,0,1,50.24,43.55Z"/>
    <path class="cls-2" d="M92,64a5.2,5.2,0,0,1,.51,1.74c0,.85-.7,1.57-2.09,2.15a4.64,4.64,0,0,1-1.73.47,1.74,1.74,0,0,1-1.07-.32,2.34,2.34,0,0,1-.62-.65c-.23-.43-1.1-2.45-2.62-6.08l-1,.07H79.12v3.79a10.62,10.62,0,0,1-.05,1.16,2.84,2.84,0,0,1-.32.89c-.32.6-1.19.91-2.62.91s-2.49-.42-2.75-1.25a5.37,5.37,0,0,1-.21-1.74V46.54a10.75,10.75,0,0,1,0-1.16,2.84,2.84,0,0,1,.32-.89c.32-.6,1.19-.9,2.62-.9h7.26a9.31,9.31,0,0,1,5.74,2.14,8,8,0,0,1,2.21,2.82,8.8,8.8,0,0,1,.88,4,8.32,8.32,0,0,1-2.52,6.24Q90.47,60.55,92,64ZM79.12,55.47h4.3a3.17,3.17,0,0,0,1.94-.74,2.6,2.6,0,0,0,1-2.21,2.67,2.67,0,0,0-1-2.24,3.26,3.26,0,0,0-2-.75H79.12Z"/>
    <path class="cls-2" d="M113.23,44.05c1.1.77,1.65,1.5,1.65,2.22a3.65,3.65,0,0,1-.77,1.78L106.85,58.9v6.41a8.55,8.55,0,0,1,0,1.16,2.79,2.79,0,0,1-.31.89,1.46,1.46,0,0,1-.91.7,7.11,7.11,0,0,1-3.43,0,1.44,1.44,0,0,1-.9-.72,2.73,2.73,0,0,1-.32-.9,9,9,0,0,1-.05-1.2V58.9L93.62,48.05a3.65,3.65,0,0,1-.77-1.78c0-.72.49-1.4,1.48-2.06a4.79,4.79,0,0,1,2.11-1,1.66,1.66,0,0,1,1,.26,4.51,4.51,0,0,1,1.21,1.38l5.21,8.33,5.2-8.33a5,5,0,0,1,1.11-1.33,1.91,1.91,0,0,1,1.09-.31A4.5,4.5,0,0,1,113.23,44.05Z"/>
    <path class="cls-2" d="M42.8,85.63l9.07,18.74a4.37,4.37,0,0,1,.57,1.71c0,.8-.65,1.53-1.95,2.18a4.4,4.4,0,0,1-1.8.57,1.8,1.8,0,0,1-1.07-.3,1.88,1.88,0,0,1-.6-.64c-.13-.22-.3-.56-.53-1l-1.74-3.62h-9.3l-1.75,3.62c-.22.45-.4.78-.52,1a2.29,2.29,0,0,1-.6.62,1.75,1.75,0,0,1-1.08.32,4.44,4.44,0,0,1-1.8-.57c-1.29-.63-1.94-1.35-1.94-2.15a4.37,4.37,0,0,1,.57-1.71L37.4,85.59a3,3,0,0,1,1.12-1.24,3,3,0,0,1,1.59-.47A2.84,2.84,0,0,1,42.8,85.63Zm-2.72,8.06-2.22,4.6h4.47Z"/>
    <path class="cls-2" d="M67.11,93.65H73c1.21,0,2,.36,2.22.94a4.25,4.25,0,0,1,.33,1.88v7.39a3,3,0,0,1-.93,2q-2.83,2.93-8.47,2.92a11.76,11.76,0,0,1-8.69-3.78,12.51,12.51,0,0,1-3.7-9.11A11.8,11.8,0,0,1,57.54,87a12.46,12.46,0,0,1,16.36-1,1.89,1.89,0,0,1,.9,1.5,3.38,3.38,0,0,1-.77,1.9c-.87,1.18-1.67,1.78-2.38,1.78a4.57,4.57,0,0,1-2.05-.93,6,6,0,0,0-3.36-.92,6.54,6.54,0,0,0-4.53,1.8,6,6,0,0,0-2,4.7,6.75,6.75,0,0,0,2,4.93,6.24,6.24,0,0,0,4.57,2,8.73,8.73,0,0,0,3.32-.6V98.59H67a3,3,0,0,1-1.48-.27,1.26,1.26,0,0,1-.57-.79,5.81,5.81,0,0,1-.13-1.41A5.53,5.53,0,0,1,65,94.69,1.09,1.09,0,0,1,65.5,94,3.5,3.5,0,0,1,67.11,93.65Z"/>
    <path class="cls-2" d="M92.47,85.63l9.06,18.74a4.37,4.37,0,0,1,.57,1.71c0,.8-.65,1.53-1.94,2.18a4.4,4.4,0,0,1-1.8.57,1.81,1.81,0,0,1-1.08-.3,1.88,1.88,0,0,1-.6-.64c-.12-.22-.3-.56-.52-1l-1.75-3.62h-9.3l-1.74,3.62c-.23.45-.4.78-.52,1a2.52,2.52,0,0,1-.61.62,1.74,1.74,0,0,1-1.07.32,4.4,4.4,0,0,1-1.8-.57c-1.3-.63-2-1.35-2-2.15a4.37,4.37,0,0,1,.57-1.71l9.07-18.78a3.1,3.1,0,0,1,2.72-1.71A2.85,2.85,0,0,1,92.47,85.63Zm-2.72,8.06-2.22,4.6H92Z"/>
    <path class="cls-2" d="M104,86.84a10.62,10.62,0,0,1,0-1.16,2.54,2.54,0,0,1,.32-.89c.31-.61,1.19-.91,2.62-.91s2.5.42,2.79,1.24a6.94,6.94,0,0,1,.16,1.75v18.67a8.61,8.61,0,0,1,0,1.18,2.68,2.68,0,0,1-.32.87c-.31.6-1.18.91-2.62.91s-2.48-.43-2.75-1.28a5.42,5.42,0,0,1-.2-1.71Z"/>
    <path class="cls-2" d="M128.48,84.91a1.54,1.54,0,0,1,1-.79,5.13,5.13,0,0,1,1.59-.2,5.94,5.94,0,0,1,1.55.16,2.52,2.52,0,0,1,.87.41,1.35,1.35,0,0,1,.42.7,5.42,5.42,0,0,1,.2,1.71v18.64a10.64,10.64,0,0,1,0,1.18,2.68,2.68,0,0,1-.32.87c-.31.6-1.18.91-2.62.91a5.63,5.63,0,0,1-1.81-.2,2,2,0,0,1-.84-.64q-7.56-10.08-9.94-13.17v11.05a10.64,10.64,0,0,1,0,1.18,2.68,2.68,0,0,1-.32.87c-.31.6-1.19.91-2.62.91s-2.24-.31-2.55-.91a2.62,2.62,0,0,1-.32-.91,11.11,11.11,0,0,1,0-1.17V86.77a4.11,4.11,0,0,1,.32-1.86,1.54,1.54,0,0,1,1-.79,5.35,5.35,0,0,1,1.64-.2,5.73,5.73,0,0,1,1.6.18,2,2,0,0,1,.82.42,8.86,8.86,0,0,1,.77.87q7.08,9.64,9.47,12.73V86.77A4.11,4.11,0,0,1,128.48,84.91Z"/>
  </g>
</svg>
