<svg id="Layer_1" data-name="Layer 1" xmlns="http://www.w3.org/2000/svg" width="67.67" height="177.36" viewBox="0 0 67.67 177.36">
  <defs>
    <style>
      .cls-1 {
        fill: #5e9370;
      }

      .cls-2 {
        fill: #264933;
      }

      .cls-3 {
        fill: #8dbc91;
      }

      .cls-4 {
        fill: #f26868;
      }

      .cls-5 {
        fill: #efa5a5;
      }

      .cls-6 {
        fill: #ea8383;
      }
    </style>
  </defs>
  <title>tulip</title>
  <g>
    <rect class="cls-1" x="31.87" y="62.88" width="5.93" height="99.22" rx="2.96"/>
    <path class="cls-2" d="M32.56,165.2c-3.38-2.6-8.82-21.58-10.61-35.76-2.15-17.1.58-30.63,4.28-26.28,3.41,4,7.55,23.21,8.93,36.17C36.58,152.61,36,167.89,32.56,165.2Z"/>
    <path class="cls-3" d="M34.75,167c-2.86-4-1.76-26,1.68-41.53,4.15-18.75,12.53-31.94,15.09-26,2.36,5.5-.33,27.2-3.76,41.33C44.25,155.28,37.7,171.12,34.75,167Z"/>
    <path class="cls-4" d="M13.93,16.27C5.5,20.91,5.79,43,15.54,56.21c.85,1.16,10.54,13.94,20,11.2,8.57-2.47,12.24-16.25,10.51-26.12C43.07,24.3,22.69,11.46,13.93,16.27Z"/>
    <path class="cls-5" d="M53.56,15.75c8.19,4.15,8.52,26.17-.44,39.84C52.34,56.79,43.43,70,34.3,67.84c-8.26-2-12.15-15.5-10.77-25.41C25.93,25.34,45.05,11.44,53.56,15.75Z"/>
    <path class="cls-6" d="M35.85,69.73c-5.7.77-13.77-13.31-15-26.75C19.41,27.64,26.6,10.15,34.25,9.7c4.87-.28,8.85,6.4,9.9,8.16,4.79,8,7.53,17.63,5.31,28.86C47,59.41,40.53,69.1,35.85,69.73Z"/>
  </g>
</svg>
