<svg id="Layer_1" data-name="Layer 1" xmlns="http://www.w3.org/2000/svg" width="286.46" height="301.53" viewBox="0 0 286.46 301.53">
  <defs>
    <style>
      .cls-1 {
        fill: #fcfcfc;
      }
    </style>
  </defs>
  <title>windmill2</title>
  <g>
    <ellipse class="cls-1" cx="143.53" cy="151.33" rx="13.92" ry="14.43"/>
    <path class="cls-1" d="M142.76,151.34c-6.87-81.29-3.1-140.25,12.17-144,.89-.22,6.36-1.57,9.93,5.18C175.14,32,158.65,97.81,142.76,151.34Z"/>
    <path class="cls-1" d="M142.76,151.34C214,186,261.33,219,256.8,234.58c-.27.91-1.89,6.49-9.32,6.3C226.09,240.33,179.44,192.46,142.76,151.34Z"/>
    <path class="cls-1" d="M142.76,151.34c-65.17,45.79-116.7,71.07-127.3,59.08-.62-.71-4.42-5-.47-11.52C26.38,180.13,89.91,163,142.76,151.34Z"/>
  </g>
</svg>
