<svg id="Layer_1" data-name="Layer 1" xmlns="http://www.w3.org/2000/svg" width="281.04" height="296.43" viewBox="0 0 281.04 296.43">
  <defs>
    <style>
      .cls-1 {
        fill: #fcfcfc;
      }
    </style>
  </defs>
  <title>windmill1</title>
  <g>
    <circle class="cls-1" cx="140.13" cy="146.72" r="13.68"/>
    <path class="cls-1" d="M139.89,147.44c-75-18.92-126.61-40.78-125.06-56.12.09-.9.65-6.4,7.85-7.61C43.41,80.21,97.07,116,139.89,147.44Z"/>
    <path class="cls-1" d="M139.89,147.44c54.05-55.37,98.87-89,111.35-79.94.73.53,5.21,3.77,2.64,10.6C246.49,97.79,188.56,126.2,139.89,147.44Z"/>
    <path class="cls-1" d="M139.89,147.44c20,74.75,26,130.46,11.84,136.57-.83.35-5.9,2.54-10.46-3.15C128.12,264.44,133.29,200.13,139.89,147.44Z"/>
  </g>
</svg>
