<svg id="Layer_1" data-name="Layer 1" xmlns="http://www.w3.org/2000/svg" width="1920" height="1080" viewBox="0 0 1920 1080">
  <defs>
    <style>
      .cls-1 {
        fill: #ede4d9;
      }

      .cls-2, .cls-5, .cls-6, .cls-9 {
        fill: #fff;
      }

      .cls-2 {
        opacity: 0.3;
      }

      .cls-14, .cls-3, .cls-4 {
        fill: #c1bcce;
      }

      .cls-3 {
        opacity: 0.28;
      }

      .cls-20, .cls-4, .cls-6 {
        opacity: 0.5;
      }

      .cls-22, .cls-5 {
        opacity: 0.8;
      }

      .cls-7 {
        fill: #c8c2d0;
      }

      .cls-8 {
        fill: #bab9b9;
      }

      .cls-10 {
        fill: #9e9e9e;
      }

      .cls-11 {
        fill: #fcfcfc;
      }

      .cls-12 {
        fill: #edb291;
      }

      .cls-13 {
        fill: #cfb38f;
      }

      .cls-15 {
        fill: #eac5b4;
      }

      .cls-16 {
        fill: #d6d4d4;
      }

      .cls-17 {
        fill: #c8c1d1;
      }

      .cls-18 {
        fill: #aad4c7;
      }

      .cls-19, .cls-20 {
        fill: #616e7d;
      }

      .cls-21, .cls-22 {
        fill: #efa5a5;
      }

      .cls-21 {
        opacity: 0.9;
      }
    </style>
  </defs>
  <title>background</title>
  <rect class="cls-1" width="1920" height="1080"/>
  <ellipse class="cls-2" cx="479" cy="642.58" rx="405" ry="397.56"/>
  <circle class="cls-3" cx="1285" cy="627" r="534"/>
  <path class="cls-4" d="M571.77,358.17h2c3.36-23.15,34.19-41.28,71.73-41.28A106.41,106.41,0,0,1,680,322.43c10.11-22.31,39.15-38.43,73.4-38.43,36.36,0,66.85,18.17,75,42.64.84,0,1.68-.05,2.53-.05,25.26,0,46,13.81,48.82,31.58h5.67c20.31,0,36.77,16.77,36.77,37.46h0c0,20.68-16.46,37.45-36.77,37.45H571.77c-20.31,0-36.77-16.77-36.77-37.45h0C535,374.94,551.46,358.17,571.77,358.17Z"/>
  <path class="cls-5" d="M1363.44,422.19H1362c-2.52-19.73-25.63-35.17-53.77-35.17a71.08,71.08,0,0,0-25.85,4.72c-7.58-19-29.34-32.74-55-32.74-27.26,0-50.11,15.48-56.25,36.33-.63,0-1.27,0-1.9,0-18.93,0-34.52,11.76-36.6,26.9h-4.24c-15.23,0-27.57,14.28-27.57,31.9h0c0,17.63,12.34,31.91,27.57,31.91h235.11c15.22,0,27.56-14.28,27.56-31.91h0C1391,436.47,1378.66,422.19,1363.44,422.19Z"/>
  <path class="cls-6" d="M337.32,337.26h-1.05c-1.8-15.38-18.3-27.42-38.4-27.42a47.17,47.17,0,0,0-18.46,3.68C274,298.7,258.46,288,240.13,288c-19.46,0-35.78,12.07-40.17,28.32-.45,0-.9,0-1.36,0-13.51,0-24.64,9.17-26.12,21h-3c-10.87,0-19.68,11.13-19.68,24.87h0c0,13.73,8.81,24.87,19.68,24.87H337.32c10.87,0,19.68-11.14,19.68-24.87h0C357,348.39,348.19,337.26,337.32,337.26Z"/>
  <path class="cls-7" d="M1583.68,527.27h-1.19c-2-14.44-20.75-25.75-43.54-25.75A62.82,62.82,0,0,0,1518,505c-6.13-13.92-23.76-24-44.54-24-22.08,0-40.58,11.34-45.55,26.6-.51,0-1,0-1.54,0-15.33,0-28,8.62-29.63,19.7h-3.44c-12.33,0-22.32,10.46-22.32,23.37h0c0,12.9,10,23.36,22.32,23.36h190.36c12.33,0,22.32-10.46,22.32-23.36h0C1606,537.73,1596,527.27,1583.68,527.27Z"/>
  <rect class="cls-1" x="348.99" y="871" width="1110.59" height="74.09" rx="37.04"/>
  <path class="cls-8" d="M1401.1,571.77,1251,859.4c-14.79,28.35,5.77,62.27,37.74,62.27h300.2c32,0,52.53-33.92,37.74-62.27l-150.1-287.63C1460.67,541.27,1417,541.27,1401.1,571.77Z"/>
  <path class="cls-9" d="M1399,566.83c7.37-12,44.36-52.89,78.48-1.71s-6.82,47.77-16.21,35c0,0-24.73,60.56-38.38.85C1422.9,601,1355.51,637.63,1399,566.83Z"/>
  <path class="cls-10" d="M1198.74,629.15,1074.13,839.53c-13.23,22.34,2.87,50.58,28.83,50.58h249.21c26,0,42.06-28.24,28.83-50.58L1256.39,629.15A33.5,33.5,0,0,0,1198.74,629.15Z"/>
  <path class="cls-9" d="M1191.52,632.51c7.24-10.54,33.91-47.58,67.42-2.56s-7.39,37.7-16.61,26.44c3.27-1.88-13.66,48.69-32.24-.85C1210.09,655.54,1148.8,694.79,1191.52,632.51Z"/>
  <rect class="cls-11" x="697" y="868.77" width="970.3" height="54.23" rx="27.12"/>
  <g>
    <path class="cls-12" d="M956.24,822.73c-20.18-49.72-6.72-109.16-3.34-123.39,7.78-32.71,14.29-48,23.36-48,10.83,0,19,27.18,25.35,57.48,6.84,32.79,6.33,50.22,5.34,61.17a123.2,123.2,0,0,1-14.68,47.46c-4.73,8.7-12.59,23.14-21.35,22.68C964.06,839.78,959.37,830.44,956.24,822.73Z"/>
    <g>
      <rect class="cls-13" x="970.39" y="729.97" width="3.98" height="150.82" rx="1.86"/>
      <path class="cls-13" d="M973.61,774.31h0a4.52,4.52,0,0,0,0-4.17l-11.88-19.77a1.34,1.34,0,0,0-2.5,0h0a4.46,4.46,0,0,0,0,4.17l11.87,19.77A1.35,1.35,0,0,0,973.61,774.31Z"/>
      <path class="cls-13" d="M973.37,812.6l.22-.37a4.06,4.06,0,0,0,0-3.8l-16.73-27.85a1.23,1.23,0,0,0-2.29,0l-.21.36a4.06,4.06,0,0,0,0,3.8l16.73,27.86A1.22,1.22,0,0,0,973.37,812.6Z"/>
      <path class="cls-13" d="M971.49,760.36h0c.61,1.26,1.73,1.46,2.49.44l7.55-10.18a4.43,4.43,0,0,0,.26-4.14h0c-.61-1.26-1.73-1.45-2.49-.43l-7.55,10.17A4.41,4.41,0,0,0,971.49,760.36Z"/>
      <path class="cls-13" d="M972,795.75h0c.61,1.26,1.73,1.46,2.48.44l13.06-17.6a4.41,4.41,0,0,0,.26-4.13h0c-.61-1.26-1.73-1.46-2.49-.44l-13,17.59A4.41,4.41,0,0,0,972,795.75Z"/>
    </g>
  </g>
  <g>
    <path class="cls-12" d="M817.47,856.28c-14.68-34.64-4.88-76-2.42-86,5.65-22.79,10.39-33.45,17-33.43,7.88,0,13.84,18.93,18.44,40,5,22.85,4.61,35,3.88,42.62a82.81,82.81,0,0,1-10.67,33.07c-3.44,6.06-9.15,16.12-15.53,15.8C823.16,868.16,819.75,861.65,817.47,856.28Z"/>
    <g>
      <rect class="cls-13" x="827.77" y="791.65" width="2.89" height="105.08" rx="1.32"/>
      <path class="cls-13" d="M830.1,822.54h0a3,3,0,0,0,0-2.9l-8.63-13.77a1,1,0,0,0-1.82,0h0a3,3,0,0,0,0,2.9l8.64,13.77A1,1,0,0,0,830.1,822.54Z"/>
      <path class="cls-13" d="M829.94,849.22l.15-.25a2.72,2.72,0,0,0,0-2.65l-12.17-19.4a.9.9,0,0,0-1.66,0l-.16.25a2.75,2.75,0,0,0,0,2.64l12.18,19.41A.9.9,0,0,0,829.94,849.22Z"/>
      <path class="cls-13" d="M828.57,812.83h0c.44.88,1.25,1,1.8.3l5.5-7.09a3,3,0,0,0,.19-2.88h0c-.45-.88-1.26-1-1.81-.31l-5.49,7.1A2.94,2.94,0,0,0,828.57,812.83Z"/>
      <path class="cls-13" d="M828.91,837.49h0c.45.87,1.26,1,1.81.3l9.5-12.26a3,3,0,0,0,.19-2.88h0c-.45-.88-1.26-1-1.81-.31l-9.5,12.26A3,3,0,0,0,828.91,837.49Z"/>
    </g>
  </g>
  <path class="cls-14" d="M409,762.94c36.18-1.74,66.21,54,72.07,73.19,3-20.15,16.34-73.81,32.37-72.1,13.8,1.47-23,62.08-31.34,75.61v46.8a1.19,1.19,0,0,1-2.34,0V839.51C464.24,828.26,377.65,764.44,409,762.94Z"/>
  <path class="cls-15" d="M388.77,811.35c30.24-1.54,55.35,47.81,60.24,64.83,2.5-17.84,13.67-65.37,27.07-63.86,11.53,1.29-19.19,55-26.2,67v41.46a1,1,0,0,1-2,0V879.18C434.93,869.21,362.55,812.68,388.77,811.35Z"/>
  <path class="cls-14" d="M79.31,175.86h1.36c2.34-18.06,23.75-32.2,49.83-32.2A66.41,66.41,0,0,1,154.45,148c7-17.41,27.19-30,51-30,25.27,0,46.44,14.18,52.13,33.26l1.77,0c17.54,0,32,10.77,33.91,24.63h3.93c14.11,0,25.55,13.08,25.55,29.22h0c0,16.13-11.44,29.22-25.55,29.22H79.31c-14.11,0-25.55-13.09-25.55-29.22h0C53.76,188.94,65.2,175.86,79.31,175.86Z"/>
  <g>
    <path class="cls-12" d="M905.42,718.13c4.45-2.17,10.41-.83,14.62,0,22.61,4.73,22.41,74,22.35,97.36-.08,29.34-3.76,36.59-9.21,40.79-11.95,9.21-33.54,4.61-45.85-6.2-19.42-17.07-14.22-48.32-10.34-71.61C879.39,764.14,882.14,729.53,905.42,718.13Z"/>
    <g>
      <rect class="cls-13" x="838.98" y="836.09" width="141.64" height="4.54" rx="2.27" transform="translate(68.37 1745.32) rotate(-89.81)"/>
      <path class="cls-13" d="M908.51,809.18h0a3.54,3.54,0,0,1,0-3.91l13.61-18.52a1.66,1.66,0,0,1,2.85,0h0a3.56,3.56,0,0,1,0,3.91l-13.61,18.52A1.67,1.67,0,0,1,908.51,809.18Z"/>
      <path class="cls-13" d="M908.65,845.14l-.25-.34a3.24,3.24,0,0,1,0-3.57l19.17-26.1a1.52,1.52,0,0,1,2.6,0l.25.34a3.24,3.24,0,0,1,0,3.57l-19.17,26.09A1.52,1.52,0,0,1,908.65,845.14Z"/>
      <path class="cls-13" d="M911,796.09h0a1.68,1.68,0,0,1-2.84.4l-8.58-9.59a3.52,3.52,0,0,1-.29-3.89h0a1.68,1.68,0,0,1,2.84-.39l8.58,9.58A3.52,3.52,0,0,1,911,796.09Z"/>
      <path class="cls-13" d="M910.31,829.32h0a1.68,1.68,0,0,1-2.84.4l-14.83-16.57a3.5,3.5,0,0,1-.28-3.89h0a1.67,1.67,0,0,1,2.83-.4L910,825.44A3.51,3.51,0,0,1,910.31,829.32Z"/>
    </g>
  </g>
  <g>
    <rect class="cls-1" x="1121.45" y="857.89" width="5.33" height="26.22" rx="2.3"/>
    <path class="cls-7" d="M1116.63,820.24l-21.25,29.66a9.19,9.19,0,0,0,7.47,14.54h42.5a9.19,9.19,0,0,0,7.47-14.54l-21.25-29.66A9.2,9.2,0,0,0,1116.63,820.24Z"/>
    <path class="cls-16" d="M1116.93,800.55l-17.58,29.88a8.33,8.33,0,0,0,7.18,12.55h35.15a8.33,8.33,0,0,0,7.18-12.55l-17.58-29.88A8.33,8.33,0,0,0,1116.93,800.55Z"/>
    <path class="cls-9" d="M1118.2,788l-14.28,24.7a6.82,6.82,0,0,0,5.91,10.24h28.55a6.82,6.82,0,0,0,5.9-10.24L1130,788A6.82,6.82,0,0,0,1118.2,788Z"/>
  </g>
  <g>
    <rect class="cls-1" x="1254.08" y="857.49" width="4.9" height="22.05" rx="2.02"/>
    <path class="cls-7" d="M1250.16,825.19,1230.77,850a8.08,8.08,0,0,0,6.36,13.06h38.77a8.08,8.08,0,0,0,6.36-13.06l-19.38-24.76A8.08,8.08,0,0,0,1250.16,825.19Z"/>
    <path class="cls-16" d="M1250.36,808.59l-16.13,25.08a7.32,7.32,0,0,0,6.16,11.28h32.25a7.32,7.32,0,0,0,6.16-11.28l-16.12-25.08A7.32,7.32,0,0,0,1250.36,808.59Z"/>
    <path class="cls-9" d="M1251.45,798.14l-13.11,20.75a6,6,0,0,0,5.07,9.2h26.21a6,6,0,0,0,5.07-9.2l-13.1-20.75A6,6,0,0,0,1251.45,798.14Z"/>
  </g>
  <g>
    <rect class="cls-1" x="1320.08" y="857.49" width="4.9" height="22.05" rx="2.02"/>
    <path class="cls-7" d="M1316.16,825.19,1296.77,850a8.08,8.08,0,0,0,6.36,13.06h38.77a8.08,8.08,0,0,0,6.36-13.06l-19.38-24.76A8.08,8.08,0,0,0,1316.16,825.19Z"/>
    <path class="cls-16" d="M1316.36,808.59l-16.13,25.08a7.32,7.32,0,0,0,6.16,11.28h32.25a7.32,7.32,0,0,0,6.16-11.28l-16.12-25.08A7.32,7.32,0,0,0,1316.36,808.59Z"/>
    <path class="cls-9" d="M1317.45,798.14l-13.11,20.75a6,6,0,0,0,5.07,9.2h26.21a6,6,0,0,0,5.07-9.2l-13.1-20.75A6,6,0,0,0,1317.45,798.14Z"/>
  </g>
  <g>
    <rect class="cls-1" x="1089.5" y="884.86" width="4.01" height="17.69" rx="1.64"/>
    <path class="cls-7" d="M1086.38,858.82l-15.83,19.83a6.54,6.54,0,0,0,5.11,10.63h31.67a6.55,6.55,0,0,0,5.12-10.63l-15.84-19.83A6.55,6.55,0,0,0,1086.38,858.82Z"/>
    <path class="cls-16" d="M1086.54,845.5l-13.2,20.11a5.94,5.94,0,0,0,5,9.19h26.39a5.93,5.93,0,0,0,5-9.19l-13.19-20.11A5.93,5.93,0,0,0,1086.54,845.5Z"/>
    <path class="cls-9" d="M1087.41,837.14l-10.72,16.63a4.86,4.86,0,0,0,4.09,7.5h21.44a4.86,4.86,0,0,0,4.08-7.5l-10.72-16.63A4.86,4.86,0,0,0,1087.41,837.14Z"/>
  </g>
  <g>
    <rect class="cls-1" x="1280.76" y="899.93" width="4.11" height="17.62" rx="1.65"/>
    <path class="cls-7" d="M1277.69,873.84l-16.17,19.68a6.61,6.61,0,0,0,5.11,10.81H1299a6.61,6.61,0,0,0,5.11-10.81l-16.17-19.68A6.61,6.61,0,0,0,1277.69,873.84Z"/>
    <path class="cls-16" d="M1277.83,860.56l-13.49,20a6,6,0,0,0,5,9.35h27a6,6,0,0,0,5-9.35l-13.49-20A6,6,0,0,0,1277.83,860.56Z"/>
    <path class="cls-9" d="M1278.71,852.26l-11,16.55a4.9,4.9,0,0,0,4.09,7.62h21.94a4.9,4.9,0,0,0,4.09-7.62l-11-16.55A4.9,4.9,0,0,0,1278.71,852.26Z"/>
  </g>
  <g>
    <rect class="cls-1" x="1356.08" y="879.49" width="4.9" height="22.05" rx="2.02"/>
    <path class="cls-7" d="M1352.16,847.19,1332.77,872a8.08,8.08,0,0,0,6.36,13.06h38.77a8.08,8.08,0,0,0,6.36-13.06l-19.38-24.76A8.08,8.08,0,0,0,1352.16,847.19Z"/>
    <path class="cls-16" d="M1352.36,830.59l-16.13,25.08a7.32,7.32,0,0,0,6.16,11.28h32.25a7.32,7.32,0,0,0,6.16-11.28l-16.12-25.08A7.32,7.32,0,0,0,1352.36,830.59Z"/>
    <path class="cls-9" d="M1353.45,820.14l-13.11,20.75a6,6,0,0,0,5.07,9.2h26.21a6,6,0,0,0,5.07-9.2l-13.1-20.75A6,6,0,0,0,1353.45,820.14Z"/>
  </g>
  <g>
    <rect class="cls-1" x="1161.08" y="871.49" width="4.9" height="22.05" rx="2.02"/>
    <path class="cls-7" d="M1157.16,839.19,1137.77,864a8.08,8.08,0,0,0,6.36,13.06h38.77a8.08,8.08,0,0,0,6.36-13.06l-19.38-24.76A8.08,8.08,0,0,0,1157.16,839.19Z"/>
    <path class="cls-16" d="M1157.36,822.59l-16.13,25.08a7.32,7.32,0,0,0,6.16,11.28h32.25a7.32,7.32,0,0,0,6.16-11.28l-16.12-25.08A7.32,7.32,0,0,0,1157.36,822.59Z"/>
    <path class="cls-9" d="M1158.45,812.14l-13.11,20.75a6,6,0,0,0,5.07,9.2h26.21a6,6,0,0,0,5.07-9.2l-13.1-20.75A6,6,0,0,0,1158.45,812.14Z"/>
  </g>
  <g>
    <path class="cls-11" d="M1465.15,884c-1,0-1.83-1.88-1.83-4.17V763.16c0-2.29.83-4.17,1.83-4.17s1.83,1.88,1.83,4.17V879.83C1467,882.12,1466.16,884,1465.15,884Z"/>
    <g>
      <ellipse class="cls-11" cx="1465.15" cy="759.37" rx="6.21" ry="6.44"/>
      <path class="cls-11" d="M1464.81,759.38c-3.07-36.28-1.39-62.59,5.43-64.27.39-.09,2.84-.7,4.43,2.32C1479.26,706.1,1471.9,735.49,1464.81,759.38Z"/>
      <path class="cls-11" d="M1464.81,759.38c31.8,15.47,52.91,30.19,50.88,37.14a3.83,3.83,0,0,1-4.15,2.81C1502,799.09,1481.17,777.73,1464.81,759.38Z"/>
      <path class="cls-11" d="M1464.81,759.38c-29.08,20.43-52.08,31.71-56.81,26.36-.28-.31-2-2.23-.21-5.14C1412.87,772.22,1441.22,764.59,1464.81,759.38Z"/>
    </g>
  </g>
  <g>
    <g>
      <ellipse class="cls-11" cx="1535.15" cy="792.15" rx="4.32" ry="4.15"/>
      <path class="cls-11" d="M1535.37,792.24c-7.58,22.29-15.58,37.44-20.39,36.65a2.59,2.59,0,0,1-2.22-2.53C1512.1,820,1524.55,804.53,1535.37,792.24Z"/>
      <path class="cls-11" d="M1535.37,792.24c-16.28-17.5-25.91-31.75-22.78-35.34a2.72,2.72,0,0,1,3.39-.57C1522,759,1529.73,777.08,1535.37,792.24Z"/>
      <path class="cls-11" d="M1535.37,792.24c24-4.5,41.66-5.16,43.28-.75a2.52,2.52,0,0,1-1.22,3.1C1572,798.22,1551.83,795.32,1535.37,792.24Z"/>
    </g>
    <path class="cls-11" d="M1535.44,872.66c-.7,0-1.27-1.21-1.27-2.69V794.82c0-1.47.57-2.68,1.27-2.68s1.27,1.21,1.27,2.68V870C1536.71,871.45,1536.14,872.66,1535.44,872.66Z"/>
  </g>
  <g>
    <g>
      <circle class="cls-11" cx="1589.93" cy="770.33" r="6.11"/>
      <path class="cls-11" d="M1589.82,770.65c-33.48-8.44-56.5-18.2-55.8-25a3.77,3.77,0,0,1,3.5-3.4C1546.77,740.65,1570.72,756.64,1589.82,770.65Z"/>
      <path class="cls-11" d="M1589.82,770.65c24.12-24.7,44.12-39.71,49.69-35.67.33.23,2.32,1.68,1.18,4.73C1637.39,748.49,1611.54,761.17,1589.82,770.65Z"/>
      <path class="cls-11" d="M1589.82,770.65c8.92,33.36,11.61,58.22,5.29,60.94a3.76,3.76,0,0,1-4.67-1.4C1584.57,822.86,1586.88,794.17,1589.82,770.65Z"/>
    </g>
    <path class="cls-11" d="M1589.65,888.66c-1,0-1.8-1.78-1.8-4V774.07c0-2.17.81-4,1.8-4s1.79,1.78,1.79,4V884.7C1591.44,886.88,1590.63,888.66,1589.65,888.66Z"/>
  </g>
  <g>
    <g>
      <ellipse class="cls-11" cx="1412.85" cy="811.32" rx="2.93" ry="3.11"/>
      <path class="cls-11" d="M1412.8,811.48c-16.07-4.29-27.13-9.25-26.79-12.74a1.89,1.89,0,0,1,1.68-1.73C1392.13,796.22,1403.63,804.35,1412.8,811.48Z"/>
      <path class="cls-11" d="M1412.8,811.48c11.58-12.57,21.18-20.2,23.86-18.15a2,2,0,0,1,.56,2.41C1435.64,800.21,1423.23,806.66,1412.8,811.48Z"/>
      <path class="cls-11" d="M1412.8,811.48c4.28,17,5.57,29.62,2.54,31a1.75,1.75,0,0,1-2.25-.71C1410.28,838.05,1411.39,823.45,1412.8,811.48Z"/>
    </g>
    <path class="cls-11" d="M1412.72,871.52c-.48,0-.87-.9-.87-2V813.22c0-1.1.39-2,.87-2s.86.91.86,2v56.29C1413.58,870.62,1413.19,871.52,1412.72,871.52Z"/>
  </g>
  <rect class="cls-17" x="407.23" y="914.35" width="523.77" height="83.65" rx="39.96"/>
  <path class="cls-9" d="M547.46,846.84c-24.18-1.3-44.26,40.62-48.17,55.08-2-15.16-10.93-55.54-21.64-54.25-9.22,1.1,15.34,46.72,20.94,56.89v35.23a.77.77,0,0,0,.79.74.76.76,0,0,0,.78-.74V904.47C510.55,896,568.43,848,547.46,846.84Z"/>
  <g>
    <g>
      <path class="cls-18" d="M710.61,963.48H616.76a20.66,20.66,0,0,1-20.35-17.09L557.68,725.71A20.66,20.66,0,0,1,578,701.47H749.32a20.67,20.67,0,0,1,20.35,24.23L731,946.39A20.67,20.67,0,0,1,710.61,963.48Z"/>
      <rect class="cls-19" x="553.43" y="682.02" width="216.56" height="19.45" rx="9.72"/>
      <rect class="cls-18" x="574.07" y="671.12" width="179.21" height="10.9" rx="5.45"/>
      <path class="cls-18" d="M682.92,659H647.38a4.35,4.35,0,0,0-4.34,4.34V670a4.35,4.35,0,0,0,8.69,0v-2.28h26.85V670a4.35,4.35,0,0,0,8.69,0v-6.63A4.36,4.36,0,0,0,682.92,659Z"/>
      <rect class="cls-20" x="558.69" y="830.88" width="214.48" height="14.89" rx="7.3" transform="translate(-172.39 1504.25) rotate(-90)"/>
      <rect class="cls-20" x="507.24" y="831.34" width="217.2" height="14.89" rx="7.35" transform="translate(-103.11 1591.07) rotate(-100.01)"/>
      <rect class="cls-20" x="606.67" y="831.19" width="217.2" height="14.89" rx="7.35" transform="translate(-230.73 1404.32) rotate(-80.42)"/>
    </g>
    <g>
      <path class="cls-19" d="M649.2,836.39c1.37-6,3.42-15.09-4.18-21.25-9.9-8-31.8-7.55-39.49,1-5.76,6.4-1.59,15.18,1,20.66,3.14,6.6,12.52,21.16,23.82,21.34C644,858.34,649,837.54,649.2,836.39Z"/>
      <path class="cls-19" d="M629.16,788.58c.13-.33,1.24-3.13-.85-3.84-6.26-2.14-36,16.46-34.35,18.86C595.5,805.81,625.64,797.1,629.16,788.58Z"/>
      <path class="cls-19" d="M621.34,823.45c-.53,1.18-9.33.71-16.69-4.14-6.88-4.53-11.09-11.95-10.4-12.8.4-.5,2.39,1.26,7,4.46C614.25,820.06,621.86,822.29,621.34,823.45Z"/>
      <path class="cls-19" d="M616.45,828.73c-.53,1.18-9.33.71-16.69-4.14-6.87-4.53-11.08-12-10.39-12.81.39-.49,2.38,1.27,7,4.47C609.37,825.33,617,827.57,616.45,828.73Z"/>
      <circle class="cls-9" cx="618.97" cy="827.83" r="4.79"/>
      <circle class="cls-9" cx="629.04" cy="827.19" r="8.39"/>
    </g>
    <path class="cls-21" d="M637.48,876.62c1.74,3.5,8.16,15.44,20.43,19.49,14.25,4.72,26.58-3.13,36.47-19.94Z"/>
    <g>
      <path class="cls-19" d="M680.84,835.53c-1.31-6-3.27-15.09,4-21.25,9.5-8,30.52-7.55,37.89,1,5.53,6.4,1.53,15.17-1,20.66-3,6.6-12,21.16-22.85,21.34C685.87,857.47,681.09,836.67,680.84,835.53Z"/>
      <path class="cls-19" d="M700.07,787.71c-.12-.32-1.19-3.12.81-3.83,6-2.14,34.57,16.46,33,18.86C732.37,804.94,703.45,796.24,700.07,787.71Z"/>
      <path class="cls-19" d="M707.58,822.59c.51,1.17,8.95.71,16-4.14,6.59-4.53,10.63-12,10-12.81-.38-.49-2.29,1.27-6.68,4.47C714.37,819.19,707.08,821.43,707.58,822.59Z"/>
      <path class="cls-19" d="M712.26,827.86c.51,1.18,9,.72,16-4.13,6.59-4.53,10.63-12,10-12.81-.38-.49-2.29,1.27-6.69,4.47C719.06,824.47,711.76,826.71,712.26,827.86Z"/>
      <ellipse class="cls-9" cx="709.85" cy="826.97" rx="4.59" ry="4.79"/>
      <ellipse class="cls-9" cx="700.19" cy="826.32" rx="8.05" ry="8.39"/>
    </g>
    <ellipse class="cls-22" cx="610.53" cy="866.46" rx="16.63" ry="5.48"/>
    <ellipse class="cls-22" cx="720.59" cy="866.46" rx="16.63" ry="5.48"/>
  </g>
</svg>
